{"glyphs":{"0":{"ha":1039,"x_min":0,"x_max":0,"o":"m 503 951 b 926 468 775 951 926 783 b 503 -14 926 154 776 -14 b 79 468 229 -14 79 154 b 503 951 79 783 231 951 m 503 788 b 240 469 319 788 240 683 b 503 150 240 254 319 150 b 764 469 686 150 764 254 b 503 788 764 683 685 788 "},"1":{"ha":468,"x_min":0,"x_max":0,"o":"m 139 938 b 357 714 310 938 357 876 l 357 0 l 193 0 l 193 703 b 125 774 193 753 175 774 l 40 774 l 40 938 "},"2":{"ha":1019,"x_min":0,"x_max":0,"o":"m 661 938 b 943 672 842 938 943 844 b 725 421 943 533 876 456 l 335 333 b 257 231 269 318 257 283 l 257 183 b 275 164 257 168 263 164 l 918 164 l 918 0 l 171 0 b 93 76 118 0 93 25 l 93 218 b 299 488 93 371 139 451 l 693 578 b 781 669 760 593 781 625 b 665 774 781 732 740 774 l 124 774 l 124 938 "},"3":{"ha":946,"x_min":0,"x_max":0,"o":"m 551 938 b 865 686 772 938 865 831 b 732 471 865 575 818 507 b 868 251 821 433 868 364 b 556 0 868 111 776 0 l 82 0 l 82 164 l 556 164 b 697 283 651 164 697 208 b 554 396 697 358 649 396 l 265 396 l 265 544 l 550 544 b 693 657 646 544 693 579 b 551 774 693 728 650 774 l 83 774 l 83 938 "},"4":{"ha":978,"x_min":0,"x_max":0,"o":"m 375 832 b 593 938 433 901 481 938 l 697 938 b 867 767 818 938 867 878 l 867 0 l 701 0 l 701 194 l 263 194 b 46 357 104 194 46 251 b 104 508 46 426 69 467 m 246 429 b 229 386 235 417 229 404 b 292 340 229 357 247 340 l 701 340 l 701 728 b 660 774 701 757 689 774 l 586 774 b 501 733 544 774 528 764 "},"5":{"ha":951,"x_min":0,"x_max":0,"o":"m 831 938 l 831 774 l 288 774 b 269 757 275 774 269 769 l 269 586 b 288 569 269 575 275 569 l 565 569 b 882 294 818 569 882 444 b 582 0 882 124 797 0 l 110 0 l 110 164 l 588 164 b 718 297 681 164 718 217 b 574 421 718 372 683 421 l 183 421 b 106 497 131 421 106 446 l 106 861 b 183 938 106 913 131 938 "},"6":{"ha":990,"x_min":0,"x_max":0,"o":"m 863 938 l 863 774 l 503 774 b 247 553 347 774 267 707 l 640 553 b 917 299 832 553 917 471 b 625 0 917 131 833 0 l 465 0 b 79 468 229 0 79 154 b 503 938 79 783 231 938 m 244 421 b 488 164 256 240 333 164 l 618 164 b 756 300 711 164 756 219 b 624 421 756 383 708 421 "},"7":{"ha":904,"x_min":0,"x_max":0,"o":"m 628 938 b 854 746 803 938 854 838 b 776 547 854 683 831 622 l 374 0 l 168 0 l 651 654 b 675 715 668 676 675 696 b 608 774 675 744 660 774 l 40 774 l 40 938 "},"8":{"ha":1008,"x_min":0,"x_max":0,"o":"m 614 938 b 928 681 835 938 928 833 b 794 471 928 574 881 506 b 932 258 882 435 932 367 b 618 0 932 108 839 0 l 389 0 b 76 258 168 0 76 108 b 213 471 76 367 125 435 b 79 681 126 506 79 574 b 393 938 79 833 172 938 m 622 163 b 767 283 721 163 767 207 b 622 400 767 360 718 400 l 385 400 b 240 283 290 400 240 360 b 385 163 240 207 288 163 m 618 542 b 763 656 715 542 763 578 b 619 776 763 728 719 776 l 389 776 b 244 656 289 776 244 728 b 390 542 244 578 293 542 "},"9":{"ha":990,"x_min":0,"x_max":0,"o":"m 542 938 b 911 483 761 938 911 807 b 488 0 911 156 760 0 l 179 0 l 179 164 l 488 164 b 742 385 638 164 719 229 l 349 385 b 74 639 158 385 74 467 b 385 938 74 807 156 938 m 233 638 b 365 517 233 554 281 517 l 746 517 b 503 774 736 694 660 774 l 372 774 b 233 638 279 774 233 718 "},"\u0000":{"ha":0,"x_min":0,"x_max":0,"o":""}," ":{"ha":371,"x_min":0,"x_max":0,"o":""},"\u0017":{"ha":371,"x_min":0,"x_max":0,"o":""},"!":{"ha":325,"x_min":0,"x_max":0,"o":"m 250 964 l 228 331 l 101 331 l 78 964 m 243 189 l 243 0 l 85 0 l 85 189 "},"\"":{"ha":531,"x_min":0,"x_max":0,"o":"m 465 1051 l 447 636 l 343 636 l 324 1051 m 206 1051 l 188 636 l 83 636 l 64 1051 "},"#":{"ha":865,"x_min":0,"x_max":0,"o":"m 317 938 l 317 697 l 547 697 l 547 938 l 649 938 l 649 697 l 806 697 l 806 596 l 649 596 l 649 339 l 806 339 l 806 238 l 649 238 l 649 0 l 547 0 l 547 238 l 317 238 l 317 0 l 215 0 l 215 238 l 58 238 l 58 339 l 215 339 l 215 596 l 58 596 l 58 697 l 215 697 l 215 938 m 317 339 l 547 339 l 547 596 l 317 596 "},"$":{"ha":861,"x_min":0,"x_max":0,"o":"m 403 824 l 403 1019 l 503 1019 l 503 824 l 739 824 l 739 682 l 333 682 b 238 600 265 682 238 649 b 342 515 238 553 260 515 l 514 515 b 768 314 717 515 768 426 b 528 90 768 182 700 90 l 503 90 l 503 -82 l 403 -82 l 403 90 l 101 90 l 101 233 l 528 233 b 624 315 597 233 624 267 b 519 400 624 361 603 400 l 346 400 b 93 611 143 400 93 497 b 332 824 93 742 161 824 "},"%":{"ha":1174,"x_min":0,"x_max":0,"o":"m 1007 938 l 274 0 l 161 0 l 897 938 m 900 522 b 1133 257 1050 522 1133 432 b 900 -8 1133 85 1050 -8 b 668 257 749 -8 668 85 b 900 522 668 432 750 522 m 900 428 b 761 258 801 428 761 374 b 900 88 761 143 801 88 b 1039 258 997 88 1039 143 b 900 428 1039 374 997 428 m 272 944 b 506 679 422 944 506 854 b 272 414 506 507 422 414 b 40 679 121 414 40 507 b 272 944 40 854 122 944 m 272 850 b 133 681 174 850 133 796 b 272 510 133 565 174 510 b 411 681 369 510 411 565 b 272 850 411 796 369 850 "},"&":{"ha":1063,"x_min":0,"x_max":0,"o":"m 585 1051 b 818 814 744 1051 818 944 b 642 575 818 708 768 638 l 556 532 l 721 342 l 843 506 l 1017 506 l 814 236 l 1021 0 l 833 0 l 725 124 b 465 0 629 15 563 0 l 307 0 b 60 261 172 0 60 79 b 306 540 60 383 111 450 l 344 558 l 296 615 b 217 814 249 668 217 731 b 454 1051 217 944 300 1051 m 467 143 b 633 229 531 143 574 161 l 424 468 l 379 446 b 215 282 249 381 215 349 b 339 143 215 199 263 143 l 467 143 m 375 799 b 431 676 375 749 394 717 l 478 622 l 564 664 b 671 799 635 697 671 732 b 565 913 671 860 642 913 l 482 913 b 375 799 407 913 375 863 "},"'":{"ha":269,"x_min":0,"x_max":0,"o":"m 206 1051 l 188 636 l 83 636 l 64 1051 "},"(":{"ha":547,"x_min":0,"x_max":0,"o":"m 508 1243 l 508 1142 l 488 1142 b 214 764 283 1142 214 1050 l 214 113 b 488 -265 214 -174 283 -265 l 508 -265 l 508 -367 l 488 -367 b 113 125 210 -367 113 -222 l 113 751 b 488 1243 113 1099 210 1243 "},")":{"ha":547,"x_min":0,"x_max":0,"o":"m 39 -367 l 39 -265 l 60 -265 b 333 113 264 -265 333 -174 l 333 764 b 60 1142 333 1050 264 1142 l 39 1142 l 39 1243 l 60 1243 b 435 751 338 1243 435 1099 l 435 125 b 60 -367 435 -222 338 -367 "},"*":{"ha":775,"x_min":0,"x_max":0,"o":"m 351 768 l 339 1051 l 435 1051 l 422 768 l 663 921 l 710 838 l 458 707 l 711 576 l 663 494 l 424 646 l 436 363 l 342 363 l 354 646 l 114 492 l 65 575 l 317 707 l 64 836 l 113 919 "},"+":{"ha":860,"x_min":0,"x_max":0,"o":"m 481 843 l 481 518 l 803 518 l 803 417 l 481 417 l 481 96 l 378 96 l 378 417 l 56 417 l 56 518 l 378 518 l 378 843 "},",":{"ha":357,"x_min":0,"x_max":0,"o":"m 268 189 l 268 -36 b 88 -233 268 -168 210 -233 l 39 -233 l 39 -112 l 56 -112 b 110 -53 93 -112 110 -94 l 110 189 "},"-":{"ha":576,"x_min":0,"x_max":0,"o":"m 536 511 l 536 369 l 40 369 l 40 511 "},".":{"ha":336,"x_min":0,"x_max":0,"o":"m 247 189 l 247 0 l 89 0 l 89 189 "},"/":{"ha":632,"x_min":0,"x_max":0,"o":"m 617 1051 l 158 -294 l 15 -294 l 475 1051 "},":":{"ha":378,"x_min":0,"x_max":0,"o":"m 268 714 l 268 525 l 110 525 l 110 714 m 268 189 l 268 0 l 110 0 l 110 189 "},";":{"ha":378,"x_min":0,"x_max":0,"o":"m 268 189 l 268 -36 b 88 -233 268 -168 210 -233 l 39 -233 l 39 -112 l 56 -112 b 110 -53 93 -112 110 -94 l 110 189 m 268 714 l 268 525 l 110 525 l 110 714 "},"<":{"ha":860,"x_min":0,"x_max":0,"o":"m 803 840 l 803 731 l 161 482 b 153 467 154 478 153 474 b 161 451 153 460 154 454 l 803 203 l 803 94 l 117 364 b 56 467 72 381 56 414 b 117 569 56 519 72 551 "},"=":{"ha":860,"x_min":0,"x_max":0,"o":"m 803 339 l 803 238 l 56 238 l 56 339 m 803 697 l 803 596 l 56 596 l 56 697 "},">":{"ha":860,"x_min":0,"x_max":0,"o":"m 57 93 l 57 203 l 699 451 b 707 467 706 456 707 460 b 699 482 707 474 706 479 l 57 731 l 57 839 l 743 569 b 804 467 788 553 804 519 b 743 364 804 414 788 382 "},"?":{"ha":790,"x_min":0,"x_max":0,"o":"m 471 964 b 740 722 664 964 740 865 b 514 475 740 588 672 475 l 433 475 b 367 410 386 475 367 450 l 367 331 l 240 331 l 240 440 b 396 604 240 547 283 604 l 486 604 b 594 715 561 604 594 651 b 471 822 594 779 557 822 l 40 822 l 40 964 m 383 189 l 383 0 l 225 0 l 225 189 "},"@":{"ha":1064,"x_min":0,"x_max":0,"o":"m 722 843 b 957 590 882 843 957 764 l 957 236 b 729 -8 957 60 879 -8 l 593 -8 b 365 236 443 -8 365 60 l 365 288 b 593 532 365 467 443 532 l 842 532 l 842 583 b 711 725 842 683 803 725 l 365 725 b 221 554 274 725 221 672 l 221 -6 b 365 -176 221 -124 274 -176 l 951 -176 l 951 -294 l 365 -294 b 107 -4 203 -294 107 -199 l 107 553 b 365 843 107 747 203 843 m 729 110 b 842 236 803 110 842 144 l 842 414 l 593 414 b 481 288 519 414 481 381 l 481 236 b 593 110 481 144 519 110 l 729 110 "},"A":{"ha":1089,"x_min":0,"x_max":0,"o":"m 207 0 l 26 0 l 356 833 b 553 954 390 921 454 954 b 747 833 650 954 714 921 l 1064 0 l 882 0 l 597 754 b 551 786 589 776 574 786 b 504 754 529 786 514 776 "},"B":{"ha":999,"x_min":0,"x_max":0,"o":"m 604 938 b 918 681 825 938 918 833 b 783 472 918 572 871 507 b 922 258 872 436 922 367 b 608 0 922 108 829 0 l 192 0 b 114 76 139 0 114 25 l 114 861 b 192 938 114 913 139 938 m 275 178 b 293 163 275 167 282 163 l 613 163 b 757 285 711 163 757 208 b 613 406 757 364 708 406 l 275 406 m 275 542 l 608 542 b 753 654 706 542 753 578 b 610 776 753 728 710 776 l 293 776 b 275 760 282 776 275 771 "},"C":{"ha":947,"x_min":0,"x_max":0,"o":"m 865 938 l 865 774 l 503 774 b 243 468 322 774 243 683 b 503 164 243 254 321 164 l 865 164 l 865 0 l 503 0 b 79 468 229 0 79 154 b 503 938 79 783 231 938 "},"D":{"ha":1024,"x_min":0,"x_max":0,"o":"m 522 938 b 944 468 796 938 944 785 b 522 0 944 153 797 0 l 192 0 b 114 76 139 0 114 25 l 114 861 b 192 938 114 913 139 938 m 278 181 b 296 164 278 168 283 164 l 522 164 b 781 469 704 164 781 254 b 522 774 781 683 704 774 l 296 774 b 278 757 283 774 278 769 "},"E":{"ha":963,"x_min":0,"x_max":0,"o":"m 863 938 l 863 774 l 393 774 b 251 656 294 774 251 728 b 394 544 251 579 300 544 l 856 544 l 856 396 l 390 396 b 247 282 296 396 247 358 b 389 164 247 208 293 164 l 864 164 l 864 0 l 389 0 b 76 256 167 0 76 110 b 211 471 76 363 125 435 b 79 682 124 507 79 579 b 393 938 79 832 172 938 "},"F":{"ha":921,"x_min":0,"x_max":0,"o":"m 840 938 l 840 774 l 463 774 b 269 615 314 774 269 703 l 269 526 l 835 526 l 835 371 l 269 371 l 269 0 l 106 0 l 106 614 b 451 938 106 801 203 938 "},"G":{"ha":1013,"x_min":0,"x_max":0,"o":"m 889 938 l 889 774 l 503 774 b 243 468 322 774 243 683 b 503 164 243 254 321 164 l 658 164 b 789 296 750 164 789 219 b 674 415 789 371 750 415 l 465 415 l 465 558 l 690 558 b 939 293 857 558 939 456 b 647 0 939 129 857 0 l 503 0 b 79 468 229 0 79 154 b 503 938 79 783 231 938 "},"H":{"ha":1035,"x_min":0,"x_max":0,"o":"m 278 938 l 278 556 l 757 556 l 757 938 l 922 938 l 922 0 l 757 0 l 757 392 l 278 392 l 278 0 l 114 0 l 114 938 "},"I":{"ha":390,"x_min":0,"x_max":0,"o":"m 278 938 l 278 0 l 114 0 l 114 938 "},"J":{"ha":810,"x_min":0,"x_max":0,"o":"m 706 938 l 706 324 b 358 0 706 136 607 0 l 40 0 l 40 164 l 349 164 b 540 325 496 164 540 235 l 540 938 "},"K":{"ha":983,"x_min":0,"x_max":0,"o":"m 278 938 l 278 540 l 368 540 b 608 657 529 540 556 554 l 751 938 l 928 938 l 781 646 b 618 475 739 563 694 508 b 804 294 706 451 749 403 l 956 0 l 772 0 l 629 278 b 368 392 578 378 544 392 l 278 392 l 278 0 l 114 0 l 114 938 "},"L":{"ha":864,"x_min":0,"x_max":0,"o":"m 268 938 l 268 325 b 460 164 268 235 313 164 l 824 164 l 824 0 l 450 0 b 104 324 201 0 104 136 l 104 938 "},"M":{"ha":1531,"x_min":0,"x_max":0,"o":"m 275 0 l 113 0 l 113 744 b 338 954 113 869 186 954 b 574 769 471 954 547 888 l 706 196 b 768 143 714 163 733 143 b 831 196 803 143 822 163 l 963 769 b 1193 954 989 888 1058 954 b 1418 744 1344 954 1418 869 l 1418 0 l 1256 0 l 1256 736 b 1189 796 1256 772 1232 796 b 1124 746 1150 796 1131 776 l 989 172 b 767 -17 960 49 896 -17 b 540 172 636 -17 568 51 l 407 746 b 342 796 400 776 379 796 b 275 736 299 796 275 772 "},"N":{"ha":1221,"x_min":0,"x_max":0,"o":"m 276 0 l 113 0 l 113 750 b 328 954 113 872 182 954 b 556 781 458 954 517 888 l 829 182 b 889 143 840 160 858 143 b 944 196 924 143 944 164 l 944 938 l 1110 938 l 1110 189 b 894 -17 1110 65 1039 -17 b 665 157 764 -17 704 50 l 392 756 b 333 796 379 783 363 796 b 276 742 296 796 276 775 "},"O":{"ha":1133,"x_min":0,"x_max":0,"o":"m 631 938 b 1054 467 903 938 1054 782 b 631 0 1054 153 904 0 l 503 0 b 79 467 229 0 79 153 b 503 938 79 782 231 938 m 503 774 b 243 467 322 774 243 682 b 503 164 243 253 321 164 l 631 164 b 889 468 811 164 889 253 b 631 774 889 682 811 774 "},"P":{"ha":943,"x_min":0,"x_max":0,"o":"m 592 938 b 893 657 803 938 893 807 b 592 363 893 515 811 363 l 300 363 b 276 339 285 363 276 356 l 276 0 l 113 0 l 113 371 b 260 519 113 476 157 519 l 597 519 b 728 649 690 519 728 583 b 599 774 728 717 688 774 l 111 774 l 111 938 "},"Q":{"ha":1133,"x_min":0,"x_max":0,"o":"m 631 938 b 1054 468 903 938 1054 783 b 839 39 1054 246 979 103 l 928 -147 l 763 -147 l 690 3 b 631 0 671 0 651 0 l 503 0 b 79 468 229 0 79 154 b 503 938 79 783 231 938 m 685 363 l 767 189 b 889 468 851 229 889 319 b 631 774 889 682 811 774 l 503 774 b 243 468 322 774 243 682 b 503 164 243 254 321 164 l 614 164 l 519 363 "},"R":{"ha":992,"x_min":0,"x_max":0,"o":"m 619 938 b 921 657 831 938 921 807 b 722 375 921 540 865 415 l 940 0 l 758 0 l 544 363 l 300 363 b 276 339 285 363 276 356 l 276 0 l 113 0 l 113 371 b 260 519 113 476 157 519 l 625 519 b 756 650 718 519 756 583 b 625 774 756 717 715 774 l 111 774 l 111 938 "},"S":{"ha":976,"x_min":0,"x_max":0,"o":"m 838 938 l 838 774 l 357 774 b 235 663 272 774 235 728 b 374 551 235 606 264 551 l 593 551 b 908 275 849 551 908 410 b 610 0 908 117 824 0 l 88 0 l 88 164 l 615 164 b 744 281 704 164 744 213 b 597 397 744 342 713 397 l 379 397 b 71 668 129 397 71 538 b 363 938 71 824 154 938 "},"T":{"ha":793,"x_min":0,"x_max":0,"o":"m 753 938 l 753 774 l 479 774 l 479 0 l 314 0 l 314 774 l 40 774 l 40 938 "},"U":{"ha":1017,"x_min":0,"x_max":0,"o":"m 274 938 l 274 311 b 429 164 274 218 321 164 l 596 164 b 750 311 701 164 750 218 l 750 938 l 911 938 l 911 299 b 607 0 911 101 807 0 l 410 0 b 107 299 210 0 107 101 l 107 938 "},"V":{"ha":1089,"x_min":0,"x_max":0,"o":"m 207 938 l 492 183 b 538 151 500 161 515 151 b 583 183 560 151 574 161 l 882 938 l 1064 938 l 733 104 b 538 -17 699 17 635 -17 b 340 104 446 -17 375 13 l 26 938 "},"W":{"ha":1453,"x_min":0,"x_max":0,"o":"m 217 938 l 286 206 b 343 143 290 165 307 143 b 401 194 375 143 394 160 l 513 769 b 728 954 536 890 606 954 b 938 769 850 954 915 890 l 1042 194 b 1101 143 1047 161 1068 143 b 1158 206 1138 143 1154 165 l 1238 938 l 1408 938 l 1321 196 b 1101 -17 1307 72 1249 -17 b 886 174 983 -17 910 42 l 783 746 b 726 796 778 779 757 796 b 669 746 696 796 676 779 l 560 174 b 339 -17 535 46 464 -17 b 125 196 194 -17 139 69 l 44 938 "},"X":{"ha":1085,"x_min":0,"x_max":0,"o":"m 265 938 l 553 592 l 854 938 l 1057 938 l 656 476 l 1060 0 l 860 0 l 549 372 l 229 0 l 26 0 l 446 489 l 65 938 "},"Y":{"ha":957,"x_min":0,"x_max":0,"o":"m 217 938 l 479 536 l 744 938 l 939 938 l 561 404 l 561 0 l 396 0 l 396 404 l 18 938 "},"Z":{"ha":1032,"x_min":0,"x_max":0,"o":"m 728 938 b 956 732 878 938 956 863 b 806 513 956 625 906 556 l 294 294 b 247 225 265 282 247 257 b 317 164 247 189 271 164 l 935 164 l 935 0 l 306 0 b 79 206 156 0 79 75 b 231 425 79 313 129 382 l 739 643 b 788 713 769 656 788 681 b 717 774 788 749 764 774 l 113 774 l 113 938 "},"[":{"ha":547,"x_min":0,"x_max":0,"o":"m 508 1243 l 508 1142 l 215 1142 l 215 -265 l 508 -265 l 508 -367 l 114 -367 l 114 1243 "},"\\":{"ha":632,"x_min":0,"x_max":0,"o":"m 157 1051 l 617 -294 l 474 -294 l 15 1051 "},"]":{"ha":547,"x_min":0,"x_max":0,"o":"m 39 -367 l 39 -265 l 332 -265 l 332 1142 l 39 1142 l 39 1243 l 433 1243 l 433 -367 "},"^":{"ha":743,"x_min":0,"x_max":0,"o":"m 181 507 l 71 507 l 268 990 b 371 1051 286 1035 318 1051 b 474 990 424 1051 456 1035 l 669 510 l 560 510 l 386 944 b 371 954 382 953 376 954 b 356 944 364 954 358 951 "},"_":{"ha":714,"x_min":0,"x_max":0,"o":"m 719 -189 l 719 -294 l 0 -294 l 0 -189 "},"`":{"ha":478,"x_min":0,"x_max":0,"o":"m 281 1079 l 436 781 l 289 781 l 117 1079 "},"a":{"ha":933,"x_min":0,"x_max":0,"o":"m 575 733 b 831 492 758 733 831 631 l 831 147 b 679 0 831 42 803 0 l 336 0 b 90 224 163 0 90 85 b 338 435 90 357 157 435 l 686 435 l 686 490 b 574 592 686 547 654 592 l 135 592 l 135 733 m 646 143 b 686 181 675 143 686 154 l 686 318 l 340 318 b 235 232 263 318 235 286 b 338 143 235 178 264 143 l 646 143 "},"b":{"ha":965,"x_min":0,"x_max":0,"o":"m 253 1051 l 253 733 l 578 733 b 894 367 772 733 894 614 b 578 0 894 119 772 0 l 375 0 b 106 314 199 0 106 103 l 106 1051 m 253 592 l 253 321 b 418 143 253 196 299 143 l 563 143 b 746 367 690 143 746 208 b 563 592 746 525 690 592 "},"c":{"ha":836,"x_min":0,"x_max":0,"o":"m 767 733 l 767 592 l 403 592 b 219 367 275 592 219 525 b 403 143 219 208 275 143 l 767 143 l 767 0 l 389 0 b 71 367 193 0 71 119 b 389 733 71 614 193 733 "},"d":{"ha":965,"x_min":0,"x_max":0,"o":"m 861 1051 l 861 314 b 592 0 861 103 767 0 l 389 0 b 71 367 193 0 71 119 b 389 733 71 614 193 733 l 713 733 l 713 1051 m 549 143 b 713 321 667 143 713 196 l 713 592 l 403 592 b 219 367 276 592 219 525 b 403 143 219 208 276 143 l 549 143 "},"e":{"ha":906,"x_min":0,"x_max":0,"o":"m 583 733 b 831 508 757 733 831 650 b 582 297 831 374 763 297 l 233 297 l 233 244 b 346 143 233 186 265 143 l 794 143 l 794 0 l 346 0 b 90 242 163 0 90 103 l 90 492 b 346 733 90 631 163 733 m 233 413 l 578 413 b 686 500 657 413 686 446 b 582 592 686 556 654 592 l 346 592 b 233 490 265 592 233 547 "},"f":{"ha":521,"x_min":0,"x_max":0,"o":"m 132 733 l 132 799 b 349 1051 132 990 197 1051 l 481 1051 l 481 917 l 379 917 b 281 807 310 917 281 889 l 281 733 l 483 733 l 483 592 l 281 592 l 281 0 l 132 0 l 132 592 l 32 592 l 32 733 "},"g":{"ha":961,"x_min":0,"x_max":0,"o":"m 592 733 b 861 419 767 733 861 631 l 861 -3 b 583 -293 861 -211 789 -293 l 147 -293 l 147 -151 l 567 -151 b 713 -3 676 -151 713 -108 l 713 31 l 389 31 b 71 383 193 31 71 146 b 389 733 71 619 193 733 m 219 378 b 403 164 219 228 276 164 l 713 164 l 713 421 b 549 592 713 540 667 592 l 403 592 b 219 378 276 592 219 528 "},"h":{"ha":982,"x_min":0,"x_max":0,"o":"m 253 1051 l 253 733 l 511 733 b 881 413 758 733 881 614 l 881 0 l 732 0 l 732 413 b 511 592 732 525 664 592 l 253 592 l 253 0 l 106 0 l 106 1051 "},"i":{"ha":358,"x_min":0,"x_max":0,"o":"m 253 733 l 253 0 l 106 0 l 106 733 m 254 1010 l 254 839 l 106 839 l 106 1010 "},"j":{"ha":375,"x_min":0,"x_max":0,"o":"m 269 733 l 269 -42 b 54 -294 269 -233 204 -294 l -75 -294 l -75 -153 l 21 -153 b 121 -43 93 -153 121 -125 l 121 733 m 269 1010 l 269 839 l 121 839 l 121 1010 "},"k":{"ha":836,"x_min":0,"x_max":0,"o":"m 253 1051 l 253 429 l 321 429 b 504 513 438 429 461 435 l 626 733 l 786 733 l 658 503 b 528 372 622 438 588 397 b 678 231 597 353 633 307 l 810 0 l 644 0 l 522 217 b 321 306 479 293 450 306 l 253 306 l 253 0 l 106 0 l 106 1051 "},"l":{"ha":358,"x_min":0,"x_max":0,"o":"m 253 1051 l 253 0 l 106 0 l 106 1051 "},"m":{"ha":1433,"x_min":0,"x_max":0,"o":"m 963 733 b 1333 413 1211 733 1333 615 l 1333 0 l 1185 0 l 1185 413 b 964 592 1185 528 1118 592 l 792 592 l 792 0 l 643 0 l 643 592 l 271 592 b 253 571 258 592 253 585 l 253 0 l 106 0 l 106 619 b 208 733 106 706 135 733 "},"n":{"ha":982,"x_min":0,"x_max":0,"o":"m 511 733 b 881 413 760 733 881 615 l 881 0 l 732 0 l 732 413 b 511 592 732 528 665 592 l 271 592 b 253 571 258 592 253 585 l 253 0 l 106 0 l 106 619 b 208 733 106 706 135 733 "},"o":{"ha":932,"x_min":0,"x_max":0,"o":"m 543 733 b 861 367 738 733 861 614 b 543 0 861 119 738 0 l 389 0 b 71 367 193 0 71 119 b 389 733 71 614 193 733 m 403 592 b 219 367 275 592 219 525 b 403 143 219 208 275 143 l 529 143 b 713 367 656 143 713 208 b 529 592 713 525 656 592 "},"p":{"ha":963,"x_min":0,"x_max":0,"o":"m 575 733 b 892 367 769 733 892 614 b 575 0 892 119 769 0 l 250 0 l 250 -294 l 103 -294 l 103 419 b 372 733 103 631 196 733 m 250 143 l 560 143 b 743 367 688 143 743 208 b 560 592 743 525 688 592 l 415 592 b 250 413 296 592 250 539 "},"q":{"ha":963,"x_min":0,"x_max":0,"o":"m 592 733 b 861 419 767 733 861 631 l 861 -294 l 713 -294 l 713 0 l 389 0 b 71 367 193 0 71 119 b 389 733 71 614 193 733 m 219 367 b 403 143 219 208 276 143 l 713 143 l 713 413 b 549 592 713 539 667 592 l 403 592 b 219 367 276 592 219 525 "},"r":{"ha":643,"x_min":0,"x_max":0,"o":"m 604 733 l 604 592 l 346 592 b 251 497 281 592 251 561 l 251 0 l 104 0 l 104 519 b 303 733 104 667 158 733 "},"s":{"ha":814,"x_min":0,"x_max":0,"o":"m 717 733 l 717 592 l 311 592 b 215 508 243 592 215 564 b 319 429 215 457 238 429 l 492 429 b 746 222 694 429 746 336 b 506 0 746 92 678 0 l 79 0 l 79 143 l 506 143 b 601 224 574 143 601 167 b 497 306 601 282 571 306 l 324 306 b 71 519 121 306 71 407 b 310 733 71 651 139 733 "},"t":{"ha":521,"x_min":0,"x_max":0,"o":"m 132 733 l 132 907 l 281 907 l 281 733 l 483 733 l 483 592 l 281 592 l 281 244 b 379 135 281 163 310 135 l 481 135 l 481 0 l 349 0 b 132 253 197 0 132 61 l 132 592 l 32 592 l 32 733 "},"u":{"ha":975,"x_min":0,"x_max":0,"o":"m 250 733 l 250 294 b 431 143 250 208 314 143 l 550 143 b 729 294 667 143 729 208 l 729 733 l 874 733 l 874 289 b 556 0 874 119 765 0 l 419 0 b 101 289 210 0 101 119 l 101 733 "},"v":{"ha":940,"x_min":0,"x_max":0,"o":"m 182 733 l 426 144 b 463 122 432 129 444 122 b 501 144 482 122 494 129 l 756 733 l 914 733 l 631 79 b 463 -17 600 10 546 -17 b 296 79 378 -17 324 11 l 26 733 "},"w":{"ha":1357,"x_min":0,"x_max":0,"o":"m 201 733 l 267 161 b 319 114 271 129 285 114 b 374 154 353 114 367 128 l 478 599 b 679 747 500 696 563 747 b 875 599 796 747 853 696 l 974 154 b 1029 114 979 128 996 114 b 1079 161 1063 114 1075 129 l 1156 733 l 1315 733 l 1233 153 b 1028 -17 1219 51 1161 -17 b 831 135 914 -17 853 33 l 732 581 b 678 617 726 606 706 617 b 624 581 649 617 629 606 l 519 135 b 317 -17 496 33 433 -17 b 118 153 181 -17 132 51 l 42 733 "},"x":{"ha":946,"x_min":0,"x_max":0,"o":"m 236 733 l 479 468 l 732 733 l 915 733 l 571 368 l 919 0 l 732 0 l 474 282 l 210 0 l 26 0 l 383 382 l 50 733 "},"y":{"ha":899,"x_min":0,"x_max":0,"o":"m 872 733 l 431 -294 l 272 -294 l 410 26 b 272 117 326 26 297 53 l 26 733 l 182 733 l 403 188 b 447 157 413 161 419 157 l 467 157 l 715 733 "},"z":{"ha":867,"x_min":0,"x_max":0,"o":"m 608 733 b 797 565 736 733 797 667 b 672 389 797 475 749 417 l 251 236 b 213 186 226 226 213 210 b 268 142 213 158 231 142 l 782 142 l 782 0 l 260 0 b 71 168 133 0 71 67 b 196 346 71 250 111 315 l 618 497 b 657 549 649 508 657 529 b 600 592 657 576 639 592 l 97 592 l 97 733 "},"{":{"ha":547,"x_min":0,"x_max":0,"o":"m 508 1243 l 508 1142 l 461 1142 b 336 1015 372 1142 336 1104 l 336 617 b 263 438 336 522 304 467 b 336 260 304 410 336 356 l 336 -139 b 461 -265 336 -228 372 -265 l 508 -265 l 508 -367 l 461 -367 b 238 -142 300 -367 238 -307 l 238 260 b 144 388 238 357 194 388 l 74 388 l 74 489 l 144 489 b 238 617 194 489 238 519 l 238 1018 b 461 1243 238 1185 300 1243 "},"|":{"ha":401,"x_min":0,"x_max":0,"o":"m 251 1107 l 251 -231 l 150 -231 l 150 1107 "},"}":{"ha":547,"x_min":0,"x_max":0,"o":"m 39 -367 l 39 -265 l 86 -265 b 211 -139 175 -265 211 -228 l 211 260 b 285 439 211 354 243 410 b 211 617 243 467 211 521 l 211 1015 b 86 1142 211 1104 175 1142 l 39 1142 l 39 1243 l 86 1243 b 310 1018 247 1243 310 1183 l 310 617 b 403 489 310 519 353 489 l 474 489 l 474 388 l 403 388 b 310 260 353 388 310 357 l 310 -142 b 86 -367 310 -308 247 -367 "},"~":{"ha":860,"x_min":0,"x_max":0,"o":"m 56 496 b 231 576 92 543 144 576 b 444 511 306 576 361 551 b 632 458 507 483 563 458 b 803 553 699 458 743 481 l 803 438 b 628 357 768 392 714 357 b 414 422 553 357 497 383 b 228 476 351 451 296 476 b 56 381 160 476 115 454 "}," ":{"ha":371,"x_min":0,"x_max":0,"o":""},"¡":{"ha":325,"x_min":0,"x_max":0,"o":"m 79 -231 l 101 403 l 228 403 l 251 -231 m 86 544 l 86 733 l 244 733 l 244 544 "},"¢":{"ha":861,"x_min":0,"x_max":0,"o":"m 443 824 l 443 1019 l 546 1019 l 546 824 l 778 824 l 778 682 l 414 682 b 231 456 286 682 231 615 b 414 233 231 299 286 233 l 778 233 l 778 90 l 546 90 l 546 -82 l 443 -82 l 443 90 l 400 90 b 82 456 204 90 82 210 b 400 824 82 704 204 824 "},"£":{"ha":903,"x_min":0,"x_max":0,"o":"m 221 542 l 221 614 b 568 938 221 801 319 938 l 800 938 l 800 774 l 579 774 b 386 613 431 774 386 703 l 386 542 l 794 542 l 794 418 l 386 418 l 386 164 l 803 164 l 803 0 l 53 0 l 53 164 l 221 164 l 221 418 l 53 418 l 53 542 "},"¤":{"ha":913,"x_min":0,"x_max":0,"o":"m 496 781 b 649 744 556 781 607 768 l 775 871 l 847 800 l 721 674 b 769 476 753 625 769 560 b 722 279 769 393 753 328 l 846 156 l 775 83 l 649 210 b 496 175 607 186 556 175 l 413 175 b 258 210 351 175 300 186 l 132 85 l 61 156 l 185 279 b 138 476 154 328 138 393 b 185 674 138 558 153 625 l 60 799 l 132 871 l 258 744 b 413 781 300 768 351 781 m 408 678 b 240 478 290 678 240 618 b 408 278 240 338 290 278 l 500 278 b 667 478 618 278 667 338 b 500 678 667 618 617 678 "},"¥":{"ha":957,"x_min":0,"x_max":0,"o":"m 217 938 l 479 536 l 744 938 l 939 938 l 594 451 l 879 451 l 879 367 l 561 367 l 561 233 l 879 233 l 879 149 l 561 149 l 561 0 l 396 0 l 396 149 l 78 149 l 78 233 l 396 233 l 396 367 l 78 367 l 78 451 l 363 451 l 18 938 "},"¦":{"ha":401,"x_min":0,"x_max":0,"o":"m 251 1107 l 251 532 l 150 532 l 150 1107 m 251 344 l 251 -231 l 150 -231 l 150 344 "},"§":{"ha":921,"x_min":0,"x_max":0,"o":"m 814 938 l 814 796 l 326 796 b 206 692 240 796 206 756 b 311 582 206 629 238 582 l 550 582 b 717 411 672 582 717 526 l 717 208 b 849 -18 808 174 849 85 b 581 -258 849 -161 771 -258 l 93 -258 l 93 -117 l 581 -117 b 701 -12 665 -117 701 -76 b 596 97 701 50 668 97 l 357 97 b 190 268 235 97 190 153 l 190 469 b 58 697 99 504 58 593 b 325 938 58 840 136 938 m 317 454 l 317 300 b 393 225 317 250 339 225 l 590 225 l 590 379 b 513 454 590 429 568 454 "},"¨":{"ha":636,"x_min":0,"x_max":0,"o":"m 224 1010 l 224 839 l 75 839 l 75 1010 m 557 1010 l 557 839 l 408 839 l 408 1010 "},"©":{"ha":1133,"x_min":0,"x_max":0,"o":"m 631 936 b 1054 467 903 936 1054 782 b 631 -1 1054 153 904 -1 l 503 -1 b 79 467 229 -1 79 153 b 503 936 79 782 231 936 m 503 844 b 169 467 289 844 169 722 b 503 90 169 213 289 90 l 631 90 b 963 467 844 90 963 213 b 631 844 963 722 844 844 m 738 722 l 738 636 l 546 636 b 408 474 450 636 408 588 b 546 313 408 361 449 313 l 738 313 l 738 226 l 546 226 b 321 474 400 226 321 308 b 546 722 321 642 401 722 "},"ª":{"ha":658,"x_min":0,"x_max":0,"o":"m 401 938 b 572 772 525 938 572 868 l 572 543 b 465 436 572 467 553 436 l 242 436 b 81 586 128 436 81 493 b 243 728 81 676 124 728 l 474 728 l 474 771 b 401 840 474 810 453 840 l 111 840 l 111 938 m 443 533 b 474 565 465 533 474 543 l 474 649 l 244 649 b 179 592 199 649 179 628 b 243 533 179 557 199 533 l 443 533 "},"«":{"ha":583,"x_min":0,"x_max":0,"o":"m 542 758 l 371 404 b 364 379 367 397 364 388 b 371 354 364 371 367 363 l 542 0 l 443 0 l 286 317 b 274 379 278 335 274 357 b 286 442 274 400 278 424 l 443 758 m 310 758 l 139 404 b 132 379 135 397 132 388 b 139 354 132 371 135 363 l 310 0 l 211 0 l 54 317 b 42 379 46 335 42 357 b 54 442 42 400 46 424 l 211 758 "},"¬":{"ha":860,"x_min":0,"x_max":0,"o":"m 803 543 l 803 0 l 701 0 l 701 442 l 56 442 l 56 543 "},"­":{"ha":576,"x_min":0,"x_max":0,"o":"m 536 511 l 536 369 l 40 369 l 40 511 "},"®":{"ha":1133,"x_min":0,"x_max":0,"o":"m 631 936 b 1054 467 903 936 1054 782 b 631 -1 1054 153 904 -1 l 503 -1 b 79 467 229 -1 79 153 b 503 936 79 782 231 936 m 503 844 b 169 467 289 844 169 722 b 503 90 169 213 289 90 l 631 90 b 963 467 844 90 963 213 b 631 844 963 722 844 844 m 624 726 b 783 578 736 726 783 658 b 678 429 783 517 754 450 l 793 231 l 697 231 l 583 422 l 454 422 b 442 410 447 422 442 418 l 442 231 l 356 231 l 356 426 b 433 506 356 483 379 506 l 626 506 b 696 575 676 506 696 539 b 626 640 696 610 675 640 l 354 640 l 354 726 "},"¯":{"ha":796,"x_min":0,"x_max":0,"o":"m 713 996 l 713 872 l 75 872 l 75 996 "},"°":{"ha":540,"x_min":0,"x_max":0,"o":"m 321 954 b 506 733 435 954 506 882 b 321 513 506 585 435 513 l 231 513 b 47 733 117 513 47 585 b 231 954 47 882 117 954 m 239 867 b 138 733 167 867 138 828 b 239 601 138 639 167 601 l 313 601 b 414 733 383 601 414 639 b 313 867 414 828 383 867 "},"±":{"ha":860,"x_min":0,"x_max":0,"o":"m 481 939 l 481 614 l 803 614 l 803 513 l 481 513 l 481 192 l 378 192 l 378 513 l 56 513 l 56 614 l 378 614 l 378 939 m 803 126 l 803 25 l 56 25 l 56 126 "},"²":{"ha":547,"x_min":0,"x_max":0,"o":"m 353 938 b 508 794 453 938 508 888 b 388 651 508 718 472 671 l 174 603 b 136 549 147 597 136 588 l 136 531 b 147 518 136 521 139 518 l 494 518 l 494 422 l 90 422 b 40 471 57 422 40 439 l 40 542 b 154 693 40 636 71 675 l 369 743 b 414 792 406 751 414 768 b 354 842 414 825 400 842 l 57 842 l 57 938 "},"³":{"ha":547,"x_min":0,"x_max":0,"o":"m 324 938 b 488 800 444 938 488 879 b 424 681 488 740 467 701 b 490 560 468 658 490 619 b 325 422 490 482 446 422 l 57 422 l 57 518 l 325 518 b 390 579 374 518 390 536 b 324 636 390 618 375 636 l 158 636 l 158 724 l 322 724 b 388 782 375 724 388 743 b 324 842 388 824 374 842 l 57 842 l 57 938 "},"´":{"ha":478,"x_min":0,"x_max":0,"o":"m 354 1079 l 181 781 l 35 781 l 190 1079 "},"¶":{"ha":1018,"x_min":0,"x_max":0,"o":"m 750 1051 b 908 885 865 1051 908 994 l 908 -297 l 782 -297 l 782 840 b 713 910 782 883 761 910 l 346 910 b 210 789 250 910 210 863 b 329 665 210 719 246 665 l 411 665 b 563 513 521 665 563 613 l 563 -294 l 436 -294 l 436 482 b 375 538 436 515 418 538 l 301 538 b 63 796 133 538 63 654 b 346 1051 63 947 144 1051 "},"·":{"ha":336,"x_min":0,"x_max":0,"o":"m 247 539 l 247 350 l 89 350 l 89 539 "},"¸":{"ha":374,"x_min":0,"x_max":0,"o":"m 290 -33 l 290 -182 b 121 -367 290 -306 236 -367 l 75 -367 l 75 -256 l 92 -256 b 143 -197 128 -256 143 -237 l 143 -33 "},"¹":{"ha":547,"x_min":0,"x_max":0,"o":"m 256 938 b 388 803 363 938 388 904 l 388 422 l 293 422 l 293 796 b 247 842 293 832 283 842 l 142 842 l 142 938 "},"º":{"ha":665,"x_min":0,"x_max":0,"o":"m 383 938 b 593 686 513 938 593 856 b 383 436 593 517 513 436 l 279 436 b 69 686 151 436 69 517 b 279 938 69 856 151 938 m 289 840 b 171 686 208 840 171 794 b 289 533 171 579 208 533 l 374 533 b 490 686 456 533 490 579 b 374 840 490 794 456 840 "},"»":{"ha":583,"x_min":0,"x_max":0,"o":"m 371 758 l 529 442 b 542 379 538 424 542 400 b 529 317 542 357 536 335 l 371 0 l 274 0 l 444 354 b 450 379 447 363 450 371 b 444 404 450 388 447 397 l 274 758 m 139 758 l 297 442 b 310 379 306 424 310 400 b 297 317 310 357 304 335 l 139 0 l 42 0 l 213 354 b 218 379 215 363 218 371 b 213 404 218 388 215 397 l 42 758 "},"¼":{"ha":1201,"x_min":0,"x_max":0,"o":"m 989 938 l 256 0 l 143 0 l 879 938 m 221 938 b 353 803 328 938 353 904 l 353 422 l 258 422 l 258 796 b 213 842 258 832 249 842 l 107 842 l 107 938 m 818 457 b 938 515 850 497 878 515 l 996 515 b 1088 422 1061 515 1088 483 l 1088 0 l 992 0 l 992 111 l 758 111 b 640 199 672 111 640 142 b 672 282 640 238 653 258 m 754 236 b 746 215 749 231 746 224 b 775 196 746 203 754 196 l 992 196 l 992 400 b 975 419 992 414 986 419 l 935 419 b 892 401 914 419 904 417 "},"½":{"ha":1201,"x_min":0,"x_max":0,"o":"m 951 938 l 218 0 l 106 0 l 842 938 m 183 938 b 315 803 290 938 315 904 l 315 422 l 221 422 l 221 796 b 175 842 221 832 211 842 l 69 842 l 69 938 m 975 515 b 1131 372 1075 515 1131 465 b 1010 229 1131 296 1094 249 l 796 181 b 758 126 769 175 758 165 l 758 108 b 769 96 758 99 761 96 l 1117 96 l 1117 0 l 713 0 b 663 49 679 0 663 17 l 663 119 b 776 271 663 214 693 253 l 992 321 b 1036 369 1028 329 1036 346 b 976 419 1036 403 1022 419 l 679 419 l 679 515 "},"¾":{"ha":1201,"x_min":0,"x_max":0,"o":"m 1039 938 l 306 0 l 193 0 l 929 938 m 868 457 b 988 515 900 497 928 515 l 1046 515 b 1138 422 1111 515 1138 483 l 1138 0 l 1042 0 l 1042 111 l 808 111 b 690 199 722 111 690 142 b 722 282 690 238 703 258 m 804 236 b 796 215 799 231 796 224 b 825 196 796 203 804 196 l 1042 196 l 1042 400 b 1025 419 1042 414 1036 419 l 985 419 b 942 401 964 419 954 417 m 325 938 b 489 800 446 938 489 879 b 425 681 489 740 468 701 b 492 560 469 658 492 619 b 326 422 492 482 447 422 l 58 422 l 58 518 l 326 518 b 392 579 375 518 392 536 b 325 636 392 618 376 636 l 160 636 l 160 724 l 324 724 b 389 782 376 724 389 743 b 325 842 389 824 375 842 l 58 842 l 58 938 "},"¿":{"ha":790,"x_min":0,"x_max":0,"o":"m 310 -231 b 40 11 117 -231 40 -132 b 267 258 40 146 108 258 l 347 258 b 414 324 394 258 414 283 l 414 403 l 540 403 l 540 293 b 385 129 540 186 497 129 l 294 129 b 186 18 219 129 186 82 b 310 -89 186 -46 224 -89 l 740 -89 l 740 -231 m 397 544 l 397 733 l 556 733 l 556 544 "},"À":{"ha":1089,"x_min":0,"x_max":0,"o":"m 207 0 l 26 0 l 356 833 b 553 954 390 921 454 954 b 747 833 650 954 714 921 l 1064 0 l 882 0 l 597 754 b 551 786 589 776 574 786 b 504 754 529 786 514 776 m 535 1283 l 690 985 l 543 985 l 371 1283 "},"Á":{"ha":1089,"x_min":0,"x_max":0,"o":"m 207 0 l 26 0 l 356 833 b 553 954 390 921 454 954 b 747 833 650 954 714 921 l 1064 0 l 882 0 l 597 754 b 551 786 589 776 574 786 b 504 754 529 786 514 776 m 722 1283 l 549 985 l 403 985 l 558 1283 "},"Â":{"ha":1089,"x_min":0,"x_max":0,"o":"m 207 0 l 26 0 l 356 833 b 553 954 390 921 454 954 b 747 833 650 954 714 921 l 1064 0 l 882 0 l 597 754 b 551 786 589 776 574 786 b 504 754 529 786 514 776 m 396 1213 b 549 1283 422 1264 475 1283 b 699 1213 621 1283 672 1263 l 825 985 l 668 985 l 575 1158 b 547 1171 571 1167 561 1171 b 519 1158 535 1171 525 1168 l 428 985 l 271 985 "},"Ã":{"ha":1089,"x_min":0,"x_max":0,"o":"m 207 0 l 26 0 l 356 833 b 553 954 390 921 454 954 b 747 833 650 954 714 921 l 1064 0 l 882 0 l 597 754 b 551 786 589 776 574 786 b 504 754 529 786 514 776 m 864 1200 l 864 1076 l 226 1076 l 226 1200 "},"Ä":{"ha":1089,"x_min":0,"x_max":0,"o":"m 207 0 l 26 0 l 356 833 b 553 954 390 921 454 954 b 747 833 650 954 714 921 l 1064 0 l 882 0 l 597 754 b 551 786 589 776 574 786 b 504 754 529 786 514 776 m 456 1214 l 456 1043 l 307 1043 l 307 1214 m 789 1214 l 789 1043 l 640 1043 l 640 1214 "},"Å":{"ha":1089,"x_min":0,"x_max":0,"o":"m 207 0 l 26 0 l 356 833 b 553 954 390 921 454 954 b 747 833 650 954 714 921 l 1064 0 l 882 0 l 597 754 b 551 786 589 776 574 786 b 504 754 529 786 514 776 m 593 1283 b 732 1124 678 1283 732 1232 b 593 964 732 1017 678 964 l 497 964 b 358 1124 411 964 358 1017 b 497 1283 358 1232 411 1283 m 506 1213 b 435 1124 456 1213 435 1186 b 506 1036 435 1063 456 1036 l 583 1036 b 654 1124 632 1036 654 1063 b 583 1213 654 1186 632 1213 "},"Æ":{"ha":1403,"x_min":0,"x_max":0,"o":"m 203 0 l 26 0 l 325 781 b 554 954 363 889 424 954 b 654 938 593 954 626 949 l 1301 938 l 1301 774 l 768 774 b 769 750 768 765 769 758 l 769 544 l 1294 544 l 1294 396 l 769 396 l 769 319 b 961 164 769 229 814 164 l 1303 164 l 1303 0 l 951 0 b 606 318 703 0 606 131 l 606 742 b 550 796 606 775 585 796 b 490 756 518 796 500 779 "},"Ç":{"ha":947,"x_min":0,"x_max":0,"o":"m 865 938 l 865 774 l 503 774 b 243 468 322 774 243 683 b 503 164 243 254 321 164 l 865 164 l 865 0 l 503 0 b 79 468 229 0 79 154 b 503 938 79 783 231 938 m 628 -33 l 628 -182 b 458 -367 628 -306 574 -367 l 413 -367 l 413 -256 l 429 -256 b 481 -197 465 -256 481 -237 l 481 -33 "},"È":{"ha":963,"x_min":0,"x_max":0,"o":"m 863 938 l 863 774 l 393 774 b 251 656 294 774 251 728 b 394 544 251 579 300 544 l 856 544 l 856 396 l 390 396 b 247 282 296 396 247 358 b 389 164 247 208 293 164 l 864 164 l 864 0 l 389 0 b 76 256 167 0 76 110 b 211 471 76 363 125 435 b 79 682 124 507 79 579 b 393 938 79 832 172 938 m 531 1283 l 686 985 l 539 985 l 367 1283 "},"É":{"ha":963,"x_min":0,"x_max":0,"o":"m 863 938 l 863 774 l 393 774 b 251 656 294 774 251 728 b 394 544 251 579 300 544 l 856 544 l 856 396 l 390 396 b 247 282 296 396 247 358 b 389 164 247 208 293 164 l 864 164 l 864 0 l 389 0 b 76 256 167 0 76 110 b 211 471 76 363 125 435 b 79 682 124 507 79 579 b 393 938 79 832 172 938 m 717 1283 l 543 985 l 397 985 l 553 1283 "},"Ê":{"ha":963,"x_min":0,"x_max":0,"o":"m 863 938 l 863 774 l 393 774 b 251 656 294 774 251 728 b 394 544 251 579 300 544 l 856 544 l 856 396 l 390 396 b 247 282 296 396 247 358 b 389 164 247 208 293 164 l 864 164 l 864 0 l 389 0 b 76 256 167 0 76 110 b 211 471 76 363 125 435 b 79 682 124 507 79 579 b 393 938 79 832 172 938 m 385 1213 b 538 1283 411 1264 464 1283 b 688 1213 610 1283 661 1263 l 814 985 l 657 985 l 564 1158 b 536 1171 560 1167 550 1171 b 508 1158 524 1171 514 1168 l 417 985 l 260 985 "},"Ë":{"ha":963,"x_min":0,"x_max":0,"o":"m 863 938 l 863 774 l 393 774 b 251 656 294 774 251 728 b 394 544 251 579 300 544 l 856 544 l 856 396 l 390 396 b 247 282 296 396 247 358 b 389 164 247 208 293 164 l 864 164 l 864 0 l 389 0 b 76 256 167 0 76 110 b 211 471 76 363 125 435 b 79 682 124 507 79 579 b 393 938 79 832 172 938 m 447 1214 l 447 1043 l 299 1043 l 299 1214 m 781 1214 l 781 1043 l 632 1043 l 632 1214 "},"Ì":{"ha":407,"x_min":0,"x_max":0,"o":"m 294 938 l 294 0 l 131 0 l 131 938 m 201 1283 l 357 985 l 210 985 l 38 1283 "},"Í":{"ha":410,"x_min":0,"x_max":0,"o":"m 278 938 l 278 0 l 114 0 l 114 938 m 372 1283 l 199 985 l 53 985 l 208 1283 "},"Î":{"ha":497,"x_min":0,"x_max":0,"o":"m 331 938 l 331 0 l 167 0 l 167 938 m 97 1213 b 250 1283 124 1264 176 1283 b 400 1213 322 1283 374 1263 l 526 985 l 369 985 l 276 1158 b 249 1171 272 1167 263 1171 b 221 1158 236 1171 226 1168 l 129 985 l -28 985 "},"Ï":{"ha":442,"x_min":0,"x_max":0,"o":"m 308 938 l 308 0 l 144 0 l 144 938 m 128 1214 l 128 1043 l -21 1043 l -21 1214 m 461 1214 l 461 1043 l 313 1043 l 313 1214 "},"Ð":{"ha":1024,"x_min":0,"x_max":0,"o":"m 522 938 b 944 468 796 938 944 785 b 522 0 944 153 797 0 l 192 0 b 114 76 139 0 114 25 l 114 396 l 15 396 l 15 544 l 114 544 l 114 861 b 192 938 114 913 139 938 m 278 544 l 528 544 l 528 396 l 278 396 l 278 181 b 296 164 278 168 283 164 l 522 164 b 781 469 704 164 781 254 b 522 774 781 683 704 774 l 296 774 b 278 757 283 774 278 769 "},"Ñ":{"ha":1221,"x_min":0,"x_max":0,"o":"m 276 0 l 113 0 l 113 750 b 328 954 113 872 182 954 b 556 781 458 954 517 888 l 829 182 b 889 143 840 160 858 143 b 944 196 924 143 944 164 l 944 938 l 1110 938 l 1110 189 b 894 -17 1110 65 1039 -17 b 665 157 764 -17 704 50 l 392 756 b 333 796 379 783 363 796 b 276 742 296 796 276 775 m 929 1200 l 929 1076 l 292 1076 l 292 1200 "},"Ò":{"ha":1133,"x_min":0,"x_max":0,"o":"m 631 938 b 1054 467 903 938 1054 782 b 631 0 1054 153 904 0 l 503 0 b 79 467 229 0 79 153 b 503 938 79 782 231 938 m 503 774 b 243 467 322 774 243 682 b 503 164 243 253 321 164 l 631 164 b 889 468 811 164 889 253 b 631 774 889 682 811 774 m 553 1283 l 708 985 l 561 985 l 389 1283 "},"Ó":{"ha":1133,"x_min":0,"x_max":0,"o":"m 631 938 b 1054 467 903 938 1054 782 b 631 0 1054 153 904 0 l 503 0 b 79 467 229 0 79 153 b 503 938 79 782 231 938 m 503 774 b 243 467 322 774 243 682 b 503 164 243 253 321 164 l 631 164 b 889 468 811 164 889 253 b 631 774 889 682 811 774 m 743 1283 l 569 985 l 424 985 l 579 1283 "},"Ô":{"ha":1133,"x_min":0,"x_max":0,"o":"m 631 938 b 1054 467 903 938 1054 782 b 631 0 1054 153 904 0 l 503 0 b 79 467 229 0 79 153 b 503 938 79 782 231 938 m 503 774 b 243 467 322 774 243 682 b 503 164 243 253 321 164 l 631 164 b 889 468 811 164 889 253 b 631 774 889 682 811 774 m 414 1213 b 567 1283 440 1264 493 1283 b 717 1213 639 1283 690 1263 l 843 985 l 686 985 l 593 1158 b 565 1171 589 1167 579 1171 b 538 1158 553 1171 543 1168 l 446 985 l 289 985 "},"Õ":{"ha":1133,"x_min":0,"x_max":0,"o":"m 631 938 b 1054 467 903 938 1054 782 b 631 0 1054 153 904 0 l 503 0 b 79 467 229 0 79 153 b 503 938 79 782 231 938 m 503 774 b 243 467 322 774 243 682 b 503 164 243 253 321 164 l 631 164 b 889 468 811 164 889 253 b 631 774 889 682 811 774 m 885 1200 l 885 1076 l 247 1076 l 247 1200 "},"Ö":{"ha":1133,"x_min":0,"x_max":0,"o":"m 631 938 b 1054 467 903 938 1054 782 b 631 0 1054 153 904 0 l 503 0 b 79 467 229 0 79 153 b 503 938 79 782 231 938 m 503 774 b 243 467 322 774 243 682 b 503 164 243 253 321 164 l 631 164 b 889 468 811 164 889 253 b 631 774 889 682 811 774 m 474 1214 l 474 1043 l 325 1043 l 325 1214 m 807 1214 l 807 1043 l 658 1043 l 658 1214 "},"×":{"ha":860,"x_min":0,"x_max":0,"o":"m 429 540 l 682 790 l 753 719 l 500 467 l 751 217 l 681 144 l 429 396 l 178 146 l 106 217 l 357 467 l 106 719 l 178 790 "},"Ø":{"ha":1133,"x_min":0,"x_max":0,"o":"m 631 938 b 775 919 683 938 732 931 l 843 1033 l 961 1033 l 869 881 b 1054 467 990 810 1054 672 b 631 0 1054 153 904 0 l 503 0 b 358 17 450 0 401 6 l 292 -96 l 172 -96 l 263 56 b 79 467 142 126 79 263 b 503 938 79 782 231 938 m 503 774 b 243 467 322 774 243 682 b 347 199 243 328 275 242 l 686 769 b 631 774 669 772 650 774 m 889 468 b 785 738 889 606 856 693 l 447 167 b 503 164 464 165 482 164 l 631 164 b 889 468 811 164 889 253 "},"Ù":{"ha":1017,"x_min":0,"x_max":0,"o":"m 274 938 l 274 311 b 429 164 274 218 321 164 l 596 164 b 750 311 701 164 750 218 l 750 938 l 911 938 l 911 299 b 607 0 911 101 807 0 l 410 0 b 107 299 210 0 107 101 l 107 938 m 496 1283 l 651 985 l 504 985 l 332 1283 "},"Ú":{"ha":1017,"x_min":0,"x_max":0,"o":"m 274 938 l 274 311 b 429 164 274 218 321 164 l 596 164 b 750 311 701 164 750 218 l 750 938 l 911 938 l 911 299 b 607 0 911 101 807 0 l 410 0 b 107 299 210 0 107 101 l 107 938 m 685 1283 l 511 985 l 365 985 l 521 1283 "},"Û":{"ha":1017,"x_min":0,"x_max":0,"o":"m 274 938 l 274 311 b 429 164 274 218 321 164 l 596 164 b 750 311 701 164 750 218 l 750 938 l 911 938 l 911 299 b 607 0 911 101 807 0 l 410 0 b 107 299 210 0 107 101 l 107 938 m 356 1213 b 508 1283 382 1264 435 1283 b 658 1213 581 1283 632 1263 l 785 985 l 628 985 l 535 1158 b 507 1171 531 1167 521 1171 b 479 1158 494 1171 485 1168 l 388 985 l 231 985 "},"Ü":{"ha":1017,"x_min":0,"x_max":0,"o":"m 274 938 l 274 311 b 429 164 274 218 321 164 l 596 164 b 750 311 701 164 750 218 l 750 938 l 911 938 l 911 299 b 607 0 911 101 807 0 l 410 0 b 107 299 210 0 107 101 l 107 938 m 417 1214 l 417 1043 l 268 1043 l 268 1214 m 750 1214 l 750 1043 l 601 1043 l 601 1214 "},"Ý":{"ha":957,"x_min":0,"x_max":0,"o":"m 217 938 l 479 536 l 744 938 l 939 938 l 561 404 l 561 0 l 396 0 l 396 404 l 18 938 m 654 1283 l 481 985 l 335 985 l 490 1283 "},"Þ":{"ha":976,"x_min":0,"x_max":0,"o":"m 276 938 l 276 835 b 333 781 276 799 293 781 l 581 781 b 893 474 808 781 893 622 b 581 168 893 325 808 168 l 333 168 b 276 101 293 168 276 147 l 276 0 l 113 0 l 113 132 b 293 325 113 269 164 325 l 586 325 b 728 474 688 325 728 396 b 586 622 728 551 688 622 l 293 622 b 113 803 164 622 113 676 l 113 938 "},"ß":{"ha":1186,"x_min":0,"x_max":0,"o":"m 488 1051 b 701 822 642 1051 701 979 l 701 699 b 763 631 701 651 722 631 l 818 631 b 1115 315 1019 631 1115 528 b 818 0 1115 100 1017 0 l 494 0 l 494 143 l 800 143 b 967 315 919 143 967 193 b 800 489 967 438 921 489 l 719 489 b 553 675 600 489 553 549 l 553 807 b 444 917 553 883 519 917 l 374 917 b 253 783 289 917 253 883 l 253 0 l 106 0 l 106 775 b 342 1051 106 985 178 1051 "},"à":{"ha":933,"x_min":0,"x_max":0,"o":"m 575 733 b 831 492 758 733 831 631 l 831 147 b 679 0 831 42 803 0 l 336 0 b 90 224 163 0 90 85 b 338 435 90 357 157 435 l 686 435 l 686 490 b 574 592 686 547 654 592 l 135 592 l 135 733 m 646 143 b 686 181 675 143 686 154 l 686 318 l 340 318 b 235 232 263 318 235 286 b 338 143 235 178 264 143 l 646 143 m 461 1079 l 617 781 l 469 781 l 297 1079 "},"á":{"ha":933,"x_min":0,"x_max":0,"o":"m 575 733 b 831 492 758 733 831 631 l 831 147 b 679 0 831 42 803 0 l 336 0 b 90 224 163 0 90 85 b 338 435 90 357 157 435 l 686 435 l 686 490 b 574 592 686 547 654 592 l 135 592 l 135 733 m 646 143 b 686 181 675 143 686 154 l 686 318 l 340 318 b 235 232 263 318 235 286 b 338 143 235 178 264 143 l 646 143 m 642 1079 l 468 781 l 322 781 l 478 1079 "},"â":{"ha":933,"x_min":0,"x_max":0,"o":"m 575 733 b 831 492 758 733 831 631 l 831 147 b 679 0 831 42 803 0 l 336 0 b 90 224 163 0 90 85 b 338 435 90 357 157 435 l 686 435 l 686 490 b 574 592 686 547 654 592 l 135 592 l 135 733 m 646 143 b 686 181 675 143 686 154 l 686 318 l 340 318 b 235 232 263 318 235 286 b 338 143 235 178 264 143 l 646 143 m 319 1008 b 472 1079 346 1060 399 1079 b 622 1008 544 1079 596 1058 l 749 781 l 592 781 l 499 954 b 471 967 494 963 485 967 b 443 954 458 967 449 964 l 351 781 l 194 781 "},"ã":{"ha":933,"x_min":0,"x_max":0,"o":"m 575 733 b 831 492 758 733 831 631 l 831 147 b 679 0 831 42 803 0 l 336 0 b 90 224 163 0 90 85 b 338 435 90 357 157 435 l 686 435 l 686 490 b 574 592 686 547 654 592 l 135 592 l 135 733 m 646 143 b 686 181 675 143 686 154 l 686 318 l 340 318 b 235 232 263 318 235 286 b 338 143 235 178 264 143 l 646 143 m 785 996 l 785 872 l 147 872 l 147 996 "},"ä":{"ha":933,"x_min":0,"x_max":0,"o":"m 575 733 b 831 492 758 733 831 631 l 831 147 b 679 0 831 42 803 0 l 336 0 b 90 224 163 0 90 85 b 338 435 90 357 157 435 l 686 435 l 686 490 b 574 592 686 547 654 592 l 135 592 l 135 733 m 646 143 b 686 181 675 143 686 154 l 686 318 l 340 318 b 235 232 263 318 235 286 b 338 143 235 178 264 143 l 646 143 m 374 1010 l 374 839 l 225 839 l 225 1010 m 707 1010 l 707 839 l 558 839 l 558 1010 "},"å":{"ha":933,"x_min":0,"x_max":0,"o":"m 575 733 b 831 492 758 733 831 631 l 831 147 b 679 0 831 42 803 0 l 336 0 b 90 224 163 0 90 85 b 338 435 90 357 157 435 l 686 435 l 686 490 b 574 592 686 547 654 592 l 135 592 l 135 733 m 646 143 b 686 181 675 143 686 154 l 686 318 l 340 318 b 235 232 263 318 235 286 b 338 143 235 178 264 143 l 646 143 m 514 1119 b 653 960 599 1119 653 1068 b 514 800 653 853 599 800 l 418 800 b 279 960 332 800 279 853 b 418 1119 279 1068 332 1119 m 426 1049 b 356 960 376 1049 356 1022 b 426 872 356 899 376 872 l 504 872 b 575 960 553 872 575 899 b 504 1049 575 1022 553 1049 "},"æ":{"ha":1504,"x_min":0,"x_max":0,"o":"m 1183 733 b 1431 508 1357 733 1431 650 b 1182 297 1431 374 1363 297 l 833 297 l 833 244 b 946 143 833 186 865 143 l 1394 143 l 1394 0 l 946 0 b 799 31 885 0 836 11 b 679 0 775 10 738 0 l 336 0 b 90 224 163 0 90 85 b 338 435 90 357 157 435 l 686 435 l 686 490 b 574 592 686 547 654 592 l 135 592 l 135 733 l 575 733 b 760 675 658 733 719 711 b 946 733 801 711 861 733 m 833 413 l 1178 413 b 1286 500 1257 413 1286 446 b 1182 592 1286 556 1254 592 l 946 592 b 833 490 865 592 833 547 m 646 143 b 686 181 675 143 686 154 l 686 318 l 340 318 b 235 232 263 318 235 286 b 338 143 235 178 264 143 l 646 143 "},"ç":{"ha":836,"x_min":0,"x_max":0,"o":"m 767 733 l 767 592 l 403 592 b 219 367 275 592 219 525 b 403 143 219 208 275 143 l 767 143 l 767 0 l 389 0 b 71 367 193 0 71 119 b 389 733 71 614 193 733 m 564 -33 l 564 -182 b 394 -367 564 -306 510 -367 l 349 -367 l 349 -256 l 365 -256 b 417 -197 401 -256 417 -237 l 417 -33 "},"è":{"ha":906,"x_min":0,"x_max":0,"o":"m 583 733 b 831 508 757 733 831 650 b 582 297 831 374 763 297 l 233 297 l 233 244 b 346 143 233 186 265 143 l 794 143 l 794 0 l 346 0 b 90 242 163 0 90 103 l 90 492 b 346 733 90 631 163 733 m 233 413 l 578 413 b 686 500 657 413 686 446 b 582 592 686 556 654 592 l 346 592 b 233 490 265 592 233 547 m 451 1079 l 607 781 l 460 781 l 288 1079 "},"é":{"ha":906,"x_min":0,"x_max":0,"o":"m 583 733 b 831 508 757 733 831 650 b 582 297 831 374 763 297 l 233 297 l 233 244 b 346 143 233 186 265 143 l 794 143 l 794 0 l 346 0 b 90 242 163 0 90 103 l 90 492 b 346 733 90 631 163 733 m 233 413 l 578 413 b 686 500 657 413 686 446 b 582 592 686 556 654 592 l 346 592 b 233 490 265 592 233 547 m 638 1079 l 464 781 l 318 781 l 474 1079 "},"ê":{"ha":906,"x_min":0,"x_max":0,"o":"m 583 733 b 831 508 757 733 831 650 b 582 297 831 374 763 297 l 233 297 l 233 244 b 346 143 233 186 265 143 l 794 143 l 794 0 l 346 0 b 90 242 163 0 90 103 l 90 492 b 346 733 90 631 163 733 m 233 413 l 578 413 b 686 500 657 413 686 446 b 582 592 686 556 654 592 l 346 592 b 233 490 265 592 233 547 m 301 1008 b 454 1079 328 1060 381 1079 b 604 1008 526 1079 578 1058 l 731 781 l 574 781 l 481 954 b 453 967 476 963 467 967 b 425 954 440 967 431 964 l 333 781 l 176 781 "},"ë":{"ha":906,"x_min":0,"x_max":0,"o":"m 583 733 b 831 508 757 733 831 650 b 582 297 831 374 763 297 l 233 297 l 233 244 b 346 143 233 186 265 143 l 794 143 l 794 0 l 346 0 b 90 242 163 0 90 103 l 90 492 b 346 733 90 631 163 733 m 233 413 l 578 413 b 686 500 657 413 686 446 b 582 592 686 556 654 592 l 346 592 b 233 490 265 592 233 547 m 365 1010 l 365 839 l 217 839 l 217 1010 m 699 1010 l 699 839 l 550 839 l 550 1010 "},"ì":{"ha":386,"x_min":0,"x_max":0,"o":"m 194 1079 l 350 781 l 203 781 l 31 1079 m 281 733 l 281 0 l 133 0 l 133 733 "},"í":{"ha":385,"x_min":0,"x_max":0,"o":"m 357 1079 l 183 781 l 38 781 l 193 1079 m 253 733 l 253 0 l 106 0 l 106 733 "},"î":{"ha":506,"x_min":0,"x_max":0,"o":"m 326 733 l 326 0 l 179 0 l 179 733 m 101 1008 b 254 1079 128 1060 181 1079 b 404 1008 326 1079 378 1058 l 531 781 l 374 781 l 281 954 b 253 967 276 963 267 967 b 225 954 240 967 231 964 l 133 781 l -24 781 "},"ï":{"ha":481,"x_min":0,"x_max":0,"o":"m 147 1010 l 147 839 l -1 839 l -1 1010 m 481 1010 l 481 839 l 332 839 l 332 1010 m 313 733 l 313 0 l 165 0 l 165 733 "},"ð":{"ha":965,"x_min":0,"x_max":0,"o":"m 426 1051 l 467 1135 l 549 1135 l 508 1051 l 583 1051 b 861 726 789 1051 861 935 l 861 315 b 592 1 861 103 767 1 l 389 1 b 71 339 193 1 71 117 b 389 681 71 561 193 681 l 713 681 l 713 726 b 567 910 713 833 676 910 l 439 910 l 385 796 l 303 796 l 357 910 l 256 910 l 256 1051 m 549 143 b 713 314 667 143 713 193 l 713 549 l 403 549 b 219 344 275 549 219 482 b 403 143 219 204 275 143 l 549 143 "},"ñ":{"ha":982,"x_min":0,"x_max":0,"o":"m 511 733 b 881 413 760 733 881 615 l 881 0 l 732 0 l 732 413 b 511 592 732 528 665 592 l 271 592 b 253 571 258 592 253 585 l 253 0 l 106 0 l 106 619 b 208 733 106 706 135 733 m 810 996 l 810 872 l 172 872 l 172 996 "},"ò":{"ha":932,"x_min":0,"x_max":0,"o":"m 543 733 b 861 367 738 733 861 614 b 543 0 861 119 738 0 l 389 0 b 71 367 193 0 71 119 b 389 733 71 614 193 733 m 403 592 b 219 367 275 592 219 525 b 403 143 219 208 275 143 l 529 143 b 713 367 656 143 713 208 b 529 592 713 525 656 592 m 453 1079 l 608 781 l 461 781 l 289 1079 "},"ó":{"ha":932,"x_min":0,"x_max":0,"o":"m 543 733 b 861 367 738 733 861 614 b 543 0 861 119 738 0 l 389 0 b 71 367 193 0 71 119 b 389 733 71 614 193 733 m 403 592 b 219 367 275 592 219 525 b 403 143 219 208 275 143 l 529 143 b 713 367 656 143 713 208 b 529 592 713 525 656 592 m 642 1079 l 468 781 l 322 781 l 478 1079 "},"ô":{"ha":932,"x_min":0,"x_max":0,"o":"m 543 733 b 861 367 738 733 861 614 b 543 0 861 119 738 0 l 389 0 b 71 367 193 0 71 119 b 389 733 71 614 193 733 m 403 592 b 219 367 275 592 219 525 b 403 143 219 208 275 143 l 529 143 b 713 367 656 143 713 208 b 529 592 713 525 656 592 m 314 1008 b 467 1079 340 1060 393 1079 b 617 1008 539 1079 590 1058 l 743 781 l 586 781 l 493 954 b 465 967 489 963 479 967 b 438 954 453 967 443 964 l 346 781 l 189 781 "},"õ":{"ha":932,"x_min":0,"x_max":0,"o":"m 543 733 b 861 367 738 733 861 614 b 543 0 861 119 738 0 l 389 0 b 71 367 193 0 71 119 b 389 733 71 614 193 733 m 403 592 b 219 367 275 592 219 525 b 403 143 219 208 275 143 l 529 143 b 713 367 656 143 713 208 b 529 592 713 525 656 592 m 785 996 l 785 872 l 147 872 l 147 996 "},"ö":{"ha":932,"x_min":0,"x_max":0,"o":"m 543 733 b 861 367 738 733 861 614 b 543 0 861 119 738 0 l 389 0 b 71 367 193 0 71 119 b 389 733 71 614 193 733 m 403 592 b 219 367 275 592 219 525 b 403 143 219 208 275 143 l 529 143 b 713 367 656 143 713 208 b 529 592 713 525 656 592 m 374 1010 l 374 839 l 225 839 l 225 1010 m 707 1010 l 707 839 l 558 839 l 558 1010 "},"÷":{"ha":860,"x_min":0,"x_max":0,"o":"m 803 518 l 803 417 l 56 417 l 56 518 m 508 222 l 508 33 l 350 33 l 350 222 m 508 906 l 508 717 l 350 717 l 350 906 "},"ø":{"ha":932,"x_min":0,"x_max":0,"o":"m 543 733 b 631 724 574 733 603 729 l 715 853 l 835 853 l 725 685 b 861 367 811 628 861 522 b 543 0 861 119 738 0 l 389 0 b 288 13 353 0 318 4 l 217 -96 l 97 -96 l 196 56 b 71 367 115 113 71 215 b 389 733 71 614 193 733 m 713 367 b 644 561 713 464 690 526 l 374 144 b 403 143 382 143 392 143 l 529 143 b 713 367 656 143 713 208 m 403 592 b 219 367 275 592 219 525 b 278 181 219 275 238 215 l 544 590 b 529 592 540 590 535 592 "},"ù":{"ha":975,"x_min":0,"x_max":0,"o":"m 250 733 l 250 294 b 431 143 250 208 314 143 l 550 143 b 729 294 667 143 729 208 l 729 733 l 874 733 l 874 289 b 556 0 874 119 765 0 l 419 0 b 101 289 210 0 101 119 l 101 733 m 475 1079 l 631 781 l 483 781 l 311 1079 "},"ú":{"ha":975,"x_min":0,"x_max":0,"o":"m 250 733 l 250 294 b 431 143 250 208 314 143 l 550 143 b 729 294 667 143 729 208 l 729 733 l 874 733 l 874 289 b 556 0 874 119 765 0 l 419 0 b 101 289 210 0 101 119 l 101 733 m 664 1079 l 490 781 l 344 781 l 500 1079 "},"û":{"ha":975,"x_min":0,"x_max":0,"o":"m 250 733 l 250 294 b 431 143 250 208 314 143 l 550 143 b 729 294 667 143 729 208 l 729 733 l 874 733 l 874 289 b 556 0 874 119 765 0 l 419 0 b 101 289 210 0 101 119 l 101 733 m 336 1008 b 489 1079 363 1060 415 1079 b 639 1008 561 1079 613 1058 l 765 781 l 608 781 l 515 954 b 488 967 511 963 501 967 b 460 954 475 967 465 964 l 368 781 l 211 781 "},"ü":{"ha":975,"x_min":0,"x_max":0,"o":"m 250 733 l 250 294 b 431 143 250 208 314 143 l 550 143 b 729 294 667 143 729 208 l 729 733 l 874 733 l 874 289 b 556 0 874 119 765 0 l 419 0 b 101 289 210 0 101 119 l 101 733 m 394 1010 l 394 839 l 246 839 l 246 1010 m 728 1010 l 728 839 l 579 839 l 579 1010 "},"ý":{"ha":899,"x_min":0,"x_max":0,"o":"m 872 733 l 431 -294 l 272 -294 l 410 26 b 272 117 326 26 297 53 l 26 733 l 182 733 l 403 188 b 447 157 413 161 419 157 l 467 157 l 715 733 m 622 1079 l 449 781 l 303 781 l 458 1079 "},"þ":{"ha":965,"x_min":0,"x_max":0,"o":"m 254 1051 l 254 775 b 299 733 254 744 268 733 l 578 733 b 894 365 772 733 894 614 b 578 0 894 119 772 0 l 299 0 b 254 -40 268 0 254 -11 l 254 -294 l 107 -294 l 107 25 b 238 143 107 110 151 143 l 563 143 b 746 365 690 143 746 208 b 563 592 746 525 690 592 l 238 592 b 107 710 151 592 107 625 l 107 1051 "},"ÿ":{"ha":899,"x_min":0,"x_max":0,"o":"m 872 733 l 431 -294 l 272 -294 l 410 26 b 272 117 326 26 297 53 l 26 733 l 182 733 l 403 188 b 447 157 413 161 419 157 l 467 157 l 715 733 m 351 1010 l 351 839 l 203 839 l 203 1010 m 685 1010 l 685 839 l 536 839 l 536 1010 "},"Ā":{"ha":1089,"x_min":0,"x_max":0,"o":"m 207 0 l 26 0 l 356 833 b 553 954 390 921 454 954 b 747 833 650 954 714 921 l 1064 0 l 882 0 l 597 754 b 551 786 589 776 574 786 b 504 754 529 786 514 776 m 864 1200 l 864 1076 l 226 1076 l 226 1200 "},"ā":{"ha":933,"x_min":0,"x_max":0,"o":"m 575 733 b 831 492 758 733 831 631 l 831 147 b 679 0 831 42 803 0 l 336 0 b 90 224 163 0 90 85 b 338 435 90 357 157 435 l 686 435 l 686 490 b 574 592 686 547 654 592 l 135 592 l 135 733 m 646 143 b 686 181 675 143 686 154 l 686 318 l 340 318 b 235 232 263 318 235 286 b 338 143 235 178 264 143 l 646 143 m 785 996 l 785 872 l 147 872 l 147 996 "},"Ă":{"ha":1089,"x_min":0,"x_max":0,"o":"m 207 0 l 26 0 l 356 833 b 553 954 390 921 454 954 b 747 833 650 954 714 921 l 1064 0 l 882 0 l 597 754 b 551 786 589 776 574 786 b 504 754 529 786 514 776 m 388 1283 l 388 1206 b 547 1086 388 1118 419 1086 b 704 1206 674 1086 704 1118 l 704 1283 l 829 1283 l 829 1204 b 547 985 829 1043 767 985 b 264 1204 325 985 264 1043 l 264 1283 "},"ă":{"ha":933,"x_min":0,"x_max":0,"o":"m 575 733 b 831 492 758 733 831 631 l 831 147 b 679 0 831 42 803 0 l 336 0 b 90 224 163 0 90 85 b 338 435 90 357 157 435 l 686 435 l 686 490 b 574 592 686 547 654 592 l 135 592 l 135 733 m 646 143 b 686 181 675 143 686 154 l 686 318 l 340 318 b 235 232 263 318 235 286 b 338 143 235 178 264 143 l 646 143 m 317 1079 l 317 1001 b 476 882 317 914 349 882 b 633 1001 603 882 633 914 l 633 1079 l 758 1079 l 758 1000 b 476 781 758 839 696 781 b 193 1000 254 781 193 839 l 193 1079 "},"Ą":{"ha":1089,"x_min":0,"x_max":0,"o":"m 894 -31 l 597 754 b 551 786 589 776 574 786 b 504 754 529 786 514 776 l 207 0 l 26 0 l 356 833 b 553 954 390 921 454 954 b 747 833 650 954 714 921 l 1064 0 l 931 -57 b 864 -144 890 -75 864 -100 b 960 -228 864 -194 899 -228 l 1090 -228 l 1090 -367 l 914 -367 b 731 -204 792 -367 731 -297 b 853 -47 731 -122 776 -78 "},"ą":{"ha":933,"x_min":0,"x_max":0,"o":"m 581 0 l 336 0 b 90 224 163 0 90 85 b 338 435 90 357 157 435 l 686 435 l 686 490 b 574 592 686 547 654 592 l 135 592 l 135 733 l 575 733 b 831 492 758 733 831 631 l 831 147 b 679 0 831 42 803 0 l 667 0 l 533 -57 b 467 -144 493 -75 467 -100 b 563 -228 467 -194 501 -228 l 693 -228 l 693 -367 l 517 -367 b 333 -204 394 -367 333 -297 b 456 -47 333 -122 379 -78 m 646 143 b 686 181 675 143 686 154 l 686 318 l 340 318 b 235 232 263 318 235 286 b 338 143 235 178 264 143 l 646 143 "},"Ć":{"ha":947,"x_min":0,"x_max":0,"o":"m 865 938 l 865 774 l 503 774 b 243 468 322 774 243 683 b 503 164 243 254 321 164 l 865 164 l 865 0 l 503 0 b 79 468 229 0 79 154 b 503 938 79 783 231 938 m 733 1283 l 560 985 l 414 985 l 569 1283 "},"ć":{"ha":836,"x_min":0,"x_max":0,"o":"m 767 733 l 767 592 l 403 592 b 219 367 275 592 219 525 b 403 143 219 208 275 143 l 767 143 l 767 0 l 389 0 b 71 367 193 0 71 119 b 389 733 71 614 193 733 m 653 1079 l 479 781 l 333 781 l 489 1079 "},"Ċ":{"ha":947,"x_min":0,"x_max":0,"o":"m 865 938 l 865 774 l 503 774 b 243 468 322 774 243 683 b 503 164 243 254 321 164 l 865 164 l 865 0 l 503 0 b 79 468 229 0 79 154 b 503 938 79 783 231 938 m 629 1214 l 629 1043 l 481 1043 l 481 1214 "},"ċ":{"ha":836,"x_min":0,"x_max":0,"o":"m 767 733 l 767 592 l 403 592 b 219 367 275 592 219 525 b 403 143 219 208 275 143 l 767 143 l 767 0 l 389 0 b 71 367 193 0 71 119 b 389 733 71 614 193 733 m 551 1010 l 551 839 l 403 839 l 403 1010 "},"Č":{"ha":947,"x_min":0,"x_max":0,"o":"m 865 938 l 865 774 l 503 774 b 243 468 322 774 243 683 b 503 164 243 254 321 164 l 865 164 l 865 0 l 503 0 b 79 468 229 0 79 154 b 503 938 79 783 231 938 m 431 1283 l 522 1111 b 551 1099 528 1103 538 1099 b 578 1111 563 1099 574 1101 l 671 1283 l 828 1283 l 701 1057 b 550 985 675 1006 622 985 b 399 1057 478 985 425 1007 l 274 1283 "},"č":{"ha":836,"x_min":0,"x_max":0,"o":"m 767 733 l 767 592 l 403 592 b 219 367 275 592 219 525 b 403 143 219 208 275 143 l 767 143 l 767 0 l 389 0 b 71 367 193 0 71 119 b 389 733 71 614 193 733 m 351 1079 l 443 907 b 472 894 449 899 458 894 b 499 907 483 894 494 897 l 592 1079 l 749 1079 l 622 853 b 471 781 596 801 543 781 b 319 853 399 781 346 803 l 194 1079 "},"Ď":{"ha":1024,"x_min":0,"x_max":0,"o":"m 522 938 b 944 468 796 938 944 785 b 522 0 944 153 797 0 l 192 0 b 114 76 139 0 114 25 l 114 861 b 192 938 114 913 139 938 m 278 181 b 296 164 278 168 283 164 l 522 164 b 781 469 704 164 781 254 b 522 774 781 683 704 774 l 296 774 b 278 757 283 774 278 769 m 340 1283 l 432 1111 b 461 1099 438 1103 447 1099 b 488 1111 472 1099 483 1101 l 581 1283 l 738 1283 l 611 1057 b 460 985 585 1006 532 985 b 308 1057 388 985 335 1007 l 183 1283 "},"ď":{"ha":1103,"x_min":0,"x_max":0,"o":"m 861 1051 l 861 314 b 592 0 861 103 767 0 l 389 0 b 71 367 193 0 71 119 b 389 733 71 614 193 733 l 713 733 l 713 1051 m 549 143 b 713 321 667 143 713 196 l 713 592 l 403 592 b 219 367 276 592 219 525 b 403 143 219 208 276 143 l 549 143 m 1139 1050 l 1139 901 b 969 717 1139 778 1085 717 l 924 717 l 924 828 l 940 828 b 992 886 976 828 992 846 l 992 1050 "},"Đ":{"ha":1024,"x_min":0,"x_max":0,"o":"m 522 938 b 944 468 796 938 944 785 b 522 0 944 153 797 0 l 192 0 b 114 76 139 0 114 25 l 114 396 l 15 396 l 15 544 l 114 544 l 114 861 b 192 938 114 913 139 938 m 278 544 l 528 544 l 528 396 l 278 396 l 278 181 b 296 164 278 168 283 164 l 522 164 b 781 469 704 164 781 254 b 522 774 781 683 704 774 l 296 774 b 278 757 283 774 278 769 "},"đ":{"ha":965,"x_min":0,"x_max":0,"o":"m 713 996 l 713 1051 l 861 1051 l 861 314 b 592 0 861 103 767 0 l 389 0 b 71 367 193 0 71 119 b 389 733 71 614 193 733 l 713 733 l 713 872 l 224 872 l 224 996 m 549 143 b 713 321 667 143 713 196 l 713 592 l 403 592 b 219 367 276 592 219 525 b 403 143 219 208 276 143 l 549 143 "},"Ē":{"ha":963,"x_min":0,"x_max":0,"o":"m 863 938 l 863 774 l 393 774 b 251 656 294 774 251 728 b 394 544 251 579 300 544 l 856 544 l 856 396 l 390 396 b 247 282 296 396 247 358 b 389 164 247 208 293 164 l 864 164 l 864 0 l 389 0 b 76 256 167 0 76 110 b 211 471 76 363 125 435 b 79 682 124 507 79 579 b 393 938 79 832 172 938 m 854 1200 l 854 1076 l 217 1076 l 217 1200 "},"ē":{"ha":906,"x_min":0,"x_max":0,"o":"m 583 733 b 831 508 757 733 831 650 b 582 297 831 374 763 297 l 233 297 l 233 244 b 346 143 233 186 265 143 l 794 143 l 794 0 l 346 0 b 90 242 163 0 90 103 l 90 492 b 346 733 90 631 163 733 m 233 413 l 578 413 b 686 500 657 413 686 446 b 582 592 686 556 654 592 l 346 592 b 233 490 265 592 233 547 m 771 996 l 771 872 l 133 872 l 133 996 "},"Ė":{"ha":963,"x_min":0,"x_max":0,"o":"m 863 938 l 863 774 l 393 774 b 251 656 294 774 251 728 b 394 544 251 579 300 544 l 856 544 l 856 396 l 390 396 b 247 282 296 396 247 358 b 389 164 247 208 293 164 l 864 164 l 864 0 l 389 0 b 76 256 167 0 76 110 b 211 471 76 363 125 435 b 79 682 124 507 79 579 b 393 938 79 832 172 938 m 603 1214 l 603 1043 l 454 1043 l 454 1214 "},"ė":{"ha":906,"x_min":0,"x_max":0,"o":"m 583 733 b 831 508 757 733 831 650 b 582 297 831 374 763 297 l 233 297 l 233 244 b 346 143 233 186 265 143 l 794 143 l 794 0 l 346 0 b 90 242 163 0 90 103 l 90 492 b 346 733 90 631 163 733 m 233 413 l 578 413 b 686 500 657 413 686 446 b 582 592 686 556 654 592 l 346 592 b 233 490 265 592 233 547 m 536 1010 l 536 839 l 388 839 l 388 1010 "},"Ę":{"ha":963,"x_min":0,"x_max":0,"o":"m 778 0 l 389 0 b 76 256 167 0 76 110 b 211 471 76 363 125 435 b 79 682 124 507 79 579 b 393 938 79 832 172 938 l 863 938 l 863 774 l 393 774 b 251 656 294 774 251 728 b 394 544 251 579 300 544 l 856 544 l 856 396 l 390 396 b 247 282 296 396 247 358 b 389 164 247 208 293 164 l 864 164 l 864 0 l 731 -57 b 664 -144 690 -75 664 -100 b 760 -228 664 -194 699 -228 l 890 -228 l 890 -367 l 714 -367 b 531 -204 592 -367 531 -297 b 653 -47 531 -122 576 -78 "},"ę":{"ha":906,"x_min":0,"x_max":0,"o":"m 708 0 l 346 0 b 90 242 163 0 90 103 l 90 492 b 346 733 90 631 163 733 l 583 733 b 831 508 757 733 831 650 b 582 297 831 374 763 297 l 233 297 l 233 244 b 346 143 233 186 265 143 l 794 143 l 794 0 l 661 -57 b 594 -144 621 -75 594 -100 b 690 -228 594 -194 629 -228 l 821 -228 l 821 -367 l 644 -367 b 461 -204 522 -367 461 -297 b 583 -47 461 -122 507 -78 m 233 413 l 578 413 b 686 500 657 413 686 446 b 582 592 686 556 654 592 l 346 592 b 233 490 265 592 233 547 "},"Ě":{"ha":963,"x_min":0,"x_max":0,"o":"m 863 938 l 863 774 l 393 774 b 251 656 294 774 251 728 b 394 544 251 579 300 544 l 856 544 l 856 396 l 390 396 b 247 282 296 396 247 358 b 389 164 247 208 293 164 l 864 164 l 864 0 l 389 0 b 76 256 167 0 76 110 b 211 471 76 363 125 435 b 79 682 124 507 79 579 b 393 938 79 832 172 938 m 415 1283 l 507 1111 b 536 1099 513 1103 522 1099 b 563 1111 547 1099 558 1101 l 656 1283 l 813 1283 l 686 1057 b 535 985 660 1006 607 985 b 383 1057 463 985 410 1007 l 258 1283 "},"ě":{"ha":906,"x_min":0,"x_max":0,"o":"m 583 733 b 831 508 757 733 831 650 b 582 297 831 374 763 297 l 233 297 l 233 244 b 346 143 233 186 265 143 l 794 143 l 794 0 l 346 0 b 90 242 163 0 90 103 l 90 492 b 346 733 90 631 163 733 m 233 413 l 578 413 b 686 500 657 413 686 446 b 582 592 686 556 654 592 l 346 592 b 233 490 265 592 233 547 m 332 1079 l 424 907 b 453 894 429 899 439 894 b 479 907 464 894 475 897 l 572 1079 l 729 1079 l 603 853 b 451 781 576 801 524 781 b 300 853 379 781 326 803 l 175 1079 "},"Ğ":{"ha":1013,"x_min":0,"x_max":0,"o":"m 889 938 l 889 774 l 503 774 b 243 468 322 774 243 683 b 503 164 243 254 321 164 l 658 164 b 789 296 750 164 789 219 b 674 415 789 371 750 415 l 465 415 l 465 558 l 690 558 b 939 293 857 558 939 456 b 647 0 939 129 857 0 l 503 0 b 79 468 229 0 79 154 b 503 938 79 783 231 938 m 389 1283 l 389 1206 b 549 1086 389 1118 421 1086 b 706 1206 675 1086 706 1118 l 706 1283 l 831 1283 l 831 1204 b 549 985 831 1043 768 985 b 265 1204 326 985 265 1043 l 265 1283 "},"ğ":{"ha":961,"x_min":0,"x_max":0,"o":"m 592 733 b 861 419 767 733 861 631 l 861 -3 b 583 -293 861 -211 789 -293 l 147 -293 l 147 -151 l 567 -151 b 713 -3 676 -151 713 -108 l 713 31 l 389 31 b 71 383 193 31 71 146 b 389 733 71 619 193 733 m 219 378 b 403 164 219 228 276 164 l 713 164 l 713 421 b 549 592 713 540 667 592 l 403 592 b 219 378 276 592 219 528 m 326 1079 l 326 1001 b 486 882 326 914 358 882 b 643 1001 613 882 643 914 l 643 1079 l 768 1079 l 768 1000 b 486 781 768 839 706 781 b 203 1000 264 781 203 839 l 203 1079 "},"Ġ":{"ha":1013,"x_min":0,"x_max":0,"o":"m 889 938 l 889 774 l 503 774 b 243 468 322 774 243 683 b 503 164 243 254 321 164 l 658 164 b 789 296 750 164 789 219 b 674 415 789 371 750 415 l 465 415 l 465 558 l 690 558 b 939 293 857 558 939 456 b 647 0 939 129 857 0 l 503 0 b 79 468 229 0 79 154 b 503 938 79 783 231 938 m 626 1214 l 626 1043 l 478 1043 l 478 1214 "},"ġ":{"ha":961,"x_min":0,"x_max":0,"o":"m 592 733 b 861 419 767 733 861 631 l 861 -3 b 583 -293 861 -211 789 -293 l 147 -293 l 147 -151 l 567 -151 b 713 -3 676 -151 713 -108 l 713 31 l 389 31 b 71 383 193 31 71 146 b 389 733 71 619 193 733 m 219 378 b 403 164 219 228 276 164 l 713 164 l 713 421 b 549 592 713 540 667 592 l 403 592 b 219 378 276 592 219 528 m 557 1010 l 557 839 l 408 839 l 408 1010 "},"Ģ":{"ha":1013,"x_min":0,"x_max":0,"o":"m 889 938 l 889 774 l 503 774 b 243 468 322 774 243 683 b 503 164 243 254 321 164 l 658 164 b 789 296 750 164 789 219 b 674 415 789 371 750 415 l 465 415 l 465 558 l 690 558 b 939 293 857 558 939 456 b 647 0 939 129 857 0 l 503 0 b 79 468 229 0 79 154 b 503 938 79 783 231 938 m 621 -33 l 621 -182 b 451 -367 621 -306 567 -367 l 406 -367 l 406 -256 l 422 -256 b 474 -197 458 -256 474 -237 l 474 -33 "},"ģ":{"ha":961,"x_min":0,"x_max":0,"o":"m 592 733 b 861 419 767 733 861 631 l 861 -3 b 583 -293 861 -211 789 -293 l 147 -293 l 147 -151 l 567 -151 b 713 -3 676 -151 713 -108 l 713 31 l 389 31 b 71 383 193 31 71 146 b 389 733 71 619 193 733 m 219 378 b 403 164 219 228 276 164 l 713 164 l 713 421 b 549 592 713 540 667 592 l 403 592 b 219 378 276 592 219 528 m 633 1167 l 633 1047 l 606 1047 b 551 988 568 1047 551 1029 l 551 781 l 393 781 l 393 971 b 574 1167 393 1103 450 1167 "},"Ħ":{"ha":1035,"x_min":0,"x_max":0,"o":"m 278 938 l 278 835 l 757 835 l 757 938 l 922 938 l 922 835 l 1021 835 l 1021 713 l 922 713 l 922 0 l 757 0 l 757 392 l 278 392 l 278 0 l 114 0 l 114 713 l 15 713 l 15 835 l 114 835 l 114 938 m 757 556 l 757 713 l 278 713 l 278 556 "},"ħ":{"ha":982,"x_min":0,"x_max":0,"o":"m 253 1051 l 253 996 l 743 996 l 743 872 l 253 872 l 253 733 l 511 733 b 881 413 758 733 881 614 l 881 0 l 732 0 l 732 413 b 511 592 732 525 664 592 l 253 592 l 253 0 l 106 0 l 106 1051 "},"Ĩ":{"ha":499,"x_min":0,"x_max":0,"o":"m 332 938 l 332 0 l 168 0 l 168 938 m 568 1200 l 568 1076 l -69 1076 l -69 1200 "},"ĩ":{"ha":551,"x_min":0,"x_max":0,"o":"m 596 996 l 596 872 l -42 872 l -42 996 m 350 733 l 350 0 l 203 0 l 203 733 "},"Ī":{"ha":499,"x_min":0,"x_max":0,"o":"m 332 938 l 332 0 l 168 0 l 168 938 m 568 1200 l 568 1076 l -69 1076 l -69 1200 "},"ī":{"ha":551,"x_min":0,"x_max":0,"o":"m 596 996 l 596 872 l -42 872 l -42 996 m 350 733 l 350 0 l 203 0 l 203 733 "},"Ĭ":{"ha":522,"x_min":0,"x_max":0,"o":"m 343 938 l 343 0 l 179 0 l 179 938 m 101 1283 l 101 1206 b 261 1086 101 1118 133 1086 b 418 1206 388 1086 418 1118 l 418 1283 l 543 1283 l 543 1204 b 261 985 543 1043 481 985 b -22 1204 39 985 -22 1043 l -22 1283 "},"ĭ":{"ha":521,"x_min":0,"x_max":0,"o":"m 101 1079 l 101 1001 b 261 882 101 914 133 882 b 418 1001 388 882 418 914 l 418 1079 l 543 1079 l 543 1000 b 261 781 543 839 481 781 b -22 1000 39 781 -22 839 l -22 1079 m 333 733 l 333 0 l 186 0 l 186 733 "},"Į":{"ha":399,"x_min":0,"x_max":0,"o":"m 122 -29 l 122 938 l 286 938 l 286 0 l 153 -57 b 86 -144 113 -75 86 -100 b 182 -228 86 -194 121 -228 l 313 -228 l 313 -367 l 136 -367 b -47 -204 14 -367 -47 -297 b 75 -47 -47 -122 -1 -78 "},"į":{"ha":386,"x_min":0,"x_max":0,"o":"m 281 733 l 281 0 l 147 -57 b 81 -144 107 -75 81 -100 b 176 -228 81 -194 115 -228 l 307 -228 l 307 -367 l 131 -367 b -53 -204 8 -367 -53 -297 b 69 -47 -53 -122 -7 -78 l 133 -22 l 133 733 m 282 1010 l 282 839 l 133 839 l 133 1010 "},"İ":{"ha":390,"x_min":0,"x_max":0,"o":"m 278 938 l 278 0 l 114 0 l 114 938 m 269 1214 l 269 1043 l 121 1043 l 121 1214 "},"ı":{"ha":358,"x_min":0,"x_max":0,"o":"m 253 733 l 253 0 l 106 0 l 106 733 "},"Ĳ":{"ha":1146,"x_min":0,"x_max":0,"o":"m 278 938 l 278 0 l 114 0 l 114 938 m 1042 938 l 1042 324 b 694 0 1042 136 943 0 l 376 0 l 376 164 l 685 164 b 876 325 832 164 876 235 l 876 938 "},"ĳ":{"ha":726,"x_min":0,"x_max":0,"o":"m 253 733 l 253 0 l 106 0 l 106 733 m 622 733 l 622 -42 b 407 -294 622 -233 557 -294 l 278 -294 l 278 -153 l 374 -153 b 474 -43 446 -153 474 -125 l 474 733 m 622 1010 l 622 839 l 474 839 l 474 1010 m 254 1010 l 254 839 l 106 839 l 106 1010 "},"Ķ":{"ha":983,"x_min":0,"x_max":0,"o":"m 278 938 l 278 540 l 368 540 b 608 657 529 540 556 554 l 751 938 l 928 938 l 781 646 b 618 475 739 563 694 508 b 804 294 706 451 749 403 l 956 0 l 772 0 l 629 278 b 368 392 578 378 544 392 l 278 392 l 278 0 l 114 0 l 114 938 m 576 -33 l 576 -182 b 407 -367 576 -306 522 -367 l 361 -367 l 361 -256 l 378 -256 b 429 -197 414 -256 429 -237 l 429 -33 "},"ķ":{"ha":836,"x_min":0,"x_max":0,"o":"m 253 1051 l 253 429 l 321 429 b 504 513 438 429 461 435 l 626 733 l 786 733 l 658 503 b 528 372 622 438 588 397 b 678 231 597 353 633 307 l 810 0 l 644 0 l 522 217 b 321 306 479 293 450 306 l 253 306 l 253 0 l 106 0 l 106 1051 m 518 -33 l 518 -182 b 349 -367 518 -306 464 -367 l 303 -367 l 303 -256 l 319 -256 b 371 -197 356 -256 371 -237 l 371 -33 "},"Ĺ":{"ha":864,"x_min":0,"x_max":0,"o":"m 268 938 l 268 325 b 460 164 268 235 313 164 l 824 164 l 824 0 l 450 0 b 104 324 201 0 104 136 l 104 938 m 404 1283 l 231 985 l 85 985 l 240 1283 "},"ĺ":{"ha":372,"x_min":0,"x_max":0,"o":"m 253 929 l 253 0 l 106 0 l 106 929 m 385 1258 l 211 960 l 65 960 l 221 1258 "},"Ļ":{"ha":864,"x_min":0,"x_max":0,"o":"m 268 938 l 268 325 b 460 164 268 235 313 164 l 824 164 l 824 0 l 450 0 b 104 324 201 0 104 136 l 104 938 m 550 -33 l 550 -182 b 381 -367 550 -306 496 -367 l 335 -367 l 335 -256 l 351 -256 b 403 -197 388 -256 403 -237 l 403 -33 "},"ļ":{"ha":358,"x_min":0,"x_max":0,"o":"m 253 1051 l 253 0 l 106 0 l 106 1051 m 253 -33 l 253 -182 b 83 -367 253 -306 199 -367 l 38 -367 l 38 -256 l 54 -256 b 106 -197 90 -256 106 -237 l 106 -33 "},"Ľ":{"ha":864,"x_min":0,"x_max":0,"o":"m 268 938 l 268 325 b 460 164 268 235 313 164 l 824 164 l 824 0 l 450 0 b 104 324 201 0 104 136 l 104 938 m 681 1050 l 681 901 b 511 717 681 778 626 717 l 465 717 l 465 828 l 482 828 b 533 886 518 828 533 846 l 533 1050 "},"ľ":{"ha":496,"x_min":0,"x_max":0,"o":"m 253 1051 l 253 0 l 106 0 l 106 1051 m 532 1050 l 532 901 b 363 717 532 778 478 717 l 317 717 l 317 828 l 333 828 b 385 886 369 828 385 846 l 385 1050 "},"Ł":{"ha":864,"x_min":0,"x_max":0,"o":"m 268 938 l 268 707 l 529 819 l 529 683 l 268 571 l 268 325 b 460 164 268 235 313 164 l 824 164 l 824 0 l 450 0 b 104 324 201 0 104 136 l 104 500 l 11 460 l 11 596 l 104 636 l 104 938 "},"ł":{"ha":518,"x_min":0,"x_max":0,"o":"m 333 1051 l 333 832 l 518 913 l 518 776 l 333 696 l 333 0 l 186 0 l 186 633 l 0 553 l 0 689 l 186 769 l 186 1051 "},"Ń":{"ha":1221,"x_min":0,"x_max":0,"o":"m 276 0 l 113 0 l 113 750 b 328 954 113 872 182 954 b 556 781 458 954 517 888 l 829 182 b 889 143 840 160 858 143 b 944 196 924 143 944 164 l 944 938 l 1110 938 l 1110 189 b 894 -17 1110 65 1039 -17 b 665 157 764 -17 704 50 l 392 756 b 333 796 379 783 363 796 b 276 742 296 796 276 775 m 794 1283 l 621 985 l 475 985 l 631 1283 "},"ń":{"ha":982,"x_min":0,"x_max":0,"o":"m 511 733 b 881 413 760 733 881 615 l 881 0 l 732 0 l 732 413 b 511 592 732 528 665 592 l 271 592 b 253 571 258 592 253 585 l 253 0 l 106 0 l 106 619 b 208 733 106 706 135 733 m 660 1079 l 486 781 l 340 781 l 496 1079 "},"Ņ":{"ha":1221,"x_min":0,"x_max":0,"o":"m 276 0 l 113 0 l 113 750 b 328 954 113 872 182 954 b 556 781 458 954 517 888 l 829 182 b 889 143 840 160 858 143 b 944 196 924 143 944 164 l 944 938 l 1110 938 l 1110 189 b 894 -17 1110 65 1039 -17 b 665 157 764 -17 704 50 l 392 756 b 333 796 379 783 363 796 b 276 742 296 796 276 775 m 649 -33 l 649 -182 b 479 -367 649 -306 594 -367 l 433 -367 l 433 -256 l 450 -256 b 501 -197 486 -256 501 -237 l 501 -33 "},"ņ":{"ha":982,"x_min":0,"x_max":0,"o":"m 511 733 b 881 413 760 733 881 615 l 881 0 l 732 0 l 732 413 b 511 592 732 528 665 592 l 271 592 b 253 571 258 592 253 585 l 253 0 l 106 0 l 106 619 b 208 733 106 706 135 733 m 572 -33 l 572 -182 b 403 -367 572 -306 518 -367 l 357 -367 l 357 -256 l 374 -256 b 425 -197 410 -256 425 -237 l 425 -33 "},"Ň":{"ha":1221,"x_min":0,"x_max":0,"o":"m 276 0 l 113 0 l 113 750 b 328 954 113 872 182 954 b 556 781 458 954 517 888 l 829 182 b 889 143 840 160 858 143 b 944 196 924 143 944 164 l 944 938 l 1110 938 l 1110 189 b 894 -17 1110 65 1039 -17 b 665 157 764 -17 704 50 l 392 756 b 333 796 379 783 363 796 b 276 742 296 796 276 775 m 500 1283 l 592 1111 b 621 1099 597 1103 607 1099 b 647 1111 632 1099 643 1101 l 740 1283 l 897 1283 l 771 1057 b 619 985 744 1006 692 985 b 468 1057 547 985 494 1007 l 343 1283 "},"ň":{"ha":982,"x_min":0,"x_max":0,"o":"m 511 733 b 881 413 760 733 881 615 l 881 0 l 732 0 l 732 413 b 511 592 732 528 665 592 l 271 592 b 253 571 258 592 253 585 l 253 0 l 106 0 l 106 619 b 208 733 106 706 135 733 m 364 1079 l 456 907 b 485 894 461 899 471 894 b 511 907 496 894 507 897 l 604 1079 l 761 1079 l 635 853 b 483 781 608 801 556 781 b 332 853 411 781 358 803 l 207 1079 "},"Ŋ":{"ha":1094,"x_min":0,"x_max":0,"o":"m 567 938 b 981 558 843 938 981 790 l 981 24 b 718 -294 981 -217 900 -294 l 515 -294 l 515 -137 l 681 -137 b 815 22 776 -137 815 -97 l 815 558 b 567 774 815 693 739 774 l 294 774 b 278 756 283 774 278 768 l 278 0 l 114 0 l 114 861 b 188 938 114 915 146 938 "},"ŋ":{"ha":982,"x_min":0,"x_max":0,"o":"m 732 413 b 511 592 732 528 665 592 l 271 592 b 253 571 258 592 253 585 l 253 0 l 106 0 l 106 619 b 208 733 106 706 135 733 l 511 733 b 881 413 760 733 881 615 l 881 -42 b 665 -294 881 -233 815 -294 l 536 -294 l 536 -153 l 632 -153 b 732 -43 704 -153 732 -125 "},"Ō":{"ha":1133,"x_min":0,"x_max":0,"o":"m 631 938 b 1054 467 903 938 1054 782 b 631 0 1054 153 904 0 l 503 0 b 79 467 229 0 79 153 b 503 938 79 782 231 938 m 503 774 b 243 467 322 774 243 682 b 503 164 243 253 321 164 l 631 164 b 889 468 811 164 889 253 b 631 774 889 682 811 774 m 885 1175 l 885 1051 l 247 1051 l 247 1175 "},"ō":{"ha":932,"x_min":0,"x_max":0,"o":"m 543 733 b 861 367 738 733 861 614 b 543 0 861 119 738 0 l 389 0 b 71 367 193 0 71 119 b 389 733 71 614 193 733 m 403 592 b 219 367 275 592 219 525 b 403 143 219 208 275 143 l 529 143 b 713 367 656 143 713 208 b 529 592 713 525 656 592 m 785 996 l 785 872 l 147 872 l 147 996 "},"Ő":{"ha":1133,"x_min":0,"x_max":0,"o":"m 631 938 b 1054 467 903 938 1054 782 b 631 0 1054 153 904 0 l 503 0 b 79 467 229 0 79 153 b 503 938 79 782 231 938 m 503 774 b 243 467 322 774 243 682 b 503 164 243 253 321 164 l 631 164 b 889 468 811 164 889 253 b 631 774 889 682 811 774 m 896 1283 l 722 985 l 576 985 l 732 1283 m 592 1283 l 418 985 l 272 985 l 428 1283 "},"ő":{"ha":932,"x_min":0,"x_max":0,"o":"m 543 733 b 861 367 738 733 861 614 b 543 0 861 119 738 0 l 389 0 b 71 367 193 0 71 119 b 389 733 71 614 193 733 m 403 592 b 219 367 275 592 219 525 b 403 143 219 208 275 143 l 529 143 b 713 367 656 143 713 208 b 529 592 713 525 656 592 m 793 1079 l 619 781 l 474 781 l 629 1079 m 489 1079 l 315 781 l 169 781 l 325 1079 "},"Œ":{"ha":1644,"x_min":0,"x_max":0,"o":"m 1544 938 l 1544 774 l 979 774 b 1050 544 1018 714 1042 638 l 1538 544 l 1538 396 l 1051 396 b 982 164 1043 301 1019 224 l 1546 164 l 1546 0 l 503 0 b 79 467 229 0 79 153 b 503 938 79 782 231 938 m 503 774 b 243 468 322 774 243 682 b 503 164 243 253 321 164 l 631 164 b 889 468 811 164 889 253 b 631 774 889 682 811 774 "},"œ":{"ha":1532,"x_min":0,"x_max":0,"o":"m 543 733 b 765 653 635 733 710 707 b 972 733 806 703 872 733 l 1210 733 b 1457 508 1383 733 1457 650 b 1208 297 1457 374 1389 297 l 860 297 l 860 244 b 972 143 860 186 892 143 l 1421 143 l 1421 0 l 972 0 b 765 81 872 0 806 31 b 543 0 710 26 635 0 l 389 0 b 71 367 193 0 71 119 b 389 733 71 614 193 733 m 403 592 b 219 367 275 592 219 525 b 403 143 219 208 275 143 l 529 143 b 713 367 656 143 713 208 b 529 592 713 525 656 592 m 860 413 l 1204 413 b 1313 500 1283 413 1313 446 b 1208 592 1313 556 1281 592 l 972 592 b 860 490 892 592 860 547 "},"Ŕ":{"ha":992,"x_min":0,"x_max":0,"o":"m 619 938 b 921 657 831 938 921 807 b 722 375 921 540 865 415 l 940 0 l 758 0 l 544 363 l 300 363 b 276 339 285 363 276 356 l 276 0 l 113 0 l 113 371 b 260 519 113 476 157 519 l 625 519 b 756 650 718 519 756 583 b 625 774 756 717 715 774 l 111 774 l 111 938 m 668 1283 l 494 985 l 349 985 l 504 1283 "},"ŕ":{"ha":643,"x_min":0,"x_max":0,"o":"m 604 733 l 604 592 l 346 592 b 251 497 281 592 251 561 l 251 0 l 104 0 l 104 519 b 303 733 104 667 158 733 m 544 1079 l 371 781 l 225 781 l 381 1079 "},"Ŗ":{"ha":992,"x_min":0,"x_max":0,"o":"m 619 938 b 921 657 831 938 921 807 b 722 375 921 540 865 415 l 940 0 l 758 0 l 544 363 l 300 363 b 276 339 285 363 276 356 l 276 0 l 113 0 l 113 371 b 260 519 113 476 157 519 l 625 519 b 756 650 718 519 756 583 b 625 774 756 717 715 774 l 111 774 l 111 938 m 574 -33 l 574 -182 b 404 -367 574 -306 519 -367 l 358 -367 l 358 -256 l 375 -256 b 426 -197 411 -256 426 -237 l 426 -33 "},"ŗ":{"ha":643,"x_min":0,"x_max":0,"o":"m 604 733 l 604 592 l 346 592 b 251 497 281 592 251 561 l 251 0 l 104 0 l 104 519 b 303 733 104 667 158 733 m 250 -33 l 250 -182 b 81 -367 250 -306 196 -367 l 35 -367 l 35 -256 l 51 -256 b 103 -197 88 -256 103 -237 l 103 -33 "},"Ř":{"ha":992,"x_min":0,"x_max":0,"o":"m 619 938 b 921 657 831 938 921 807 b 722 375 921 540 865 415 l 940 0 l 758 0 l 544 363 l 300 363 b 276 339 285 363 276 356 l 276 0 l 113 0 l 113 371 b 260 519 113 476 157 519 l 625 519 b 756 650 718 519 756 583 b 625 774 756 717 715 774 l 111 774 l 111 938 m 369 1283 l 461 1111 b 490 1099 467 1103 476 1099 b 517 1111 501 1099 513 1101 l 610 1283 l 767 1283 l 640 1057 b 489 985 614 1006 561 985 b 338 1057 417 985 364 1007 l 213 1283 "},"ř":{"ha":678,"x_min":0,"x_max":0,"o":"m 604 733 l 604 592 l 346 592 b 251 497 281 592 251 561 l 251 0 l 104 0 l 104 519 b 303 733 104 667 158 733 m 256 1079 l 347 907 b 376 894 353 899 363 894 b 403 907 388 894 399 897 l 496 1079 l 653 1079 l 526 853 b 375 781 500 801 447 781 b 224 853 303 781 250 803 l 99 1079 "},"Ś":{"ha":976,"x_min":0,"x_max":0,"o":"m 838 938 l 838 774 l 357 774 b 235 663 272 774 235 728 b 374 551 235 606 264 551 l 593 551 b 908 275 849 551 908 410 b 610 0 908 117 824 0 l 88 0 l 88 164 l 615 164 b 744 281 704 164 744 213 b 597 397 744 342 713 397 l 379 397 b 71 668 129 397 71 538 b 363 938 71 824 154 938 m 669 1283 l 496 985 l 350 985 l 506 1283 "},"ś":{"ha":814,"x_min":0,"x_max":0,"o":"m 717 733 l 717 592 l 311 592 b 215 508 243 592 215 564 b 319 429 215 457 238 429 l 492 429 b 746 222 694 429 746 336 b 506 0 746 92 678 0 l 79 0 l 79 143 l 506 143 b 601 224 574 143 601 167 b 497 306 601 282 571 306 l 324 306 b 71 519 121 306 71 407 b 310 733 71 651 139 733 m 592 1079 l 418 781 l 272 781 l 428 1079 "},"Ş":{"ha":976,"x_min":0,"x_max":0,"o":"m 838 938 l 838 774 l 357 774 b 235 663 272 774 235 728 b 374 551 235 606 264 551 l 593 551 b 908 275 849 551 908 410 b 610 0 908 117 824 0 l 88 0 l 88 164 l 615 164 b 744 281 704 164 744 213 b 597 397 744 342 713 397 l 379 397 b 71 668 129 397 71 538 b 363 938 71 824 154 938 m 564 -33 l 564 -182 b 394 -367 564 -306 510 -367 l 349 -367 l 349 -256 l 365 -256 b 417 -197 401 -256 417 -237 l 417 -33 "},"ş":{"ha":814,"x_min":0,"x_max":0,"o":"m 717 733 l 717 592 l 311 592 b 215 508 243 592 215 564 b 319 429 215 457 238 429 l 492 429 b 746 222 694 429 746 336 b 506 0 746 92 678 0 l 79 0 l 79 143 l 506 143 b 601 224 574 143 601 167 b 497 306 601 282 571 306 l 324 306 b 71 519 121 306 71 407 b 310 733 71 651 139 733 m 482 -33 l 482 -182 b 313 -367 482 -306 428 -367 l 267 -367 l 267 -256 l 283 -256 b 335 -197 319 -256 335 -237 l 335 -33 "},"Š":{"ha":976,"x_min":0,"x_max":0,"o":"m 838 938 l 838 774 l 357 774 b 235 663 272 774 235 728 b 374 551 235 606 264 551 l 593 551 b 908 275 849 551 908 410 b 610 0 908 117 824 0 l 88 0 l 88 164 l 615 164 b 744 281 704 164 744 213 b 597 397 744 342 713 397 l 379 397 b 71 668 129 397 71 538 b 363 938 71 824 154 938 m 375 1283 l 467 1111 b 496 1099 472 1103 482 1099 b 522 1111 507 1099 518 1101 l 615 1283 l 772 1283 l 646 1057 b 494 985 619 1006 567 985 b 343 1057 422 985 369 1007 l 218 1283 "},"š":{"ha":814,"x_min":0,"x_max":0,"o":"m 717 733 l 717 592 l 311 592 b 215 508 243 592 215 564 b 319 429 215 457 238 429 l 492 429 b 746 222 694 429 746 336 b 506 0 746 92 678 0 l 79 0 l 79 143 l 506 143 b 601 224 574 143 601 167 b 497 306 601 282 571 306 l 324 306 b 71 519 121 306 71 407 b 310 733 71 651 139 733 m 300 1079 l 392 907 b 421 894 397 899 407 894 b 447 907 432 894 443 897 l 540 1079 l 697 1079 l 571 853 b 419 781 544 801 492 781 b 268 853 347 781 294 803 l 143 1079 "},"Ť":{"ha":793,"x_min":0,"x_max":0,"o":"m 753 938 l 753 774 l 479 774 l 479 0 l 314 0 l 314 774 l 40 774 l 40 938 m 276 1283 l 368 1111 b 397 1099 374 1103 383 1099 b 424 1111 408 1099 419 1101 l 517 1283 l 674 1283 l 547 1057 b 396 985 521 1006 468 985 b 244 1057 324 985 271 1007 l 119 1283 "},"ť":{"ha":682,"x_min":0,"x_max":0,"o":"m 132 733 l 132 907 l 281 907 l 281 733 l 483 733 l 483 592 l 281 592 l 281 244 b 379 135 281 163 310 135 l 481 135 l 481 0 l 349 0 b 132 253 197 0 132 61 l 132 592 l 32 592 l 32 733 m 718 1050 l 718 901 b 549 717 718 778 664 717 l 503 717 l 503 828 l 519 828 b 571 886 556 828 571 846 l 571 1050 "},"Ŧ":{"ha":793,"x_min":0,"x_max":0,"o":"m 314 494 l 314 774 l 40 774 l 40 938 l 753 938 l 753 774 l 479 774 l 479 494 l 715 494 l 715 371 l 479 371 l 479 0 l 314 0 l 314 371 l 78 371 l 78 494 "},"ŧ":{"ha":536,"x_min":0,"x_max":0,"o":"m 281 907 l 281 733 l 483 733 l 483 592 l 281 592 l 281 436 l 499 436 l 499 314 l 281 314 l 281 244 b 379 135 281 163 310 135 l 481 135 l 481 0 l 349 0 b 132 253 197 0 132 61 l 132 314 l 32 314 l 32 436 l 132 436 l 132 592 l 32 592 l 32 733 l 132 733 l 132 907 "},"Ũ":{"ha":1017,"x_min":0,"x_max":0,"o":"m 274 938 l 274 311 b 429 164 274 218 321 164 l 596 164 b 750 311 701 164 750 218 l 750 938 l 911 938 l 911 299 b 607 0 911 101 807 0 l 410 0 b 107 299 210 0 107 101 l 107 938 m 826 1200 l 826 1076 l 189 1076 l 189 1200 "},"ũ":{"ha":975,"x_min":0,"x_max":0,"o":"m 250 733 l 250 294 b 431 143 250 208 314 143 l 550 143 b 729 294 667 143 729 208 l 729 733 l 874 733 l 874 289 b 556 0 874 119 765 0 l 419 0 b 101 289 210 0 101 119 l 101 733 m 807 996 l 807 872 l 169 872 l 169 996 "},"Ū":{"ha":1017,"x_min":0,"x_max":0,"o":"m 274 938 l 274 311 b 429 164 274 218 321 164 l 596 164 b 750 311 701 164 750 218 l 750 938 l 911 938 l 911 299 b 607 0 911 101 807 0 l 410 0 b 107 299 210 0 107 101 l 107 938 m 826 1200 l 826 1076 l 189 1076 l 189 1200 "},"ū":{"ha":975,"x_min":0,"x_max":0,"o":"m 250 733 l 250 294 b 431 143 250 208 314 143 l 550 143 b 729 294 667 143 729 208 l 729 733 l 874 733 l 874 289 b 556 0 874 119 765 0 l 419 0 b 101 289 210 0 101 119 l 101 733 m 807 996 l 807 872 l 169 872 l 169 996 "},"Ů":{"ha":1017,"x_min":0,"x_max":0,"o":"m 274 938 l 274 311 b 429 164 274 218 321 164 l 596 164 b 750 311 701 164 750 218 l 750 938 l 911 938 l 911 299 b 607 0 911 101 807 0 l 410 0 b 107 299 210 0 107 101 l 107 938 m 556 1283 b 694 1124 640 1283 694 1232 b 556 964 694 1017 640 964 l 460 964 b 321 1124 374 964 321 1017 b 460 1283 321 1232 374 1283 m 468 1213 b 397 1124 418 1213 397 1186 b 468 1036 397 1063 418 1036 l 546 1036 b 617 1124 594 1036 617 1063 b 546 1213 617 1186 594 1213 "},"ů":{"ha":975,"x_min":0,"x_max":0,"o":"m 250 733 l 250 294 b 431 143 250 208 314 143 l 550 143 b 729 294 667 143 729 208 l 729 733 l 874 733 l 874 289 b 556 0 874 119 765 0 l 419 0 b 101 289 210 0 101 119 l 101 733 m 536 1119 b 675 960 621 1119 675 1068 b 536 800 675 853 621 800 l 440 800 b 301 960 354 800 301 853 b 440 1119 301 1068 354 1119 m 449 1049 b 378 960 399 1049 378 1022 b 449 872 378 899 399 872 l 526 872 b 597 960 575 872 597 899 b 526 1049 597 1022 575 1049 "},"Ű":{"ha":1017,"x_min":0,"x_max":0,"o":"m 274 938 l 274 311 b 429 164 274 218 321 164 l 596 164 b 750 311 701 164 750 218 l 750 938 l 911 938 l 911 299 b 607 0 911 101 807 0 l 410 0 b 107 299 210 0 107 101 l 107 938 m 838 1283 l 664 985 l 518 985 l 674 1283 m 533 1283 l 360 985 l 214 985 l 369 1283 "},"ű":{"ha":975,"x_min":0,"x_max":0,"o":"m 250 733 l 250 294 b 431 143 250 208 314 143 l 550 143 b 729 294 667 143 729 208 l 729 733 l 874 733 l 874 289 b 556 0 874 119 765 0 l 419 0 b 101 289 210 0 101 119 l 101 733 m 818 1079 l 644 781 l 499 781 l 654 1079 m 514 1079 l 340 781 l 194 781 l 350 1079 "},"Ų":{"ha":1017,"x_min":0,"x_max":0,"o":"m 525 0 l 410 0 b 107 299 210 0 107 101 l 107 938 l 274 938 l 274 311 b 429 164 274 218 321 164 l 596 164 b 750 311 701 164 750 218 l 750 938 l 911 938 l 911 299 b 611 0 911 103 808 1 l 478 -57 b 411 -144 438 -75 411 -100 b 507 -228 411 -194 446 -228 l 638 -228 l 638 -367 l 461 -367 b 278 -204 339 -367 278 -297 b 400 -47 278 -122 324 -78 "},"ų":{"ha":975,"x_min":0,"x_max":0,"o":"m 496 0 l 419 0 b 101 289 210 0 101 119 l 101 733 l 250 733 l 250 294 b 431 143 250 208 314 143 l 550 143 b 729 294 667 143 729 208 l 729 733 l 874 733 l 874 289 b 582 0 874 124 769 6 l 449 -57 b 382 -144 408 -75 382 -100 b 478 -228 382 -194 417 -228 l 608 -228 l 608 -367 l 432 -367 b 249 -204 310 -367 249 -297 b 371 -47 249 -122 294 -76 "},"Ŵ":{"ha":1453,"x_min":0,"x_max":0,"o":"m 218 938 l 288 206 b 344 143 292 165 308 143 b 403 194 376 143 396 160 l 514 769 b 729 954 538 890 607 954 b 939 769 851 954 917 890 l 1043 194 b 1103 143 1049 161 1069 143 b 1160 206 1139 143 1156 165 l 1239 938 l 1410 938 l 1322 196 b 1103 -17 1308 72 1250 -17 b 888 174 985 -17 911 42 l 785 746 b 728 796 779 779 758 796 b 671 746 697 796 678 779 l 561 174 b 340 -17 536 46 465 -17 b 126 196 196 -17 140 69 l 46 938 m 575 1213 b 728 1283 601 1264 654 1283 b 878 1213 800 1283 851 1263 l 1004 985 l 847 985 l 754 1158 b 726 1171 750 1167 740 1171 b 699 1158 714 1171 704 1168 l 607 985 l 450 985 "},"ŵ":{"ha":1357,"x_min":0,"x_max":0,"o":"m 201 733 l 267 161 b 319 114 271 129 285 114 b 374 154 353 114 367 128 l 478 599 b 679 747 500 696 563 747 b 875 599 796 747 853 696 l 974 154 b 1029 114 979 128 996 114 b 1079 161 1063 114 1075 129 l 1156 733 l 1315 733 l 1233 153 b 1028 -17 1219 51 1161 -17 b 831 135 914 -17 853 33 l 732 581 b 678 617 726 606 706 617 b 624 581 649 617 629 606 l 519 135 b 317 -17 496 33 433 -17 b 118 153 181 -17 132 51 l 42 733 m 526 1008 b 679 1079 553 1060 606 1079 b 829 1008 751 1079 803 1058 l 956 781 l 799 781 l 706 954 b 678 967 701 963 692 967 b 650 954 665 967 656 964 l 558 781 l 401 781 "},"Ŷ":{"ha":957,"x_min":0,"x_max":0,"o":"m 217 938 l 479 536 l 744 938 l 939 938 l 561 404 l 561 0 l 396 0 l 396 404 l 18 938 m 326 1213 b 479 1283 353 1264 406 1283 b 629 1213 551 1283 603 1263 l 756 985 l 599 985 l 506 1158 b 478 1171 501 1167 492 1171 b 450 1158 465 1171 456 1168 l 358 985 l 201 985 "},"ŷ":{"ha":899,"x_min":0,"x_max":0,"o":"m 872 733 l 431 -294 l 272 -294 l 410 26 b 272 117 326 26 297 53 l 26 733 l 182 733 l 403 188 b 447 157 413 161 419 157 l 467 157 l 715 733 m 289 1008 b 442 1079 315 1060 368 1079 b 592 1008 514 1079 565 1058 l 718 781 l 561 781 l 468 954 b 440 967 464 963 454 967 b 413 954 428 967 418 964 l 321 781 l 164 781 "},"Ÿ":{"ha":957,"x_min":0,"x_max":0,"o":"m 217 938 l 479 536 l 744 938 l 939 938 l 561 404 l 561 0 l 396 0 l 396 404 l 18 938 m 385 1214 l 385 1043 l 236 1043 l 236 1214 m 718 1214 l 718 1043 l 569 1043 l 569 1214 "},"Ź":{"ha":1032,"x_min":0,"x_max":0,"o":"m 728 938 b 956 732 878 938 956 863 b 806 513 956 625 906 556 l 294 294 b 247 225 265 282 247 257 b 317 164 247 189 271 164 l 935 164 l 935 0 l 306 0 b 79 206 156 0 79 75 b 231 425 79 313 129 382 l 739 643 b 788 713 769 656 788 681 b 717 774 788 749 764 774 l 113 774 l 113 938 m 699 1283 l 525 985 l 379 985 l 535 1283 "},"ź":{"ha":867,"x_min":0,"x_max":0,"o":"m 608 733 b 797 565 736 733 797 667 b 672 389 797 475 749 417 l 251 236 b 213 186 226 226 213 210 b 268 142 213 158 231 142 l 782 142 l 782 0 l 260 0 b 71 168 133 0 71 67 b 196 346 71 250 111 315 l 618 497 b 657 549 649 508 657 529 b 600 592 657 576 639 592 l 97 592 l 97 733 m 608 1079 l 435 781 l 289 781 l 444 1079 "},"Ż":{"ha":1032,"x_min":0,"x_max":0,"o":"m 728 938 b 956 732 878 938 956 863 b 806 513 956 625 906 556 l 294 294 b 247 225 265 282 247 257 b 317 164 247 189 271 164 l 935 164 l 935 0 l 306 0 b 79 206 156 0 79 75 b 231 425 79 313 129 382 l 739 643 b 788 713 769 656 788 681 b 717 774 788 749 764 774 l 113 774 l 113 938 m 594 1214 l 594 1043 l 446 1043 l 446 1214 "},"ż":{"ha":867,"x_min":0,"x_max":0,"o":"m 608 733 b 797 565 736 733 797 667 b 672 389 797 475 749 417 l 251 236 b 213 186 226 226 213 210 b 268 142 213 158 231 142 l 782 142 l 782 0 l 260 0 b 71 168 133 0 71 67 b 196 346 71 250 111 315 l 618 497 b 657 549 649 508 657 529 b 600 592 657 576 639 592 l 97 592 l 97 733 m 515 1010 l 515 839 l 367 839 l 367 1010 "},"Ž":{"ha":1032,"x_min":0,"x_max":0,"o":"m 728 938 b 956 732 878 938 956 863 b 806 513 956 625 906 556 l 294 294 b 247 225 265 282 247 257 b 317 164 247 189 271 164 l 935 164 l 935 0 l 306 0 b 79 206 156 0 79 75 b 231 425 79 313 129 382 l 739 643 b 788 713 769 656 788 681 b 717 774 788 749 764 774 l 113 774 l 113 938 m 401 1283 l 493 1111 b 522 1099 499 1103 508 1099 b 549 1111 533 1099 544 1101 l 642 1283 l 799 1283 l 672 1057 b 521 985 646 1006 593 985 b 369 1057 449 985 396 1007 l 244 1283 "},"ž":{"ha":867,"x_min":0,"x_max":0,"o":"m 608 733 b 797 565 736 733 797 667 b 672 389 797 475 749 417 l 251 236 b 213 186 226 226 213 210 b 268 142 213 158 231 142 l 782 142 l 782 0 l 260 0 b 71 168 133 0 71 67 b 196 346 71 250 111 315 l 618 497 b 657 549 649 508 657 529 b 600 592 657 576 639 592 l 97 592 l 97 733 m 313 1079 l 404 907 b 433 894 410 899 419 894 b 460 907 444 894 456 897 l 553 1079 l 710 1079 l 583 853 b 432 781 557 801 504 781 b 281 853 360 781 307 803 l 156 1079 "},"ƀ":{"ha":965,"x_min":0,"x_max":0,"o":"m 253 1051 l 253 996 l 743 996 l 743 872 l 253 872 l 253 733 l 578 733 b 894 367 772 733 894 614 b 578 0 894 119 772 0 l 375 0 b 106 314 199 0 106 103 l 106 1051 m 253 592 l 253 321 b 418 143 253 196 299 143 l 563 143 b 746 367 690 143 746 208 b 563 592 746 525 690 592 "},"Ɓ":{"ha":1249,"x_min":0,"x_max":0,"o":"m 856 938 b 1169 681 1076 938 1169 833 b 1035 472 1169 572 1122 507 b 1174 258 1124 436 1174 367 b 860 0 1174 108 1081 0 l 443 0 b 365 76 390 0 365 25 l 365 811 l 251 811 b 157 699 192 811 157 776 l 157 582 l 10 582 l 10 682 b 219 938 10 868 82 938 m 526 178 b 544 163 526 167 533 163 l 864 163 b 1008 285 963 163 1008 208 b 864 406 1008 364 960 406 l 526 406 m 526 542 l 860 542 b 1004 654 957 542 1004 578 b 861 776 1004 728 961 776 l 526 776 "},"Ƈ":{"ha":1044,"x_min":0,"x_max":0,"o":"m 696 938 b 906 1086 722 1044 792 1086 l 1044 1086 l 1044 951 l 938 951 b 833 828 867 951 833 917 l 833 725 l 685 725 l 685 774 l 503 774 b 243 468 322 774 243 683 b 503 164 243 254 321 164 l 865 164 l 865 0 l 503 0 b 79 468 229 0 79 154 b 503 938 79 783 231 938 "},"ƈ":{"ha":947,"x_min":0,"x_max":0,"o":"m 599 733 b 807 879 625 839 693 879 l 946 879 l 946 744 l 839 744 b 735 621 768 744 735 710 l 735 518 l 586 518 l 586 592 l 403 592 b 219 367 275 592 219 525 b 403 143 219 208 275 143 l 767 143 l 767 0 l 389 0 b 71 367 193 0 71 119 b 389 733 71 614 193 733 "},"Ɗ":{"ha":1271,"x_min":0,"x_max":0,"o":"m 768 938 b 1190 468 1042 938 1190 785 b 768 0 1190 153 1043 0 l 438 0 b 360 76 385 0 360 25 l 360 811 l 251 811 b 157 699 192 811 157 776 l 157 582 l 10 582 l 10 682 b 219 938 10 868 82 938 m 524 181 b 542 164 524 168 529 164 l 768 164 b 1026 469 950 164 1026 254 b 768 774 1026 683 950 774 l 524 774 "},"Ǝ":{"ha":963,"x_min":0,"x_max":0,"o":"m 569 938 b 883 686 790 938 883 831 b 751 471 883 575 838 507 b 886 251 839 433 886 364 b 574 0 886 111 794 0 l 100 0 l 100 164 l 574 164 b 715 283 669 164 715 208 b 572 396 715 358 667 396 l 108 396 l 108 544 l 568 544 b 711 657 664 544 711 579 b 569 774 711 728 668 774 l 101 774 l 101 938 "},"Ə":{"ha":1013,"x_min":0,"x_max":0,"o":"m 371 0 b 79 293 161 0 79 129 b 328 557 79 456 161 557 l 769 557 b 515 774 750 708 669 774 l 129 774 l 129 938 l 515 938 b 939 468 788 938 939 783 b 515 0 939 154 789 0 m 515 164 b 774 415 682 164 761 239 l 344 415 b 229 296 268 415 229 371 b 360 164 229 219 268 164 l 515 164 "},"ƒ":{"ha":521,"x_min":0,"x_max":0,"o":"m 132 733 l 132 799 b 349 1051 132 990 197 1051 l 481 1051 l 481 917 l 379 917 b 281 807 310 917 281 889 l 281 733 l 483 733 l 483 592 l 281 592 l 281 -42 b 65 -294 281 -233 215 -294 l -64 -294 l -64 -153 l 32 -153 b 132 -43 104 -153 132 -125 l 132 592 l 32 592 l 32 733 "},"Ɣ":{"ha":1089,"x_min":0,"x_max":0,"o":"m 210 938 l 544 383 l 882 938 l 1065 938 l 632 240 l 732 76 b 813 -174 785 -15 813 -103 b 586 -367 813 -290 738 -367 l 504 -367 b 278 -174 353 -367 278 -290 b 358 76 278 -103 306 -15 l 458 240 l 26 938 m 544 101 l 482 0 b 401 -203 433 -79 401 -153 b 514 -286 401 -254 435 -286 l 578 -286 b 689 -203 656 -286 689 -254 b 608 0 689 -153 658 -79 "},"Ƙ":{"ha":1065,"x_min":0,"x_max":0,"o":"m 685 806 b 914 976 760 950 821 976 l 1067 976 l 1067 842 l 946 842 b 829 742 903 842 872 829 l 781 646 b 618 475 739 563 694 508 b 804 294 706 451 749 403 l 956 0 l 772 0 l 629 278 b 368 392 578 378 544 392 l 278 392 l 278 0 l 114 0 l 114 938 l 278 938 l 278 540 l 368 540 b 608 657 529 540 556 554 "},"ƙ":{"ha":836,"x_min":0,"x_max":0,"o":"m 106 783 b 326 1050 106 981 178 1050 l 465 1050 l 465 915 l 358 915 b 253 792 288 915 253 881 l 253 429 l 321 429 b 504 513 438 429 461 435 l 626 733 l 786 733 l 658 503 b 528 372 622 438 588 397 b 678 231 597 353 633 307 l 810 0 l 644 0 l 522 217 b 321 306 479 293 450 306 l 253 306 l 253 0 l 106 0 "},"Ɲ":{"ha":1221,"x_min":0,"x_max":0,"o":"m 113 750 b 328 954 113 872 182 954 b 556 781 458 954 517 888 l 829 182 b 889 143 840 160 858 143 b 944 196 924 143 944 164 l 944 938 l 1110 938 l 1110 189 b 894 -17 1110 65 1039 -17 b 665 157 764 -17 704 50 l 392 756 b 333 796 379 783 363 796 b 276 742 296 796 276 775 l 276 -42 b 46 -294 276 -233 196 -294 l -83 -294 l -83 -153 l 13 -153 b 113 -43 85 -153 113 -125 "},"Ơ":{"ha":1133,"x_min":0,"x_max":0,"o":"m 903 938 b 985 1033 961 938 985 961 l 985 1181 l 1133 1181 l 1133 1035 b 964 796 1133 867 1082 804 b 1054 467 1024 718 1054 608 b 631 0 1054 153 904 0 l 503 0 b 79 467 229 0 79 153 b 503 938 79 782 231 938 m 503 774 b 243 468 322 774 243 682 b 503 164 243 253 321 164 l 631 164 b 889 468 811 164 889 253 b 631 774 889 682 811 774 "},"ơ":{"ha":1004,"x_min":0,"x_max":0,"o":"m 758 733 b 840 829 817 733 840 757 l 840 976 l 989 976 l 989 831 b 811 592 989 658 933 597 b 861 365 843 535 861 458 b 543 0 861 119 738 0 l 389 0 b 71 365 193 0 71 119 b 389 733 71 614 193 733 m 403 592 b 219 365 275 592 219 525 b 403 143 219 208 275 143 l 529 143 b 713 365 656 143 713 208 b 529 592 713 525 656 592 "},"Ư":{"ha":1201,"x_min":0,"x_max":0,"o":"m 274 938 l 274 311 b 429 164 274 218 321 164 l 596 164 b 750 311 701 164 750 218 l 750 938 l 971 938 b 1053 1033 1029 938 1053 961 l 1053 1181 l 1201 1181 l 1201 1035 b 1003 796 1201 853 1140 796 l 911 796 l 911 299 b 607 0 911 101 807 0 l 410 0 b 107 299 210 0 107 101 l 107 938 "},"ư":{"ha":1164,"x_min":0,"x_max":0,"o":"m 250 733 l 250 294 b 431 143 250 208 314 143 l 550 143 b 729 294 667 143 729 208 l 729 733 l 933 733 b 1015 829 992 733 1015 757 l 1015 976 l 1164 976 l 1164 831 b 965 592 1164 650 1103 592 l 874 592 l 874 289 b 556 0 874 119 765 0 l 419 0 b 101 289 210 0 101 119 l 101 733 "},"Ƴ":{"ha":1044,"x_min":0,"x_max":0,"o":"m 561 404 l 561 0 l 396 0 l 396 404 l 18 938 l 217 938 l 479 536 l 674 829 b 899 976 754 951 811 976 l 1044 976 l 1044 842 l 931 842 b 818 765 897 842 868 835 "},"ƴ":{"ha":1063,"x_min":0,"x_max":0,"o":"m 431 -294 l 272 -294 l 410 26 b 272 117 326 26 297 53 l 26 733 l 182 733 l 403 188 b 447 157 413 161 419 157 l 467 157 l 696 697 b 925 882 761 850 825 882 l 1064 882 l 1064 747 l 957 747 b 846 667 917 747 878 739 "},"Ǆ":{"ha":2056,"x_min":0,"x_max":0,"o":"m 522 938 b 944 468 796 938 944 785 b 522 0 944 153 797 0 l 192 0 b 114 76 139 0 114 25 l 114 861 b 192 938 114 913 139 938 m 278 181 b 296 164 278 168 283 164 l 522 164 b 781 469 704 164 781 254 b 522 774 781 683 704 774 l 296 774 b 278 757 283 774 278 769 m 1751 938 b 1979 732 1901 938 1979 863 b 1829 513 1979 625 1929 556 l 1318 294 b 1271 225 1289 282 1271 257 b 1340 164 1271 189 1294 164 l 1958 164 l 1958 0 l 1329 0 b 1103 206 1179 0 1103 75 b 1254 425 1103 313 1153 382 l 1763 643 b 1811 713 1793 656 1811 681 b 1740 774 1811 749 1788 774 l 1136 774 l 1136 938 m 1425 1283 l 1517 1111 b 1546 1099 1522 1103 1532 1099 b 1572 1111 1557 1099 1568 1101 l 1665 1283 l 1822 1283 l 1696 1057 b 1544 985 1669 1006 1617 985 b 1393 1057 1472 985 1419 1007 l 1268 1283 "},"ǅ":{"ha":1889,"x_min":0,"x_max":0,"o":"m 522 938 b 944 468 796 938 944 785 b 522 0 944 153 797 0 l 192 0 b 114 76 139 0 114 25 l 114 861 b 192 938 114 913 139 938 m 278 181 b 296 164 278 168 283 164 l 522 164 b 781 469 704 164 781 254 b 522 774 781 683 704 774 l 296 774 b 278 757 283 774 278 769 m 1632 733 b 1821 565 1760 733 1821 667 b 1696 389 1821 475 1772 417 l 1275 236 b 1236 186 1250 226 1236 210 b 1292 142 1236 158 1254 142 l 1806 142 l 1806 0 l 1283 0 b 1094 168 1157 0 1094 67 b 1219 346 1094 250 1135 315 l 1642 497 b 1681 549 1672 508 1681 529 b 1624 592 1681 576 1663 592 l 1121 592 l 1121 733 m 1336 1079 l 1428 907 b 1457 894 1433 899 1443 894 b 1483 907 1468 894 1479 897 l 1576 1079 l 1733 1079 l 1607 853 b 1456 781 1581 801 1528 781 b 1304 853 1383 781 1331 803 l 1179 1079 "},"ǆ":{"ha":1831,"x_min":0,"x_max":0,"o":"m 861 1051 l 861 314 b 592 0 861 103 767 0 l 389 0 b 71 367 193 0 71 119 b 389 733 71 614 193 733 l 713 733 l 713 1051 m 549 143 b 713 321 667 143 713 196 l 713 592 l 403 592 b 219 367 276 592 219 525 b 403 143 219 208 276 143 l 549 143 m 1574 733 b 1763 565 1701 733 1763 667 b 1638 389 1763 475 1714 417 l 1217 236 b 1178 186 1192 226 1178 210 b 1233 142 1178 158 1196 142 l 1747 142 l 1747 0 l 1225 0 b 1036 168 1099 0 1036 67 b 1161 346 1036 250 1076 315 l 1583 497 b 1622 549 1614 508 1622 529 b 1565 592 1622 576 1604 592 l 1063 592 l 1063 733 m 1278 1079 l 1369 907 b 1399 894 1375 899 1385 894 b 1425 907 1410 894 1421 897 l 1518 1079 l 1675 1079 l 1549 853 b 1397 781 1522 801 1469 781 b 1246 853 1325 781 1272 803 l 1121 1079 "},"ǝ":{"ha":906,"x_min":0,"x_max":0,"o":"m 338 0 b 90 225 164 0 90 83 b 339 436 90 360 158 436 l 688 436 l 688 489 b 575 590 688 547 656 590 l 126 590 l 126 733 l 575 733 b 831 492 758 733 831 631 l 831 242 b 575 0 831 103 758 0 m 688 321 l 343 321 b 235 233 264 321 235 288 b 339 142 235 178 267 142 l 575 142 b 688 243 656 142 688 186 "},"Ǧ":{"ha":1013,"x_min":0,"x_max":0,"o":"m 889 938 l 889 774 l 503 774 b 243 468 322 774 243 683 b 503 164 243 254 321 164 l 658 164 b 789 296 750 164 789 219 b 674 415 789 371 750 415 l 465 415 l 465 558 l 690 558 b 939 293 857 558 939 456 b 647 0 939 129 857 0 l 503 0 b 79 468 229 0 79 154 b 503 938 79 783 231 938 m 439 1283 l 531 1111 b 560 1099 536 1103 546 1099 b 586 1111 571 1099 582 1101 l 679 1283 l 836 1283 l 710 1057 b 558 985 683 1006 631 985 b 407 1057 486 985 433 1007 l 282 1283 "},"ǧ":{"ha":961,"x_min":0,"x_max":0,"o":"m 592 733 b 861 419 767 733 861 631 l 861 -3 b 583 -293 861 -211 789 -293 l 147 -293 l 147 -151 l 567 -151 b 713 -3 676 -151 713 -108 l 713 31 l 389 31 b 71 383 193 31 71 146 b 389 733 71 619 193 733 m 219 378 b 403 164 219 228 276 164 l 713 164 l 713 421 b 549 592 713 540 667 592 l 403 592 b 219 378 276 592 219 528 m 361 1079 l 453 907 b 482 894 458 899 468 894 b 508 907 493 894 504 897 l 601 1079 l 758 1079 l 632 853 b 481 781 606 801 553 781 b 329 853 408 781 356 803 l 204 1079 "},"ǰ":{"ha":478,"x_min":0,"x_max":0,"o":"m 125 1079 l 217 907 b 246 894 222 899 232 894 b 272 907 257 894 268 897 l 365 1079 l 522 1079 l 396 853 b 244 781 369 801 317 781 b 93 853 172 781 119 803 l -32 1079 m 324 733 l 324 -42 b 108 -294 324 -233 258 -294 l -21 -294 l -21 -153 l 75 -153 b 175 -43 147 -153 175 -125 l 175 733 "},"Ǳ":{"ha":2056,"x_min":0,"x_max":0,"o":"m 522 938 b 944 468 796 938 944 785 b 522 0 944 153 797 0 l 192 0 b 114 76 139 0 114 25 l 114 861 b 192 938 114 913 139 938 m 278 181 b 296 164 278 168 283 164 l 522 164 b 781 469 704 164 781 254 b 522 774 781 683 704 774 l 296 774 b 278 757 283 774 278 769 m 1751 938 b 1979 732 1901 938 1979 863 b 1829 513 1979 625 1929 556 l 1318 294 b 1271 225 1289 282 1271 257 b 1340 164 1271 189 1294 164 l 1958 164 l 1958 0 l 1329 0 b 1103 206 1179 0 1103 75 b 1254 425 1103 313 1153 382 l 1763 643 b 1811 713 1793 656 1811 681 b 1740 774 1811 749 1788 774 l 1136 774 l 1136 938 "},"ǲ":{"ha":1889,"x_min":0,"x_max":0,"o":"m 522 938 b 944 468 796 938 944 785 b 522 0 944 153 797 0 l 192 0 b 114 76 139 0 114 25 l 114 861 b 192 938 114 913 139 938 m 278 181 b 296 164 278 168 283 164 l 522 164 b 781 469 704 164 781 254 b 522 774 781 683 704 774 l 296 774 b 278 757 283 774 278 769 m 1632 733 b 1821 565 1760 733 1821 667 b 1696 389 1821 475 1772 417 l 1275 236 b 1236 186 1250 226 1236 210 b 1292 142 1236 158 1254 142 l 1806 142 l 1806 0 l 1283 0 b 1094 168 1157 0 1094 67 b 1219 346 1094 250 1135 315 l 1642 497 b 1681 549 1672 508 1681 529 b 1624 592 1681 576 1663 592 l 1121 592 l 1121 733 "},"ǳ":{"ha":1831,"x_min":0,"x_max":0,"o":"m 861 1051 l 861 314 b 592 0 861 103 767 0 l 389 0 b 71 367 193 0 71 119 b 389 733 71 614 193 733 l 713 733 l 713 1051 m 549 143 b 713 321 667 143 713 196 l 713 592 l 403 592 b 219 367 276 592 219 525 b 403 143 219 208 276 143 l 549 143 m 1574 733 b 1763 565 1701 733 1763 667 b 1638 389 1763 475 1714 417 l 1217 236 b 1178 186 1192 226 1178 210 b 1233 142 1178 158 1196 142 l 1747 142 l 1747 0 l 1225 0 b 1036 168 1099 0 1036 67 b 1161 346 1036 250 1076 315 l 1583 497 b 1622 549 1614 508 1622 529 b 1565 592 1622 576 1604 592 l 1063 592 l 1063 733 "},"Ǵ":{"ha":1013,"x_min":0,"x_max":0,"o":"m 889 938 l 889 774 l 503 774 b 243 468 322 774 243 683 b 503 164 243 254 321 164 l 658 164 b 789 296 750 164 789 219 b 674 415 789 371 750 415 l 465 415 l 465 558 l 690 558 b 939 293 857 558 939 456 b 647 0 939 129 857 0 l 503 0 b 79 468 229 0 79 154 b 503 938 79 783 231 938 m 735 1283 l 561 985 l 415 985 l 571 1283 "},"ǵ":{"ha":961,"x_min":0,"x_max":0,"o":"m 592 733 b 861 419 767 733 861 631 l 861 -3 b 583 -293 861 -211 789 -293 l 147 -293 l 147 -151 l 567 -151 b 713 -3 676 -151 713 -108 l 713 31 l 389 31 b 71 383 193 31 71 146 b 389 733 71 619 193 733 m 219 378 b 403 164 219 228 276 164 l 713 164 l 713 421 b 549 592 713 540 667 592 l 403 592 b 219 378 276 592 219 528 m 656 1079 l 482 781 l 336 781 l 492 1079 "},"Ǹ":{"ha":1221,"x_min":0,"x_max":0,"o":"m 276 0 l 113 0 l 113 750 b 328 954 113 872 182 954 b 556 781 458 954 517 888 l 829 182 b 889 143 840 160 858 143 b 944 196 924 143 944 164 l 944 938 l 1110 938 l 1110 189 b 894 -17 1110 65 1039 -17 b 665 157 764 -17 704 50 l 392 756 b 333 796 379 783 363 796 b 276 742 296 796 276 775 m 599 1283 l 754 985 l 607 985 l 435 1283 "},"ǹ":{"ha":982,"x_min":0,"x_max":0,"o":"m 511 733 b 881 413 760 733 881 615 l 881 0 l 732 0 l 732 413 b 511 592 732 528 665 592 l 271 592 b 253 571 258 592 253 585 l 253 0 l 106 0 l 106 619 b 208 733 106 706 135 733 m 476 1079 l 632 781 l 485 781 l 313 1079 "},"Ș":{"ha":976,"x_min":0,"x_max":0,"o":"m 838 938 l 838 774 l 357 774 b 235 663 272 774 235 728 b 374 551 235 606 264 551 l 593 551 b 908 275 849 551 908 410 b 610 0 908 117 824 0 l 88 0 l 88 164 l 615 164 b 744 281 704 164 744 213 b 597 397 744 342 713 397 l 379 397 b 71 668 129 397 71 538 b 363 938 71 824 154 938 m 569 -33 l 569 -182 b 400 -367 569 -306 515 -367 l 354 -367 l 354 -256 l 371 -256 b 422 -197 407 -256 422 -237 l 422 -33 "},"ș":{"ha":814,"x_min":0,"x_max":0,"o":"m 717 733 l 717 592 l 311 592 b 215 508 243 592 215 564 b 319 429 215 457 238 429 l 492 429 b 746 222 694 429 746 336 b 506 0 746 92 678 0 l 79 0 l 79 143 l 506 143 b 601 224 574 143 601 167 b 497 306 601 282 571 306 l 324 306 b 71 519 121 306 71 407 b 310 733 71 651 139 733 m 493 -33 l 493 -182 b 324 -367 493 -306 439 -367 l 278 -367 l 278 -256 l 294 -256 b 346 -197 331 -256 346 -237 l 346 -33 "},"Ț":{"ha":793,"x_min":0,"x_max":0,"o":"m 753 938 l 753 774 l 479 774 l 479 0 l 314 0 l 314 774 l 40 774 l 40 938 m 471 -33 l 471 -182 b 301 -367 471 -306 417 -367 l 256 -367 l 256 -256 l 272 -256 b 324 -197 308 -256 324 -237 l 324 -33 "},"ț":{"ha":521,"x_min":0,"x_max":0,"o":"m 132 733 l 132 907 l 281 907 l 281 733 l 483 733 l 483 592 l 281 592 l 281 244 b 379 135 281 163 310 135 l 481 135 l 481 0 l 349 0 b 132 253 197 0 132 61 l 132 592 l 32 592 l 32 733 m 361 -33 l 361 -182 b 192 -367 361 -306 307 -367 l 146 -367 l 146 -256 l 163 -256 b 214 -197 199 -256 214 -237 l 214 -33 "},"ȷ":{"ha":375,"x_min":0,"x_max":0,"o":"m 269 733 l 269 -42 b 54 -294 269 -233 204 -294 l -75 -294 l -75 -153 l 21 -153 b 121 -43 93 -153 121 -125 l 121 733 "},"Ɂ":{"ha":701,"x_min":0,"x_max":0,"o":"m 382 1051 b 646 813 569 1051 646 954 b 424 572 646 682 579 572 l 393 572 b 314 493 332 572 314 540 l 314 0 l 165 0 l 165 524 b 333 700 165 638 207 700 l 396 700 b 499 807 467 700 499 747 b 381 910 499 869 464 910 l 47 910 l 47 1051 "},"ɂ":{"ha":701,"x_min":0,"x_max":0,"o":"m 382 733 b 646 496 569 733 646 638 b 424 256 646 365 579 256 l 393 256 b 314 175 332 256 314 224 l 314 0 l 165 0 l 165 207 b 333 383 165 321 207 383 l 396 383 b 499 490 467 383 499 429 b 381 592 499 551 464 592 l 47 592 l 47 733 "},"Ɍ":{"ha":1065,"x_min":0,"x_max":0,"o":"m 693 938 b 994 657 904 938 994 807 b 796 375 994 540 939 415 l 1014 0 l 832 0 l 618 363 l 350 363 l 350 0 l 186 0 l 186 363 l 11 363 l 11 519 l 699 519 b 829 650 792 519 829 583 b 699 774 829 717 789 774 l 185 774 l 185 938 "},"ɍ":{"ha":706,"x_min":0,"x_max":0,"o":"m 167 400 l 167 519 b 365 733 167 667 221 733 l 667 733 l 667 592 l 408 592 b 314 497 343 592 314 561 l 314 400 l 668 400 l 668 276 l 314 276 l 314 0 l 167 0 l 167 276 l 31 276 l 31 400 "},"ɓ":{"ha":965,"x_min":0,"x_max":0,"o":"m 106 783 b 326 1050 106 981 178 1050 l 465 1050 l 465 915 l 358 915 b 253 792 288 915 253 881 l 253 733 l 578 733 b 894 367 772 733 894 614 b 578 0 894 119 772 0 l 375 0 b 106 314 199 0 106 103 m 253 592 l 253 321 b 418 143 253 196 299 143 l 563 143 b 746 367 690 143 746 208 b 563 592 746 525 690 592 "},"ɗ":{"ha":1072,"x_min":0,"x_max":0,"o":"m 713 785 b 933 1051 713 982 785 1051 l 1072 1051 l 1072 917 l 965 917 b 861 793 894 917 861 882 l 861 314 b 592 0 861 103 767 0 l 389 0 b 71 367 193 0 71 119 b 389 733 71 614 193 733 l 713 733 m 549 143 b 713 321 667 143 713 196 l 713 592 l 403 592 b 219 367 276 592 219 525 b 403 143 219 208 276 143 l 549 143 "},"ɣ":{"ha":940,"x_min":0,"x_max":0,"o":"m 199 733 l 469 286 l 740 733 l 914 733 l 542 165 b 697 -196 679 -67 697 -146 b 504 -367 697 -307 633 -367 l 433 -367 b 240 -197 306 -367 240 -307 b 396 164 240 -146 257 -69 l 25 733 m 468 51 b 347 -196 374 -96 347 -153 b 442 -262 347 -237 374 -262 l 496 -262 b 589 -196 564 -262 589 -237 b 468 51 589 -154 565 -97 "},"ɲ":{"ha":982,"x_min":0,"x_max":0,"o":"m 106 619 b 208 733 106 706 135 733 l 511 733 b 881 413 760 733 881 615 l 881 0 l 732 0 l 732 413 b 511 592 732 528 665 592 l 271 592 b 253 571 258 592 253 585 l 253 -42 b 38 -294 253 -233 188 -294 l -92 -294 l -92 -153 l 4 -153 b 106 -43 76 -153 106 -125 "},"ˆ":{"ha":708,"x_min":0,"x_max":0,"o":"m 200 1008 b 353 1079 226 1060 279 1079 b 503 1008 425 1079 476 1058 l 629 781 l 472 781 l 379 954 b 351 967 375 963 365 967 b 324 954 339 967 329 964 l 232 781 l 75 781 "},"ˇ":{"ha":708,"x_min":0,"x_max":0,"o":"m 232 1079 l 324 907 b 353 894 329 899 339 894 b 379 907 364 894 375 897 l 472 1079 l 629 1079 l 503 853 b 351 781 476 801 424 781 b 200 853 279 781 226 803 l 75 1079 "},"˘":{"ha":719,"x_min":0,"x_max":0,"o":"m 199 1079 l 199 1001 b 358 882 199 914 231 882 b 515 1001 485 882 515 914 l 515 1079 l 640 1079 l 640 1000 b 358 781 640 839 578 781 b 75 1000 136 781 75 839 l 75 1079 "},"˙":{"ha":303,"x_min":0,"x_max":0,"o":"m 224 1010 l 224 839 l 75 839 l 75 1010 "},"˚":{"ha":532,"x_min":0,"x_max":0,"o":"m 310 1079 b 449 919 394 1079 449 1028 b 310 760 449 813 394 760 l 214 760 b 75 919 128 760 75 813 b 214 1079 75 1028 128 1079 m 222 1008 b 151 919 172 1008 151 982 b 222 832 151 858 172 832 l 300 832 b 371 919 349 832 371 858 b 300 1008 371 982 349 1008 "},"˛":{"ha":518,"x_min":0,"x_max":0,"o":"m 322 0 l 408 0 l 275 -57 b 208 -144 235 -75 208 -100 b 304 -228 208 -194 243 -228 l 435 -228 l 435 -367 l 258 -367 b 75 -204 136 -367 75 -297 b 197 -47 75 -122 121 -78 "},"˜":{"ha":796,"x_min":0,"x_max":0,"o":"m 713 996 l 713 872 l 75 872 l 75 996 "},"˝":{"ha":782,"x_min":0,"x_max":0,"o":"m 658 1079 l 485 781 l 339 781 l 494 1079 m 354 1079 l 181 781 l 35 781 l 190 1079 "},"̀":{"ha":31,"x_min":0,"x_max":0,"o":"m -511 1079 l -356 781 l -503 781 l -675 1079 "},"́":{"ha":31,"x_min":0,"x_max":0,"o":"m -326 1079 l -500 781 l -646 781 l -490 1079 "},"̂":{"ha":31,"x_min":0,"x_max":0,"o":"m -644 1008 b -492 1079 -618 1060 -565 1079 b -342 1008 -419 1079 -368 1058 l -215 781 l -372 781 l -465 954 b -493 967 -469 963 -479 967 b -521 954 -506 967 -515 964 l -612 781 l -769 781 "},"̃":{"ha":31,"x_min":0,"x_max":0,"o":"m -178 996 l -178 872 l -815 872 l -815 996 "},"̄":{"ha":31,"x_min":0,"x_max":0,"o":"m -171 996 l -171 872 l -808 872 l -808 996 "},"̆":{"ha":31,"x_min":0,"x_max":0,"o":"m -650 1079 l -650 1001 b -490 882 -650 914 -618 882 b -333 1001 -364 882 -333 914 l -333 1079 l -208 1079 l -208 1000 b -490 781 -208 839 -271 781 b -774 1000 -712 781 -774 839 l -774 1079 "},"̇":{"ha":31,"x_min":0,"x_max":0,"o":"m -426 1010 l -426 839 l -575 839 l -575 1010 "},"̈":{"ha":31,"x_min":0,"x_max":0,"o":"m -587 1010 l -587 839 l -736 839 l -736 1010 m -254 1010 l -254 839 l -403 839 l -403 1010 "},"̉":{"ha":31,"x_min":0,"x_max":0,"o":"m -422 1258 b -215 1074 -275 1258 -215 1185 b -389 886 -215 971 -268 886 l -418 886 b -486 818 -472 886 -486 864 l -486 781 l -589 781 l -589 842 b -447 990 -589 944 -557 990 l -411 990 b -335 1069 -358 990 -335 1025 b -424 1144 -335 1115 -361 1144 l -656 1144 l -656 1258 "},"̊":{"ha":31,"x_min":0,"x_max":0,"o":"m -447 1079 b -308 919 -362 1079 -308 1028 b -447 760 -308 813 -362 760 l -543 760 b -682 919 -629 760 -682 813 b -543 1079 -682 1028 -629 1079 m -535 1008 b -606 919 -585 1008 -606 982 b -535 832 -606 858 -585 832 l -457 832 b -386 919 -408 832 -386 858 b -457 1008 -386 982 -408 1008 "},"̋":{"ha":31,"x_min":0,"x_max":0,"o":"m -157 1079 l -331 781 l -476 781 l -321 1079 m -461 1079 l -635 781 l -781 781 l -625 1079 "},"̌":{"ha":31,"x_min":0,"x_max":0,"o":"m -612 1079 l -521 907 b -492 894 -515 899 -506 894 b -465 907 -481 894 -469 897 l -372 1079 l -215 1079 l -342 853 b -493 781 -368 801 -421 781 b -644 853 -565 781 -618 803 l -769 1079 "},"̓":{"ha":31,"x_min":0,"x_max":0,"o":"m -340 1167 l -340 1047 l -368 1047 b -422 988 -406 1047 -422 1029 l -422 781 l -581 781 l -581 971 b -400 1167 -581 1103 -524 1167 "},"̛":{"ha":213,"x_min":0,"x_max":0,"o":"m 213 976 l 213 831 b 14 592 213 650 151 592 l -222 592 l -222 733 l -18 733 b 64 829 40 733 64 757 l 64 976 "},"̣":{"ha":31,"x_min":0,"x_max":0,"o":"m -422 -106 l -422 -276 l -571 -276 l -571 -106 "},"̦":{"ha":31,"x_min":0,"x_max":0,"o":"m -408 -33 l -408 -182 b -578 -367 -408 -306 -462 -367 l -624 -367 l -624 -256 l -607 -256 b -556 -197 -571 -256 -556 -237 l -556 -33 "},"̨":{"ha":31,"x_min":0,"x_max":0,"o":"m -489 0 l -403 0 l -536 -57 b -603 -144 -576 -75 -603 -100 b -507 -228 -603 -194 -568 -228 l -376 -228 l -376 -367 l -553 -367 b -736 -204 -675 -367 -736 -297 b -614 -47 -736 -122 -690 -78 "},"̭":{"ha":31,"x_min":0,"x_max":0,"o":"m -651 -139 b -499 -68 -625 -87 -572 -68 b -349 -139 -426 -68 -375 -89 l -222 -367 l -379 -367 l -472 -193 b -500 -181 -476 -185 -486 -181 b -528 -193 -512 -181 -522 -183 l -619 -367 l -776 -367 "},"΄":{"ha":333,"x_min":0,"x_max":0,"o":"m 250 1079 l 167 781 l 35 781 l 103 1079 "},"΅":{"ha":740,"x_min":0,"x_max":0,"o":"m 478 1079 l 394 781 l 263 781 l 331 1079 m 679 1010 l 679 839 l 531 839 l 531 1010 m 210 1010 l 210 839 l 61 839 l 61 1010 "},"Ά":{"ha":1149,"x_min":0,"x_max":0,"o":"m 868 193 l 343 193 l 267 0 l 86 0 l 415 833 b 613 954 447 922 514 954 b 807 833 710 954 776 922 l 1124 0 l 942 0 m 404 349 l 810 349 l 657 754 b 611 786 649 776 633 786 b 564 754 589 786 574 776 m 299 1079 l 215 781 l 83 781 l 151 1079 "},"·":{"ha":336,"x_min":0,"x_max":0,"o":"m 247 539 l 247 350 l 89 350 l 89 539 "},"Έ":{"ha":1107,"x_min":0,"x_max":0,"o":"m 1006 938 l 1006 774 l 536 774 b 394 656 438 774 394 728 b 538 544 394 579 443 544 l 999 544 l 999 396 l 533 396 b 390 282 439 396 390 358 b 532 164 390 208 436 164 l 1007 164 l 1007 0 l 532 0 b 219 256 310 0 219 110 b 354 471 219 363 268 435 b 222 682 267 507 222 579 b 536 938 222 832 315 938 m 250 1079 l 167 781 l 35 781 l 103 1079 "},"Ή":{"ha":1211,"x_min":0,"x_max":0,"o":"m 454 938 l 454 556 l 933 556 l 933 938 l 1099 938 l 1099 0 l 933 0 l 933 392 l 454 392 l 454 0 l 290 0 l 290 938 m 250 1079 l 167 781 l 35 781 l 103 1079 "},"Ί":{"ha":565,"x_min":0,"x_max":0,"o":"m 453 938 l 453 0 l 289 0 l 289 938 m 250 1079 l 167 781 l 35 781 l 103 1079 "},"Ό":{"ha":1226,"x_min":0,"x_max":0,"o":"m 724 938 b 1147 467 996 938 1147 782 b 724 0 1147 153 997 0 l 596 0 b 172 467 322 0 172 153 b 596 938 172 782 324 938 m 596 774 b 336 467 415 774 336 682 b 596 164 336 253 414 164 l 724 164 b 982 468 904 164 982 253 b 724 774 982 682 904 774 m 250 1079 l 167 781 l 35 781 l 103 1079 "},"Ύ":{"ha":1217,"x_min":0,"x_max":0,"o":"m 476 938 l 739 536 l 1004 938 l 1199 938 l 821 404 l 821 0 l 656 0 l 656 404 l 278 938 m 250 1079 l 167 781 l 35 781 l 103 1079 "},"Ώ":{"ha":1228,"x_min":0,"x_max":0,"o":"m 797 938 b 1157 608 1019 938 1157 828 b 1013 325 1157 476 1106 388 l 890 232 b 863 192 872 218 863 206 b 900 164 863 175 872 164 l 1189 164 l 1189 0 l 924 0 b 738 165 783 0 738 64 b 813 326 738 236 760 292 l 913 408 b 992 578 965 450 992 497 b 785 774 992 704 928 774 l 567 774 b 360 578 424 774 360 704 b 440 408 360 497 386 450 l 539 326 b 614 165 592 292 614 236 b 428 0 614 64 568 0 l 164 0 l 164 164 l 453 164 b 489 192 479 164 489 175 b 461 232 489 206 479 218 l 339 325 b 194 608 246 388 194 476 b 554 938 194 828 332 938 m 250 1079 l 167 781 l 35 781 l 103 1079 "},"ΐ":{"ha":626,"x_min":0,"x_max":0,"o":"m 328 733 l 328 244 b 426 135 328 164 357 135 l 529 135 l 529 0 l 394 0 b 181 253 246 0 181 61 l 181 733 m 400 1079 l 317 781 l 185 781 l 253 1079 m 601 1010 l 601 839 l 453 839 l 453 1010 m 132 1010 l 132 839 l -17 839 l -17 1010 "},"Α":{"ha":1089,"x_min":0,"x_max":0,"o":"m 808 193 l 283 193 l 207 0 l 26 0 l 356 833 b 553 954 388 922 454 954 b 747 833 650 954 717 922 l 1064 0 l 882 0 m 344 349 l 750 349 l 597 754 b 551 786 589 776 574 786 b 504 754 529 786 514 776 "},"Β":{"ha":999,"x_min":0,"x_max":0,"o":"m 604 938 b 918 681 825 938 918 833 b 783 472 918 572 871 507 b 922 258 872 436 922 367 b 608 0 922 108 829 0 l 192 0 b 114 76 139 0 114 25 l 114 861 b 192 938 114 913 139 938 m 275 178 b 293 163 275 167 282 163 l 613 163 b 757 285 711 163 757 208 b 613 406 757 364 708 406 l 275 406 m 275 542 l 608 542 b 753 654 706 542 753 578 b 610 776 753 728 710 776 l 293 776 b 275 760 282 776 275 771 "},"Γ":{"ha":864,"x_min":0,"x_max":0,"o":"m 824 938 l 824 774 l 460 774 b 268 613 313 774 268 703 l 268 0 l 104 0 l 104 614 b 450 938 104 801 201 938 "},"Δ":{"ha":1089,"x_min":0,"x_max":0,"o":"m 265 186 b 281 164 263 172 267 164 l 814 164 b 829 186 828 164 835 172 l 596 754 b 547 786 586 776 571 786 b 500 754 524 786 510 776 m 350 833 b 547 954 383 922 450 954 b 744 833 646 954 713 922 l 1044 76 b 990 0 1061 35 1044 0 l 106 0 b 50 76 51 0 35 35 "},"Ε":{"ha":963,"x_min":0,"x_max":0,"o":"m 863 938 l 863 774 l 393 774 b 251 656 294 774 251 728 b 394 544 251 579 300 544 l 856 544 l 856 396 l 390 396 b 247 282 296 396 247 358 b 389 164 247 208 293 164 l 864 164 l 864 0 l 389 0 b 76 256 167 0 76 110 b 211 471 76 363 125 435 b 79 682 124 507 79 579 b 393 938 79 832 172 938 "},"Ζ":{"ha":1032,"x_min":0,"x_max":0,"o":"m 728 938 b 956 732 878 938 956 863 b 806 513 956 625 906 556 l 294 294 b 247 225 265 282 247 257 b 317 164 247 189 271 164 l 935 164 l 935 0 l 306 0 b 79 206 156 0 79 75 b 231 425 79 313 129 382 l 739 643 b 788 713 769 656 788 681 b 717 774 788 749 764 774 l 113 774 l 113 938 "},"Η":{"ha":1035,"x_min":0,"x_max":0,"o":"m 278 938 l 278 556 l 757 556 l 757 938 l 922 938 l 922 0 l 757 0 l 757 392 l 278 392 l 278 0 l 114 0 l 114 938 "},"Θ":{"ha":1133,"x_min":0,"x_max":0,"o":"m 764 544 l 764 396 l 368 396 l 368 544 m 631 938 b 1054 467 903 938 1054 782 b 631 0 1054 153 904 0 l 503 0 b 79 467 229 0 79 153 b 503 938 79 782 231 938 m 503 774 b 243 468 322 774 243 682 b 503 164 243 253 321 164 l 631 164 b 889 468 811 164 889 253 b 631 774 889 682 811 774 "},"Ι":{"ha":390,"x_min":0,"x_max":0,"o":"m 278 938 l 278 0 l 114 0 l 114 938 "},"Κ":{"ha":983,"x_min":0,"x_max":0,"o":"m 278 938 l 278 540 l 368 540 b 608 657 529 540 556 554 l 751 938 l 928 938 l 781 646 b 618 475 739 563 694 508 b 804 294 706 451 749 403 l 956 0 l 772 0 l 629 278 b 368 392 578 378 544 392 l 278 392 l 278 0 l 114 0 l 114 938 "},"Λ":{"ha":1089,"x_min":0,"x_max":0,"o":"m 207 0 l 26 0 l 356 833 b 553 954 390 921 454 954 b 747 833 650 954 714 921 l 1064 0 l 882 0 l 597 754 b 551 786 589 776 574 786 b 504 754 529 786 514 776 "},"Μ":{"ha":1531,"x_min":0,"x_max":0,"o":"m 275 0 l 113 0 l 113 744 b 338 954 113 869 186 954 b 574 769 471 954 547 888 l 706 196 b 768 143 714 163 733 143 b 831 196 803 143 822 163 l 963 769 b 1193 954 989 888 1058 954 b 1418 744 1344 954 1418 869 l 1418 0 l 1256 0 l 1256 736 b 1189 796 1256 772 1232 796 b 1124 746 1150 796 1131 776 l 989 172 b 767 -17 960 49 896 -17 b 540 172 636 -17 568 51 l 407 746 b 342 796 400 776 379 796 b 275 736 299 796 275 772 "},"Ν":{"ha":1221,"x_min":0,"x_max":0,"o":"m 276 0 l 113 0 l 113 750 b 328 954 113 872 182 954 b 556 781 458 954 517 888 l 829 182 b 889 143 840 160 858 143 b 944 196 924 143 944 164 l 944 938 l 1110 938 l 1110 189 b 894 -17 1110 65 1039 -17 b 665 157 764 -17 704 50 l 392 756 b 333 796 379 783 363 796 b 276 742 296 796 276 775 "},"Ξ":{"ha":940,"x_min":0,"x_max":0,"o":"m 840 164 l 840 0 l 100 0 l 100 164 m 839 938 l 839 774 l 101 774 l 101 938 m 832 544 l 832 396 l 108 396 l 108 544 "},"Ο":{"ha":1133,"x_min":0,"x_max":0,"o":"m 631 938 b 1054 467 903 938 1054 782 b 631 0 1054 153 904 0 l 503 0 b 79 467 229 0 79 153 b 503 938 79 782 231 938 m 503 774 b 243 467 322 774 243 682 b 503 164 243 253 321 164 l 631 164 b 889 468 811 164 889 253 b 631 774 889 682 811 774 "},"Π":{"ha":1035,"x_min":0,"x_max":0,"o":"m 843 938 b 922 861 896 938 922 913 l 922 0 l 757 0 l 757 757 b 740 774 757 769 751 774 l 296 774 b 278 757 283 774 278 769 l 278 0 l 114 0 l 114 861 b 192 938 114 913 139 938 "},"Ρ":{"ha":943,"x_min":0,"x_max":0,"o":"m 592 938 b 893 657 803 938 893 807 b 592 363 893 515 811 363 l 300 363 b 276 339 285 363 276 356 l 276 0 l 113 0 l 113 371 b 260 519 113 476 157 519 l 597 519 b 728 649 690 519 728 583 b 599 774 728 717 688 774 l 111 774 l 111 938 "},"Σ":{"ha":942,"x_min":0,"x_max":0,"o":"m 858 938 l 858 774 l 303 774 b 249 724 264 774 249 754 b 293 672 249 701 263 685 l 626 551 b 701 469 685 535 701 507 b 626 386 701 431 685 403 l 293 265 b 249 214 263 253 249 236 b 303 164 249 183 264 164 l 858 164 l 858 0 l 278 0 b 76 192 132 0 76 71 b 231 379 76 275 104 339 l 469 468 l 231 558 b 76 746 104 599 76 663 b 278 938 76 867 132 938 "},"Τ":{"ha":793,"x_min":0,"x_max":0,"o":"m 753 938 l 753 774 l 479 774 l 479 0 l 314 0 l 314 774 l 40 774 l 40 938 "},"Υ":{"ha":957,"x_min":0,"x_max":0,"o":"m 217 938 l 479 536 l 744 938 l 939 938 l 561 404 l 561 0 l 396 0 l 396 404 l 18 938 "},"Φ":{"ha":1181,"x_min":0,"x_max":0,"o":"m 508 832 l 508 938 l 672 938 l 672 832 l 725 832 b 1101 467 967 832 1101 718 b 725 107 1101 217 968 107 l 672 107 l 672 0 l 508 0 l 508 107 l 457 107 b 79 467 213 107 79 217 b 457 832 79 718 214 832 m 672 657 l 672 282 l 725 282 b 938 468 872 282 938 333 b 725 657 938 603 871 657 m 508 282 l 508 657 l 457 657 b 243 468 310 657 243 603 b 457 282 243 333 308 282 "},"Χ":{"ha":1085,"x_min":0,"x_max":0,"o":"m 265 938 l 553 592 l 854 938 l 1057 938 l 656 476 l 1060 0 l 860 0 l 549 372 l 229 0 l 26 0 l 446 489 l 65 938 "},"Ψ":{"ha":1190,"x_min":0,"x_max":0,"o":"m 676 938 l 676 374 l 757 374 b 926 536 872 374 926 432 l 926 938 l 1088 938 l 1088 531 b 769 218 1088 325 978 218 l 676 218 l 676 0 l 513 0 l 513 218 l 421 218 b 103 531 211 218 103 325 l 103 938 l 269 938 l 269 536 b 439 374 269 432 324 374 l 513 374 l 513 938 "},"Ω":{"ha":1104,"x_min":0,"x_max":0,"o":"m 674 938 b 1033 608 896 938 1033 828 b 889 325 1033 476 982 388 l 767 232 b 739 192 749 218 739 206 b 776 164 739 175 749 164 l 1065 164 l 1065 0 l 800 0 b 614 165 660 0 614 64 b 689 326 614 236 636 292 l 789 408 b 868 578 842 450 868 497 b 661 774 868 704 804 774 l 443 774 b 236 578 300 774 236 704 b 317 408 236 497 263 450 l 415 326 b 490 165 468 292 490 236 b 304 0 490 64 444 0 l 40 0 l 40 164 l 329 164 b 365 192 356 164 365 175 b 338 232 365 206 356 218 l 215 325 b 71 608 122 388 71 476 b 431 938 71 828 208 938 "},"Ϊ":{"ha":408,"x_min":0,"x_max":0,"o":"m 292 938 l 292 0 l 128 0 l 128 938 m 113 1214 l 113 1043 l -36 1043 l -36 1214 m 446 1214 l 446 1043 l 297 1043 l 297 1214 "},"Ϋ":{"ha":957,"x_min":0,"x_max":0,"o":"m 217 938 l 479 536 l 744 938 l 939 938 l 561 404 l 561 0 l 396 0 l 396 404 l 18 938 m 385 1214 l 385 1043 l 236 1043 l 236 1214 m 718 1214 l 718 1043 l 569 1043 l 569 1214 "},"ά":{"ha":1024,"x_min":0,"x_max":0,"o":"m 475 733 b 765 575 625 733 708 679 l 822 733 l 976 733 l 847 367 l 976 0 l 822 0 l 765 158 b 475 0 708 54 625 0 l 389 0 b 71 367 193 0 71 119 b 389 733 71 615 193 733 m 461 143 b 671 314 588 143 625 183 l 689 367 l 671 419 b 461 592 625 550 588 592 l 403 592 b 219 367 275 592 219 525 b 403 143 219 208 275 143 l 461 143 m 585 1079 l 501 781 l 369 781 l 438 1079 "},"έ":{"ha":878,"x_min":0,"x_max":0,"o":"m 588 1079 l 504 781 l 372 781 l 440 1079 m 788 733 l 788 593 l 347 593 b 235 507 261 593 235 560 b 347 422 235 450 263 422 l 618 422 l 618 313 l 344 313 b 232 228 260 313 232 285 b 343 142 232 172 258 142 l 788 142 l 788 0 l 333 0 b 81 196 147 0 81 88 b 183 367 81 283 115 338 b 83 539 115 397 83 453 b 338 733 83 649 151 733 "},"ή":{"ha":982,"x_min":0,"x_max":0,"o":"m 511 733 b 881 413 760 733 881 615 l 881 -294 l 732 -294 l 732 413 b 511 592 732 528 665 592 l 271 592 b 253 571 258 592 253 585 l 253 0 l 106 0 l 106 619 b 208 733 106 706 135 733 m 590 1079 l 507 781 l 375 781 l 443 1079 "},"ί":{"ha":490,"x_min":0,"x_max":0,"o":"m 249 733 l 249 244 b 347 135 249 164 278 135 l 450 135 l 450 0 l 315 0 b 101 253 167 0 101 61 l 101 733 m 332 1079 l 249 781 l 117 781 l 185 1079 "},"ΰ":{"ha":975,"x_min":0,"x_max":0,"o":"m 250 733 l 250 294 b 431 143 250 208 314 143 l 550 143 b 729 294 667 143 729 208 l 729 733 l 874 733 l 874 289 b 556 0 874 119 765 0 l 419 0 b 101 289 210 0 101 119 l 101 733 m 594 1079 l 511 781 l 379 781 l 447 1079 m 796 1010 l 796 839 l 647 839 l 647 1010 m 326 1010 l 326 839 l 178 839 l 178 1010 "},"α":{"ha":1024,"x_min":0,"x_max":0,"o":"m 475 733 b 765 575 625 733 708 679 l 822 733 l 976 733 l 847 367 l 976 0 l 822 0 l 765 158 b 475 0 708 54 625 0 l 389 0 b 71 367 193 0 71 119 b 389 733 71 615 193 733 m 461 143 b 671 314 588 143 625 183 l 689 367 l 671 419 b 461 592 625 550 588 592 l 403 592 b 219 367 275 592 219 525 b 403 143 219 208 275 143 l 461 143 "},"β":{"ha":922,"x_min":0,"x_max":0,"o":"m 554 1051 b 804 792 733 1051 804 950 b 689 565 804 686 769 607 b 829 321 783 532 829 458 b 513 0 829 99 707 0 l 253 0 l 253 -294 l 106 -294 l 106 775 b 342 1051 106 985 178 1051 m 253 143 l 488 143 b 681 343 619 143 681 203 b 531 496 681 453 639 496 l 403 496 l 403 626 l 533 626 b 656 761 621 626 656 668 b 539 917 656 868 621 917 l 374 917 b 253 783 288 917 253 883 "},"γ":{"ha":940,"x_min":0,"x_max":0,"o":"m 183 733 l 469 121 l 756 733 l 914 733 l 544 -25 l 544 -294 l 396 -294 l 396 -25 l 26 733 "},"δ":{"ha":888,"x_min":0,"x_max":0,"o":"m 760 1051 l 760 910 l 376 910 b 292 821 317 910 292 867 b 385 733 292 775 315 733 l 546 733 b 817 386 739 733 817 615 b 500 0 817 118 711 0 l 389 0 b 71 347 193 0 71 131 b 236 651 71 508 138 600 b 147 833 169 690 147 760 b 375 1051 147 958 213 1051 m 390 618 b 346 619 375 618 360 618 b 219 367 265 567 219 492 b 403 143 219 238 276 143 l 485 143 b 668 394 618 143 668 208 b 521 618 668 551 632 618 l 390 618 "},"ε":{"ha":878,"x_min":0,"x_max":0,"o":"m 788 733 l 788 593 l 347 593 b 235 507 261 593 235 560 b 347 422 235 450 263 422 l 618 422 l 618 313 l 344 313 b 232 228 260 313 232 285 b 343 142 232 172 258 142 l 788 142 l 788 0 l 333 0 b 81 196 147 0 81 88 b 183 367 81 283 115 338 b 83 539 115 397 83 453 b 338 733 83 649 151 733 "},"ζ":{"ha":835,"x_min":0,"x_max":0,"o":"m 608 1051 b 782 889 724 1051 782 989 b 690 726 782 819 753 771 l 331 472 b 219 297 243 410 219 369 b 397 143 219 192 276 143 l 590 143 b 761 -19 703 143 761 93 l 761 -294 l 613 -294 l 613 -61 b 551 0 613 -19 599 0 l 389 0 b 71 303 193 0 71 92 b 250 581 71 411 103 482 l 614 829 b 642 874 633 843 642 857 b 600 910 642 897 628 910 l 81 910 l 81 1051 "},"η":{"ha":982,"x_min":0,"x_max":0,"o":"m 511 733 b 881 413 760 733 881 615 l 881 -294 l 732 -294 l 732 413 b 511 592 732 528 665 592 l 271 592 b 253 571 258 592 253 585 l 253 0 l 106 0 l 106 619 b 208 733 106 706 135 733 "},"θ":{"ha":992,"x_min":0,"x_max":0,"o":"m 574 1051 b 890 685 768 1051 890 931 l 890 365 b 574 0 890 119 768 0 l 418 0 b 101 365 224 0 101 119 l 101 685 b 418 1051 101 931 224 1051 m 249 365 b 433 143 249 208 306 143 l 558 143 b 742 365 686 143 742 208 l 742 464 l 249 464 m 249 597 l 742 597 l 742 685 b 558 908 742 842 686 908 l 433 908 b 249 685 306 908 249 842 "},"ι":{"ha":490,"x_min":0,"x_max":0,"o":"m 249 733 l 249 244 b 347 135 249 164 278 135 l 450 135 l 450 0 l 315 0 b 101 253 167 0 101 61 l 101 733 "},"κ":{"ha":836,"x_min":0,"x_max":0,"o":"m 253 733 l 253 429 l 321 429 b 504 513 438 429 454 439 l 626 733 l 786 733 l 658 503 b 528 372 621 440 588 397 b 678 231 596 353 631 311 l 810 0 l 644 0 l 522 217 b 321 306 474 290 450 306 l 253 306 l 253 0 l 106 0 l 106 733 "},"λ":{"ha":899,"x_min":0,"x_max":0,"o":"m 419 1051 l 872 0 l 715 0 l 465 578 l 447 578 b 403 547 422 578 411 569 l 182 0 l 26 0 l 272 619 b 404 708 296 683 326 708 l 408 708 l 261 1051 "},"μ":{"ha":1063,"x_min":0,"x_max":0,"o":"m 253 733 l 253 143 l 492 143 b 678 217 607 143 658 161 b 676 253 676 228 676 240 l 676 733 l 825 733 l 825 244 b 922 135 825 164 853 135 l 1025 135 l 1025 0 l 890 0 b 718 65 808 0 753 17 b 490 0 672 24 600 0 l 253 0 l 253 -294 l 106 -294 l 106 733 "},"ν":{"ha":940,"x_min":0,"x_max":0,"o":"m 182 733 l 426 144 b 463 122 432 129 444 122 b 501 144 482 122 494 129 l 756 733 l 914 733 l 631 79 b 463 -17 600 10 546 -17 b 296 79 378 -17 324 11 l 26 733 "},"ξ":{"ha":814,"x_min":0,"x_max":0,"o":"m 699 1051 l 699 910 l 393 910 b 253 778 286 910 253 867 b 385 644 253 690 286 644 l 694 644 l 694 524 l 397 524 b 219 340 275 524 219 476 b 403 143 219 208 281 143 l 590 143 b 761 -19 703 143 761 93 l 761 -294 l 613 -294 l 613 -61 b 551 0 613 -19 599 0 l 389 0 b 71 322 176 0 71 121 b 221 589 71 472 128 553 b 103 807 142 624 103 693 b 371 1051 103 964 178 1051 "},"ο":{"ha":932,"x_min":0,"x_max":0,"o":"m 543 733 b 861 367 738 733 861 614 b 543 0 861 119 738 0 l 389 0 b 71 367 193 0 71 119 b 389 733 71 614 193 733 m 403 592 b 219 367 275 592 219 525 b 403 143 219 208 275 143 l 529 143 b 713 367 656 143 713 208 b 529 592 713 525 656 592 "},"π":{"ha":1051,"x_min":0,"x_max":0,"o":"m 1014 733 l 1014 592 l 817 592 l 817 244 b 914 135 817 164 846 135 l 1017 135 l 1017 0 l 882 0 b 668 253 733 0 668 61 l 668 592 l 336 592 l 336 0 l 188 0 l 188 592 l 32 592 l 32 733 "},"ρ":{"ha":963,"x_min":0,"x_max":0,"o":"m 575 733 b 892 367 769 733 892 614 b 575 0 892 119 769 0 l 250 0 l 250 -294 l 103 -294 l 103 419 b 372 733 103 631 196 733 m 250 143 l 560 143 b 743 367 688 143 743 208 b 560 592 743 525 688 592 l 415 592 b 250 413 296 592 250 539 "},"ς":{"ha":819,"x_min":0,"x_max":0,"o":"m 735 733 l 735 592 l 403 592 b 219 369 275 592 219 524 b 403 143 219 213 279 143 l 590 143 b 761 -19 703 143 761 93 l 761 -294 l 613 -294 l 613 -61 b 551 0 613 -19 599 0 l 389 0 b 71 367 193 0 71 121 b 389 733 71 613 193 733 "},"σ":{"ha":1000,"x_min":0,"x_max":0,"o":"m 947 733 l 947 592 l 783 592 b 844 364 818 544 844 474 b 526 0 844 121 722 0 l 389 0 b 71 367 193 0 71 119 b 389 733 71 614 193 733 m 696 363 b 635 592 696 475 669 544 l 403 592 b 219 367 275 592 219 525 b 403 143 219 208 275 143 l 513 143 b 696 363 639 143 696 210 "},"τ":{"ha":826,"x_min":0,"x_max":0,"o":"m 775 733 l 775 592 l 478 592 l 478 244 b 575 135 478 164 506 135 l 678 135 l 678 0 l 543 0 b 329 253 394 0 329 61 l 329 592 l 40 592 l 40 733 "},"υ":{"ha":975,"x_min":0,"x_max":0,"o":"m 250 733 l 250 294 b 431 143 250 208 314 143 l 550 143 b 729 294 667 143 729 208 l 729 733 l 874 733 l 874 289 b 556 0 874 119 765 0 l 419 0 b 101 289 210 0 101 119 l 101 733 "},"φ":{"ha":1115,"x_min":0,"x_max":0,"o":"m 632 1018 l 632 733 l 728 733 b 1044 365 922 733 1044 614 b 728 0 1044 119 922 0 l 632 0 l 632 -285 l 483 -285 l 483 0 l 389 0 b 71 365 193 0 71 119 b 389 733 71 614 193 733 l 483 733 l 483 1018 m 632 592 l 632 143 l 713 143 b 896 365 840 143 896 208 b 713 592 896 525 840 592 m 483 143 l 483 592 l 403 592 b 219 365 275 592 219 525 b 403 143 219 208 275 143 "},"χ":{"ha":925,"x_min":0,"x_max":0,"o":"m 224 733 l 469 358 l 724 733 l 894 733 l 558 222 l 899 -294 l 725 -294 l 463 104 l 196 -294 l 26 -294 l 374 240 l 50 733 "},"ψ":{"ha":1106,"x_min":0,"x_max":0,"o":"m 619 879 l 619 143 l 681 143 b 858 294 797 143 858 208 l 858 733 l 1004 733 l 1004 289 b 686 0 1004 119 896 0 l 619 0 l 619 -294 l 472 -294 l 472 0 l 419 0 b 101 289 210 0 101 119 l 101 733 l 250 733 l 250 294 b 431 143 250 208 314 143 l 472 143 l 472 879 "},"ω":{"ha":1307,"x_min":0,"x_max":0,"o":"m 250 733 l 250 282 b 383 143 250 203 290 143 l 450 143 b 578 282 544 143 578 203 l 578 560 l 728 560 l 728 282 b 856 143 728 203 763 143 l 924 143 b 1056 282 1015 143 1056 203 l 1056 733 l 1206 733 l 1206 289 b 938 0 1206 119 1104 0 l 861 0 b 653 114 757 0 689 42 b 446 0 615 42 549 0 l 368 0 b 101 289 201 0 101 119 l 101 733 "},"ϊ":{"ha":533,"x_min":0,"x_max":0,"o":"m 293 733 l 293 244 b 392 135 293 164 322 135 l 494 135 l 494 0 l 360 0 b 146 253 211 0 146 61 l 146 733 m 132 1010 l 132 839 l -17 839 l -17 1010 m 465 1010 l 465 839 l 317 839 l 317 1010 "},"ϋ":{"ha":975,"x_min":0,"x_max":0,"o":"m 250 733 l 250 294 b 431 143 250 208 314 143 l 550 143 b 729 294 667 143 729 208 l 729 733 l 874 733 l 874 289 b 556 0 874 119 765 0 l 419 0 b 101 289 210 0 101 119 l 101 733 m 394 1010 l 394 839 l 246 839 l 246 1010 m 728 1010 l 728 839 l 579 839 l 579 1010 "},"ό":{"ha":932,"x_min":0,"x_max":0,"o":"m 543 733 b 861 367 738 733 861 614 b 543 0 861 119 738 0 l 389 0 b 71 367 193 0 71 119 b 389 733 71 614 193 733 m 403 592 b 219 367 275 592 219 525 b 403 143 219 208 275 143 l 529 143 b 713 367 656 143 713 208 b 529 592 713 525 656 592 m 589 1079 l 506 781 l 374 781 l 442 1079 "},"ύ":{"ha":975,"x_min":0,"x_max":0,"o":"m 250 733 l 250 294 b 431 143 250 208 314 143 l 550 143 b 729 294 667 143 729 208 l 729 733 l 874 733 l 874 289 b 556 0 874 119 765 0 l 419 0 b 101 289 210 0 101 119 l 101 733 m 624 1079 l 540 781 l 408 781 l 476 1079 "},"ώ":{"ha":1307,"x_min":0,"x_max":0,"o":"m 250 733 l 250 282 b 383 143 250 203 290 143 l 450 143 b 578 282 544 143 578 203 l 578 560 l 728 560 l 728 282 b 856 143 728 203 763 143 l 924 143 b 1056 282 1015 143 1056 203 l 1056 733 l 1206 733 l 1206 289 b 938 0 1206 119 1104 0 l 861 0 b 653 114 757 0 689 42 b 446 0 615 42 549 0 l 368 0 b 101 289 201 0 101 119 l 101 733 m 782 1079 l 699 781 l 567 781 l 635 1079 "},"Ѐ":{"ha":963,"x_min":0,"x_max":0,"o":"m 863 938 l 863 774 l 393 774 b 251 656 294 774 251 728 b 394 544 251 579 300 544 l 856 544 l 856 396 l 390 396 b 247 282 296 396 247 358 b 389 164 247 208 293 164 l 864 164 l 864 0 l 389 0 b 76 256 167 0 76 110 b 211 471 76 363 125 435 b 79 682 124 507 79 579 b 393 938 79 832 172 938 m 518 1283 l 674 985 l 526 985 l 354 1283 "},"Ё":{"ha":963,"x_min":0,"x_max":0,"o":"m 863 938 l 863 774 l 393 774 b 251 656 294 774 251 728 b 394 544 251 579 300 544 l 856 544 l 856 396 l 390 396 b 247 282 296 396 247 358 b 389 164 247 208 293 164 l 864 164 l 864 0 l 389 0 b 76 256 167 0 76 110 b 211 471 76 363 125 435 b 79 682 124 507 79 579 b 393 938 79 832 172 938 m 436 1214 l 436 1043 l 288 1043 l 288 1214 m 769 1214 l 769 1043 l 621 1043 l 621 1214 "},"Ђ":{"ha":1133,"x_min":0,"x_max":0,"o":"m 835 938 l 835 774 l 456 774 l 456 588 l 710 588 b 1028 274 919 588 1028 479 l 1028 86 b 711 -294 1028 -171 906 -294 l 558 -294 l 558 -151 l 678 -151 b 861 86 804 -151 861 -82 l 861 261 b 692 424 861 364 807 424 l 456 424 l 456 0 l 292 0 l 292 774 l 40 774 l 40 938 "},"Ѓ":{"ha":864,"x_min":0,"x_max":0,"o":"m 699 1283 l 525 985 l 379 985 l 535 1283 m 824 938 l 824 774 l 460 774 b 268 613 313 774 268 703 l 268 0 l 104 0 l 104 614 b 450 938 104 801 201 938 "},"Є":{"ha":947,"x_min":0,"x_max":0,"o":"m 864 938 l 864 774 l 501 774 b 246 544 343 774 264 704 l 729 544 l 729 396 l 246 396 b 501 164 264 233 343 164 l 864 164 l 864 0 l 501 0 b 79 468 228 0 79 154 b 501 938 79 783 229 938 "},"Ѕ":{"ha":976,"x_min":0,"x_max":0,"o":"m 838 938 l 838 774 l 357 774 b 235 663 272 774 235 728 b 374 551 235 606 264 551 l 593 551 b 908 275 849 551 908 410 b 610 0 908 117 824 0 l 88 0 l 88 164 l 615 164 b 744 281 704 164 744 213 b 597 397 744 342 713 397 l 379 397 b 71 668 129 397 71 538 b 363 938 71 824 154 938 "},"І":{"ha":390,"x_min":0,"x_max":0,"o":"m 278 938 l 278 0 l 114 0 l 114 938 "},"Ї":{"ha":442,"x_min":0,"x_max":0,"o":"m 308 938 l 308 0 l 144 0 l 144 938 m 128 1214 l 128 1043 l -21 1043 l -21 1214 m 461 1214 l 461 1043 l 313 1043 l 313 1214 "},"Ј":{"ha":810,"x_min":0,"x_max":0,"o":"m 706 938 l 706 324 b 358 0 706 136 607 0 l 40 0 l 40 164 l 349 164 b 540 325 496 164 540 235 l 540 938 "},"Љ":{"ha":1531,"x_min":0,"x_max":0,"o":"m 685 746 b 635 796 685 776 667 796 b 585 760 613 796 597 786 l 372 279 b 71 0 282 75 239 0 l 40 0 l 40 164 l 74 164 b 226 331 138 164 160 185 l 432 785 b 639 954 479 890 514 954 b 849 754 781 954 849 874 l 849 599 b 872 575 849 582 857 575 l 1164 575 b 1465 281 1383 575 1465 424 b 1164 0 1465 131 1375 0 l 683 0 l 683 164 l 1171 164 b 1300 289 1260 164 1300 221 b 1169 418 1300 354 1263 418 l 832 418 b 685 567 729 418 685 461 "},"Њ":{"ha":1540,"x_min":0,"x_max":0,"o":"m 278 938 l 278 576 l 726 576 l 726 938 l 892 938 l 892 576 l 1190 576 b 1490 281 1410 576 1490 424 b 1190 0 1490 131 1401 0 l 725 0 l 725 164 l 1196 164 b 1326 289 1286 164 1326 221 b 1194 418 1326 354 1288 418 l 278 418 l 278 0 l 114 0 l 114 938 "},"Ћ":{"ha":1133,"x_min":0,"x_max":0,"o":"m 835 938 l 835 774 l 456 774 l 456 588 l 710 588 b 1028 274 919 588 1028 479 l 1028 0 l 861 0 l 861 261 b 692 424 861 365 807 424 l 456 424 l 456 0 l 292 0 l 292 774 l 40 774 l 40 938 "},"Ќ":{"ha":983,"x_min":0,"x_max":0,"o":"m 278 938 l 278 540 l 368 540 b 608 657 529 540 556 554 l 751 938 l 928 938 l 781 646 b 618 475 739 563 694 508 b 804 294 706 451 749 403 l 956 0 l 772 0 l 629 278 b 368 392 578 378 544 392 l 278 392 l 278 0 l 114 0 l 114 938 m 628 1283 l 454 985 l 308 985 l 464 1283 "},"Ѝ":{"ha":1221,"x_min":0,"x_max":0,"o":"m 575 1283 l 731 985 l 583 985 l 411 1283 m 276 938 l 276 196 b 332 143 276 164 297 143 b 392 182 363 143 381 160 l 665 781 b 893 954 704 888 763 954 b 1110 750 1039 954 1110 872 l 1110 0 l 944 0 l 944 742 b 890 796 944 775 924 796 b 829 756 858 796 840 779 l 556 157 b 328 -17 517 50 457 -17 b 113 189 182 -17 113 65 l 113 938 "},"Ў":{"ha":1014,"x_min":0,"x_max":0,"o":"m 319 1283 l 319 1206 b 479 1086 319 1118 351 1086 b 636 1206 606 1086 636 1118 l 636 1283 l 761 1283 l 761 1204 b 479 985 761 1043 699 985 b 196 1204 257 985 196 1043 l 196 1283 m 203 938 l 499 415 l 810 938 l 996 938 l 554 186 b 235 0 472 43 408 0 l 103 0 l 103 164 l 263 164 b 393 238 329 164 356 178 l 408 263 l 18 938 "},"Џ":{"ha":1035,"x_min":0,"x_max":0,"o":"m 590 0 l 590 -294 l 443 -294 l 443 0 l 192 0 b 113 76 139 0 113 25 l 113 938 l 278 938 l 278 181 b 294 164 278 168 283 164 l 739 164 b 757 181 751 164 757 168 l 757 938 l 921 938 l 921 76 b 843 0 921 25 896 0 "},"А":{"ha":1089,"x_min":0,"x_max":0,"o":"m 808 193 l 283 193 l 207 0 l 26 0 l 356 833 b 553 954 388 922 454 954 b 747 833 650 954 717 922 l 1064 0 l 882 0 m 344 349 l 750 349 l 597 754 b 551 786 589 776 574 786 b 504 754 529 786 514 776 "},"Б":{"ha":943,"x_min":0,"x_max":0,"o":"m 703 938 l 703 774 l 319 774 b 276 732 285 774 276 751 l 276 599 b 300 575 276 582 285 575 l 592 575 b 893 281 811 575 893 424 b 592 0 893 131 803 0 l 111 0 l 111 164 l 599 164 b 728 289 688 164 728 221 b 597 418 728 354 690 418 l 260 418 b 113 567 157 418 113 461 l 113 853 b 208 938 113 903 143 938 "},"В":{"ha":999,"x_min":0,"x_max":0,"o":"m 604 938 b 918 681 825 938 918 833 b 783 472 918 572 871 507 b 922 258 872 436 922 367 b 608 0 922 108 829 0 l 192 0 b 114 76 139 0 114 25 l 114 861 b 192 938 114 913 139 938 m 275 178 b 293 163 275 167 282 163 l 613 163 b 757 285 711 163 757 208 b 613 406 757 364 708 406 l 275 406 m 275 542 l 608 542 b 753 654 706 542 753 578 b 610 776 753 728 710 776 l 293 776 b 275 760 282 776 275 771 "},"Г":{"ha":864,"x_min":0,"x_max":0,"o":"m 824 938 l 824 774 l 460 774 b 268 613 313 774 268 703 l 268 0 l 104 0 l 104 614 b 450 938 104 801 201 938 "},"Д":{"ha":1149,"x_min":0,"x_max":0,"o":"m 500 785 b 707 954 547 890 582 954 b 917 754 849 954 917 874 l 917 164 l 1108 164 l 1108 -294 l 961 -294 l 961 0 l 188 0 l 188 -294 l 40 -294 l 40 164 l 142 164 b 294 331 206 164 228 185 m 751 164 l 751 746 b 703 796 751 776 735 796 b 653 760 681 796 665 786 l 440 279 b 386 164 421 235 403 196 "},"Е":{"ha":963,"x_min":0,"x_max":0,"o":"m 863 938 l 863 774 l 393 774 b 251 656 294 774 251 728 b 394 544 251 579 300 544 l 856 544 l 856 396 l 390 396 b 247 282 296 396 247 358 b 389 164 247 208 293 164 l 864 164 l 864 0 l 389 0 b 76 256 167 0 76 110 b 211 471 76 363 125 435 b 79 682 124 507 79 579 b 393 938 79 832 172 938 "},"Ж":{"ha":1575,"x_min":0,"x_max":0,"o":"m 869 938 l 869 540 l 960 540 b 1200 657 1121 540 1147 554 l 1343 938 l 1519 938 l 1372 646 b 1210 475 1331 563 1286 508 b 1396 294 1297 451 1340 403 l 1547 0 l 1364 0 l 1221 278 b 960 392 1169 378 1136 392 l 869 392 l 869 0 l 706 0 l 706 392 l 614 392 b 354 278 438 392 411 375 l 211 0 l 28 0 l 179 294 b 365 475 236 401 276 451 b 203 646 288 508 247 564 l 54 938 l 232 938 l 375 657 b 614 540 433 558 453 540 l 706 540 l 706 938 "},"З":{"ha":946,"x_min":0,"x_max":0,"o":"m 551 938 b 865 686 772 938 865 831 b 732 471 865 575 818 507 b 868 251 821 433 868 364 b 556 0 868 111 776 0 l 82 0 l 82 164 l 556 164 b 697 283 651 164 697 208 b 554 396 697 358 649 396 l 265 396 l 265 544 l 550 544 b 693 657 646 544 693 579 b 551 774 693 728 650 774 l 83 774 l 83 938 "},"И":{"ha":1221,"x_min":0,"x_max":0,"o":"m 276 938 l 276 196 b 332 143 276 164 297 143 b 392 182 363 143 381 160 l 665 781 b 893 954 704 888 763 954 b 1110 750 1039 954 1110 872 l 1110 0 l 944 0 l 944 742 b 890 796 944 775 924 796 b 829 756 858 796 840 779 l 556 157 b 328 -17 517 50 457 -17 b 113 189 182 -17 113 65 l 113 938 "},"Й":{"ha":1221,"x_min":0,"x_max":0,"o":"m 446 1283 l 446 1206 b 606 1086 446 1118 478 1086 b 763 1206 732 1086 763 1118 l 763 1283 l 888 1283 l 888 1204 b 606 985 888 1043 825 985 b 322 1204 383 985 322 1043 l 322 1283 m 276 938 l 276 196 b 332 143 276 164 297 143 b 392 182 363 143 381 160 l 665 781 b 893 954 704 888 763 954 b 1110 750 1039 954 1110 872 l 1110 0 l 944 0 l 944 742 b 890 796 944 775 924 796 b 829 756 858 796 840 779 l 556 157 b 328 -17 517 50 457 -17 b 113 189 182 -17 113 65 l 113 938 "},"К":{"ha":983,"x_min":0,"x_max":0,"o":"m 278 938 l 278 540 l 368 540 b 608 657 529 540 556 554 l 751 938 l 928 938 l 781 646 b 618 475 739 563 694 508 b 804 294 706 451 749 403 l 956 0 l 772 0 l 629 278 b 368 392 578 378 544 392 l 278 392 l 278 0 l 114 0 l 114 938 "},"Л":{"ha":961,"x_min":0,"x_max":0,"o":"m 432 785 b 639 954 479 890 514 954 b 849 754 781 954 849 874 l 849 0 l 683 0 l 683 746 b 635 796 683 776 667 796 b 585 760 613 796 597 786 l 372 279 b 71 0 282 75 239 0 l 40 0 l 40 164 l 74 164 b 226 331 138 164 160 185 "},"М":{"ha":1531,"x_min":0,"x_max":0,"o":"m 275 0 l 113 0 l 113 744 b 338 954 113 869 186 954 b 574 769 471 954 547 888 l 706 196 b 768 143 714 163 733 143 b 831 196 803 143 822 163 l 963 769 b 1193 954 989 888 1058 954 b 1418 744 1344 954 1418 869 l 1418 0 l 1256 0 l 1256 736 b 1189 796 1256 772 1232 796 b 1124 746 1150 796 1131 776 l 989 172 b 767 -17 960 49 896 -17 b 540 172 636 -17 568 51 l 407 746 b 342 796 400 776 379 796 b 275 736 299 796 275 772 "},"Н":{"ha":1035,"x_min":0,"x_max":0,"o":"m 278 938 l 278 556 l 757 556 l 757 938 l 922 938 l 922 0 l 757 0 l 757 392 l 278 392 l 278 0 l 114 0 l 114 938 "},"О":{"ha":1133,"x_min":0,"x_max":0,"o":"m 631 938 b 1054 467 903 938 1054 782 b 631 0 1054 153 904 0 l 503 0 b 79 467 229 0 79 153 b 503 938 79 782 231 938 m 503 774 b 243 467 322 774 243 682 b 503 164 243 253 321 164 l 631 164 b 889 468 811 164 889 253 b 631 774 889 682 811 774 "},"П":{"ha":1035,"x_min":0,"x_max":0,"o":"m 843 938 b 922 861 896 938 922 913 l 922 0 l 757 0 l 757 757 b 740 774 757 769 751 774 l 296 774 b 278 757 283 774 278 769 l 278 0 l 114 0 l 114 861 b 192 938 114 913 139 938 "},"Р":{"ha":943,"x_min":0,"x_max":0,"o":"m 592 938 b 893 657 803 938 893 807 b 592 363 893 515 811 363 l 300 363 b 276 339 285 363 276 356 l 276 0 l 113 0 l 113 371 b 260 519 113 476 157 519 l 597 519 b 728 649 690 519 728 583 b 599 774 728 717 688 774 l 111 774 l 111 938 "},"С":{"ha":947,"x_min":0,"x_max":0,"o":"m 865 938 l 865 774 l 503 774 b 243 468 322 774 243 683 b 503 164 243 254 321 164 l 865 164 l 865 0 l 503 0 b 79 468 229 0 79 154 b 503 938 79 783 231 938 "},"Т":{"ha":793,"x_min":0,"x_max":0,"o":"m 753 938 l 753 774 l 479 774 l 479 0 l 314 0 l 314 774 l 40 774 l 40 938 "},"У":{"ha":1014,"x_min":0,"x_max":0,"o":"m 203 938 l 499 415 l 810 938 l 996 938 l 554 186 b 235 0 472 43 408 0 l 103 0 l 103 164 l 263 164 b 393 238 329 164 356 178 l 408 263 l 18 938 "},"Ф":{"ha":1181,"x_min":0,"x_max":0,"o":"m 508 832 l 508 938 l 672 938 l 672 832 l 725 832 b 1101 467 967 832 1101 718 b 725 107 1101 217 968 107 l 672 107 l 672 0 l 508 0 l 508 107 l 457 107 b 79 467 213 107 79 217 b 457 832 79 718 214 832 m 672 657 l 672 282 l 725 282 b 938 468 872 282 938 333 b 725 657 938 603 871 657 m 508 282 l 508 657 l 457 657 b 243 468 310 657 243 603 b 457 282 243 333 308 282 "},"Х":{"ha":1085,"x_min":0,"x_max":0,"o":"m 265 938 l 553 592 l 854 938 l 1057 938 l 656 476 l 1060 0 l 860 0 l 549 372 l 229 0 l 26 0 l 446 489 l 65 938 "},"Ц":{"ha":1154,"x_min":0,"x_max":0,"o":"m 192 0 b 113 76 139 0 113 25 l 113 938 l 278 938 l 278 181 b 294 164 278 168 283 164 l 757 164 l 757 938 l 921 938 l 921 164 l 1114 164 l 1114 -294 l 967 -294 l 967 0 l 192 0 "},"Ч":{"ha":1003,"x_min":0,"x_max":0,"o":"m 272 938 l 272 608 b 442 447 272 506 326 447 l 724 447 l 724 938 l 889 938 l 889 0 l 724 0 l 724 282 l 424 282 b 106 596 214 282 106 390 l 106 938 "},"Ш":{"ha":1386,"x_min":0,"x_max":0,"o":"m 278 938 l 278 181 b 296 164 278 168 283 164 l 611 164 l 611 938 l 775 938 l 775 164 l 1092 164 b 1108 181 1103 164 1108 168 l 1108 938 l 1274 938 l 1274 76 b 1194 0 1274 25 1247 0 l 192 0 b 114 76 139 0 114 25 l 114 938 "},"Щ":{"ha":1506,"x_min":0,"x_max":0,"o":"m 278 938 l 278 181 b 296 164 278 168 283 164 l 611 164 l 611 938 l 775 938 l 775 164 l 1108 164 l 1108 938 l 1274 938 l 1274 164 l 1465 164 l 1465 -294 l 1318 -294 l 1318 0 l 192 0 b 114 76 139 0 114 25 l 114 938 "},"Ъ":{"ha":1099,"x_min":0,"x_max":0,"o":"m 317 938 b 433 817 403 938 433 890 l 433 599 b 457 575 433 582 442 575 l 749 575 b 1050 281 968 575 1050 424 b 749 0 1050 131 960 0 l 268 0 l 268 164 l 756 164 b 885 289 844 164 885 221 b 754 418 885 354 847 418 l 417 418 b 269 567 314 418 269 461 l 269 724 b 229 774 269 763 261 774 l 40 774 l 40 938 "},"Ы":{"ha":1282,"x_min":0,"x_max":0,"o":"m 1168 938 l 1168 0 l 1004 0 l 1004 938 m 276 938 l 276 599 b 300 575 276 582 285 575 l 592 575 b 893 281 811 575 893 424 b 592 0 893 131 803 0 l 111 0 l 111 164 l 599 164 b 728 289 688 164 728 221 b 597 418 728 354 690 418 l 260 418 b 113 567 157 418 113 461 l 113 938 "},"Ь":{"ha":943,"x_min":0,"x_max":0,"o":"m 276 938 l 276 599 b 300 575 276 582 285 575 l 592 575 b 893 281 811 575 893 424 b 592 0 893 131 803 0 l 111 0 l 111 164 l 599 164 b 728 289 688 164 728 221 b 597 418 728 354 690 418 l 260 418 b 113 567 157 418 113 461 l 113 938 "},"Э":{"ha":947,"x_min":0,"x_max":0,"o":"m 699 544 b 444 774 682 704 601 774 l 82 774 l 82 938 l 444 938 b 867 468 717 938 867 783 b 444 0 867 154 718 0 l 82 0 l 82 164 l 444 164 b 699 396 603 164 682 233 l 217 396 l 217 544 "},"Ю":{"ha":1483,"x_min":0,"x_max":0,"o":"m 981 938 b 1404 467 1253 938 1404 782 b 981 0 1404 153 1254 0 l 853 0 b 432 396 600 0 453 129 l 278 396 l 278 0 l 114 0 l 114 938 l 278 938 l 278 544 l 432 544 b 853 938 456 807 604 938 m 853 774 b 593 468 672 774 593 682 b 853 164 593 253 671 164 l 981 164 b 1239 468 1161 164 1239 253 b 981 774 1239 682 1161 774 "},"Я":{"ha":992,"x_min":0,"x_max":0,"o":"m 881 938 l 881 774 l 365 774 b 235 650 275 774 235 717 b 367 519 235 583 274 519 l 732 519 b 879 371 835 519 879 476 l 879 0 l 714 0 l 714 339 b 690 363 714 356 706 363 l 444 363 l 233 0 l 50 0 l 269 375 b 71 657 125 415 71 539 b 372 938 71 807 160 938 "},"а":{"ha":933,"x_min":0,"x_max":0,"o":"m 575 733 b 831 492 758 733 831 631 l 831 147 b 679 0 831 42 803 0 l 336 0 b 90 224 163 0 90 85 b 338 435 90 357 157 435 l 686 435 l 686 490 b 574 592 686 547 654 592 l 135 592 l 135 733 m 646 143 b 686 181 675 143 686 154 l 686 318 l 340 318 b 235 232 263 318 235 286 b 338 143 235 178 264 143 l 646 143 "},"б":{"ha":965,"x_min":0,"x_max":0,"o":"m 663 1035 b 707 1076 692 1035 707 1046 l 707 1128 l 840 1128 l 840 1036 b 701 893 840 940 794 893 l 399 893 b 253 744 289 893 253 850 l 253 688 l 578 688 b 894 344 772 688 894 575 b 578 0 894 113 772 0 l 375 0 b 106 314 199 0 106 103 l 106 744 b 383 1035 106 953 178 1035 m 253 556 l 253 313 b 418 143 253 193 299 143 l 563 143 b 746 349 690 143 746 201 b 563 556 746 496 690 556 "},"в":{"ha":878,"x_min":0,"x_max":0,"o":"m 532 733 b 794 533 724 733 794 651 b 688 369 794 450 758 397 b 797 201 760 339 797 285 b 535 0 797 86 726 0 l 183 0 b 106 76 131 0 106 25 l 106 657 b 183 733 106 708 131 733 m 253 150 b 271 133 253 139 258 133 l 531 133 b 646 224 617 133 646 165 b 531 314 646 283 615 314 l 253 314 m 253 426 l 526 426 b 643 513 613 426 643 456 b 528 601 643 568 615 601 l 271 601 b 253 585 258 601 253 596 "},"г":{"ha":639,"x_min":0,"x_max":0,"o":"m 600 733 l 600 592 l 358 592 b 253 493 283 592 253 561 l 253 0 l 104 0 l 104 526 b 313 733 104 647 164 733 "},"д":{"ha":928,"x_min":0,"x_max":0,"o":"m 72 142 b 206 268 129 142 144 151 l 388 617 b 578 757 433 704 465 757 b 764 596 701 757 764 693 l 764 142 l 888 142 l 888 -294 l 740 -294 l 740 0 l 188 0 l 188 -294 l 40 -294 l 40 142 m 615 142 l 615 589 b 571 625 615 613 599 625 b 526 594 553 625 539 619 l 336 225 b 292 142 319 193 306 165 "},"е":{"ha":906,"x_min":0,"x_max":0,"o":"m 583 733 b 831 508 757 733 831 650 b 582 297 831 374 763 297 l 233 297 l 233 244 b 346 143 233 186 265 143 l 794 143 l 794 0 l 346 0 b 90 242 163 0 90 103 l 90 492 b 346 733 90 631 163 733 m 233 413 l 578 413 b 686 500 657 413 686 446 b 582 592 686 556 654 592 l 346 592 b 233 490 265 592 233 547 "},"ж":{"ha":1313,"x_min":0,"x_max":0,"o":"m 210 733 l 331 513 b 514 429 381 439 399 429 l 582 429 l 582 733 l 731 733 l 731 429 l 799 429 b 982 513 915 429 932 439 l 1104 733 l 1264 733 l 1136 503 b 1006 372 1099 440 1065 397 b 1156 231 1074 353 1108 311 l 1288 0 l 1122 0 l 1000 217 b 799 306 951 290 928 306 l 731 306 l 731 0 l 582 0 l 582 306 l 514 306 b 314 217 385 306 361 290 l 190 0 l 26 0 l 157 231 b 307 372 203 311 239 353 b 176 503 246 397 214 440 l 50 733 "},"з":{"ha":878,"x_min":0,"x_max":0,"o":"m 540 733 b 794 539 726 733 794 649 b 693 367 794 453 761 397 b 797 196 763 338 797 283 b 543 0 797 88 731 0 l 90 0 l 90 142 l 533 142 b 646 228 618 142 646 172 b 532 313 646 285 617 313 l 258 313 l 258 422 l 531 422 b 643 507 614 422 643 450 b 531 593 643 560 617 593 l 90 593 l 90 733 "},"и":{"ha":1018,"x_min":0,"x_max":0,"o":"m 253 733 l 253 156 b 294 118 253 131 267 118 b 344 147 321 118 335 128 l 553 610 b 739 746 581 696 632 746 b 914 585 857 746 914 682 l 914 0 l 765 0 l 765 578 b 724 617 765 603 751 617 b 674 586 697 617 683 604 l 453 124 b 279 -14 421 39 385 -14 b 106 150 163 -14 106 51 l 106 733 "},"й":{"ha":1018,"x_min":0,"x_max":0,"o":"m 350 1079 l 350 1001 b 510 882 350 914 382 882 b 667 1001 636 882 667 914 l 667 1079 l 792 1079 l 792 1000 b 510 781 792 839 729 781 b 226 1000 288 781 226 839 l 226 1079 m 253 733 l 253 156 b 294 118 253 131 267 118 b 344 147 321 118 335 128 l 553 610 b 739 746 581 696 632 746 b 914 585 857 746 914 682 l 914 0 l 765 0 l 765 578 b 724 617 765 603 751 617 b 674 586 697 617 683 604 l 453 124 b 279 -14 421 39 385 -14 b 106 150 163 -14 106 51 l 106 733 "},"к":{"ha":836,"x_min":0,"x_max":0,"o":"m 253 733 l 253 429 l 321 429 b 504 513 438 429 454 439 l 626 733 l 786 733 l 658 503 b 528 372 621 440 588 397 b 678 231 596 353 631 311 l 810 0 l 644 0 l 522 217 b 321 306 474 290 450 306 l 253 306 l 253 0 l 106 0 l 106 733 "},"л":{"ha":869,"x_min":0,"x_max":0,"o":"m 72 142 b 206 268 129 142 144 151 l 388 617 b 578 757 433 704 465 757 b 764 596 701 757 764 693 l 764 0 l 615 0 l 615 589 b 571 625 615 613 599 625 b 526 594 553 625 539 619 l 336 225 b 68 0 253 63 218 0 l 40 0 l 40 142 "},"м":{"ha":1286,"x_min":0,"x_max":0,"o":"m 246 0 l 106 0 l 106 581 b 286 746 106 681 169 746 b 465 600 389 746 442 693 l 593 154 b 643 115 601 126 615 115 b 693 154 671 115 685 126 l 819 600 b 1000 746 843 690 894 746 b 1181 581 1115 746 1181 681 l 1181 0 l 1039 0 l 1039 574 b 986 617 1039 601 1021 617 b 935 581 957 617 942 604 l 801 133 b 643 -10 772 32 729 -10 b 483 133 558 -10 514 32 l 350 581 b 299 617 343 604 328 617 b 246 574 264 617 246 601 "},"н":{"ha":978,"x_min":0,"x_max":0,"o":"m 253 733 l 253 446 l 724 446 l 724 733 l 872 733 l 872 0 l 724 0 l 724 304 l 253 304 l 253 0 l 106 0 l 106 733 "},"о":{"ha":932,"x_min":0,"x_max":0,"o":"m 543 733 b 861 367 738 733 861 614 b 543 0 861 119 738 0 l 389 0 b 71 367 193 0 71 119 b 389 733 71 614 193 733 m 403 592 b 219 367 275 592 219 525 b 403 143 219 208 275 143 l 529 143 b 713 367 656 143 713 208 b 529 592 713 525 656 592 "},"п":{"ha":978,"x_min":0,"x_max":0,"o":"m 793 733 b 872 657 846 733 872 708 l 872 0 l 724 0 l 724 575 b 707 592 724 588 718 592 l 271 592 b 253 575 258 592 253 588 l 253 0 l 106 0 l 106 657 b 183 733 106 708 131 733 "},"р":{"ha":963,"x_min":0,"x_max":0,"o":"m 575 733 b 892 367 769 733 892 614 b 575 0 892 119 769 0 l 250 0 l 250 -294 l 103 -294 l 103 419 b 372 733 103 631 196 733 m 250 143 l 560 143 b 743 367 688 143 743 208 b 560 592 743 525 688 592 l 415 592 b 250 413 296 592 250 539 "},"с":{"ha":836,"x_min":0,"x_max":0,"o":"m 767 733 l 767 592 l 403 592 b 219 367 275 592 219 525 b 403 143 219 208 275 143 l 767 143 l 767 0 l 389 0 b 71 367 193 0 71 119 b 389 733 71 614 193 733 "},"т":{"ha":796,"x_min":0,"x_max":0,"o":"m 750 733 l 750 592 l 469 592 l 469 0 l 321 0 l 321 592 l 40 592 l 40 733 "},"у":{"ha":899,"x_min":0,"x_max":0,"o":"m 872 733 l 431 -294 l 272 -294 l 410 26 b 272 117 326 26 297 53 l 26 733 l 182 733 l 403 188 b 447 157 413 161 419 157 l 467 157 l 715 733 "},"ф":{"ha":1115,"x_min":0,"x_max":0,"o":"m 632 1018 l 632 733 l 728 733 b 1044 365 922 733 1044 614 b 728 0 1044 119 922 0 l 632 0 l 632 -285 l 483 -285 l 483 0 l 389 0 b 71 365 193 0 71 119 b 389 733 71 614 193 733 l 483 733 l 483 1018 m 632 592 l 632 143 l 713 143 b 896 365 840 143 896 208 b 713 592 896 525 840 592 m 483 143 l 483 592 l 403 592 b 219 365 275 592 219 525 b 403 143 219 208 275 143 "},"х":{"ha":946,"x_min":0,"x_max":0,"o":"m 236 733 l 479 468 l 732 733 l 915 733 l 571 368 l 919 0 l 732 0 l 474 282 l 210 0 l 26 0 l 383 382 l 50 733 "},"ц":{"ha":1106,"x_min":0,"x_max":0,"o":"m 185 0 b 106 76 132 0 106 25 l 106 733 l 254 733 l 254 158 b 271 142 254 146 260 142 l 725 142 l 725 733 l 872 733 l 872 142 l 1065 142 l 1065 -294 l 918 -294 l 918 0 "},"ч":{"ha":940,"x_min":0,"x_max":0,"o":"m 244 733 l 244 519 b 394 396 244 444 292 396 l 686 396 l 686 733 l 835 733 l 835 0 l 686 0 l 686 254 l 379 254 b 97 510 192 254 97 356 l 97 733 "},"ш":{"ha":1256,"x_min":0,"x_max":0,"o":"m 253 733 l 253 158 b 271 142 253 147 258 142 l 554 142 l 554 733 l 701 733 l 701 142 l 985 142 b 1003 158 997 142 1003 147 l 1003 733 l 1150 733 l 1150 76 b 1072 0 1150 25 1125 0 l 183 0 b 106 76 131 0 106 25 l 106 733 "},"щ":{"ha":1383,"x_min":0,"x_max":0,"o":"m 253 733 l 253 158 b 271 142 253 147 258 142 l 554 142 l 554 733 l 701 733 l 701 142 l 1003 142 l 1003 733 l 1150 733 l 1150 142 l 1343 142 l 1343 -294 l 1196 -294 l 1196 0 l 183 0 b 106 76 131 0 106 25 l 106 733 "},"ъ":{"ha":1025,"x_min":0,"x_max":0,"o":"m 353 733 b 442 658 418 733 442 700 l 442 489 b 463 469 442 475 449 469 l 710 469 b 947 232 882 469 947 351 b 710 0 947 107 876 0 l 293 0 l 293 142 l 707 142 b 804 233 774 142 804 182 b 707 332 804 283 776 332 l 417 332 b 294 456 332 332 294 368 l 294 561 b 264 592 294 581 288 592 l 40 592 l 40 733 "},"ы":{"ha":1119,"x_min":0,"x_max":0,"o":"m 254 733 l 254 489 b 275 469 254 475 261 469 l 522 469 b 760 232 694 469 760 351 b 522 0 760 107 689 0 l 106 0 l 106 142 l 519 142 b 617 233 586 142 617 182 b 519 332 617 283 589 332 l 229 332 b 107 456 144 332 107 368 l 107 733 m 1014 733 l 1014 0 l 867 0 l 867 733 "},"ь":{"ha":838,"x_min":0,"x_max":0,"o":"m 254 733 l 254 489 b 275 469 254 475 261 469 l 522 469 b 760 232 694 469 760 351 b 522 0 760 107 689 0 l 106 0 l 106 142 l 519 142 b 617 233 586 142 617 182 b 519 332 617 283 589 332 l 229 332 b 107 456 144 332 107 368 l 107 733 "},"э":{"ha":836,"x_min":0,"x_max":0,"o":"m 614 422 b 433 600 601 542 544 600 l 69 600 l 69 733 l 447 733 b 765 365 643 733 765 614 b 447 0 765 119 643 0 l 69 0 l 69 135 l 433 135 b 615 321 549 135 604 194 l 239 321 l 239 422 "},"ю":{"ha":1260,"x_min":0,"x_max":0,"o":"m 872 733 b 1190 365 1067 733 1190 614 b 872 0 1190 119 1067 0 l 718 0 b 401 311 536 0 418 101 l 253 311 l 253 0 l 106 0 l 106 733 l 253 733 l 253 428 l 403 428 b 718 733 422 633 539 733 m 732 592 b 549 365 604 592 549 525 b 732 143 549 208 604 143 l 858 143 b 1042 365 985 143 1042 208 b 858 592 1042 525 985 592 "},"я":{"ha":856,"x_min":0,"x_max":0,"o":"m 760 733 l 760 592 l 328 592 b 218 500 251 592 218 551 b 328 404 218 450 249 404 l 629 404 b 758 282 719 404 758 369 l 758 0 l 610 0 l 610 254 b 589 275 610 268 604 275 l 392 275 l 217 0 l 53 0 l 235 285 b 69 507 115 315 69 408 b 326 733 69 635 146 733 "},"ѐ":{"ha":906,"x_min":0,"x_max":0,"o":"m 583 733 b 831 508 757 733 831 650 b 582 297 831 374 763 297 l 233 297 l 233 244 b 346 143 233 186 265 143 l 794 143 l 794 0 l 346 0 b 90 242 163 0 90 103 l 90 492 b 346 733 90 631 163 733 m 233 413 l 578 413 b 686 500 657 413 686 446 b 582 592 686 556 654 592 l 346 592 b 233 490 265 592 233 547 m 444 1079 l 600 781 l 453 781 l 281 1079 "},"ё":{"ha":906,"x_min":0,"x_max":0,"o":"m 583 733 b 831 508 757 733 831 650 b 582 297 831 374 763 297 l 233 297 l 233 244 b 346 143 233 186 265 143 l 794 143 l 794 0 l 346 0 b 90 242 163 0 90 103 l 90 492 b 346 733 90 631 163 733 m 233 413 l 578 413 b 686 500 657 413 686 446 b 582 592 686 556 654 592 l 346 592 b 233 490 265 592 233 547 m 365 1010 l 365 839 l 217 839 l 217 1010 m 699 1010 l 699 839 l 550 839 l 550 1010 "},"ђ":{"ha":982,"x_min":0,"x_max":0,"o":"m 732 413 b 511 592 732 525 664 592 l 253 592 l 253 0 l 106 0 l 106 1051 l 253 1051 l 253 996 l 743 996 l 743 872 l 253 872 l 253 733 l 511 733 b 881 413 758 733 881 614 l 881 -42 b 665 -294 881 -233 815 -294 l 536 -294 l 536 -153 l 632 -153 b 732 -43 704 -153 732 -125 "},"ѓ":{"ha":639,"x_min":0,"x_max":0,"o":"m 564 1079 l 390 781 l 244 781 l 400 1079 m 600 733 l 600 592 l 358 592 b 253 493 283 592 253 561 l 253 0 l 104 0 l 104 526 b 313 733 104 647 164 733 "},"є":{"ha":836,"x_min":0,"x_max":0,"o":"m 767 733 l 767 600 l 403 600 b 222 422 292 600 235 542 l 597 422 l 597 321 l 221 321 b 403 135 231 194 288 135 l 767 135 l 767 0 l 389 0 b 71 365 193 0 71 119 b 389 733 71 614 193 733 "},"ѕ":{"ha":814,"x_min":0,"x_max":0,"o":"m 717 733 l 717 592 l 311 592 b 215 508 243 592 215 564 b 319 429 215 457 238 429 l 492 429 b 746 222 694 429 746 336 b 506 0 746 92 678 0 l 79 0 l 79 143 l 506 143 b 601 224 574 143 601 167 b 497 306 601 282 571 306 l 324 306 b 71 519 121 306 71 407 b 310 733 71 651 139 733 "},"і":{"ha":358,"x_min":0,"x_max":0,"o":"m 253 733 l 253 0 l 106 0 l 106 733 m 254 1010 l 254 839 l 106 839 l 106 1010 "},"ї":{"ha":481,"x_min":0,"x_max":0,"o":"m 147 1010 l 147 839 l -1 839 l -1 1010 m 481 1010 l 481 839 l 332 839 l 332 1010 m 313 733 l 313 0 l 165 0 l 165 733 "},"ј":{"ha":375,"x_min":0,"x_max":0,"o":"m 269 733 l 269 -42 b 54 -294 269 -233 204 -294 l -75 -294 l -75 -153 l 21 -153 b 121 -43 93 -153 121 -125 l 121 733 m 269 1010 l 269 839 l 121 839 l 121 1010 "},"љ":{"ha":1346,"x_min":0,"x_max":0,"o":"m 764 489 b 785 469 764 475 771 469 l 1032 469 b 1269 232 1204 469 1269 351 b 1032 0 1269 107 1199 0 l 615 0 l 615 142 l 1029 142 b 1126 233 1096 142 1126 182 b 1029 332 1126 283 1099 332 l 739 332 b 617 456 654 332 617 368 l 617 589 b 571 625 617 613 599 625 b 526 594 553 625 539 619 l 336 225 b 68 0 253 63 218 0 l 40 0 l 40 142 l 72 142 b 206 268 129 142 144 151 l 388 617 b 578 757 433 704 465 757 b 764 596 701 757 764 693 "},"њ":{"ha":1407,"x_min":0,"x_max":0,"o":"m 253 733 l 253 469 l 690 469 l 690 733 l 839 733 l 839 469 l 1092 469 b 1329 232 1264 469 1329 351 b 1092 0 1329 107 1258 0 l 689 0 l 689 142 l 1089 142 b 1186 233 1157 142 1186 182 b 1089 332 1186 283 1160 332 l 253 332 l 253 0 l 106 0 l 106 733 "},"ћ":{"ha":982,"x_min":0,"x_max":0,"o":"m 253 1051 l 253 996 l 743 996 l 743 872 l 253 872 l 253 733 l 511 733 b 881 413 758 733 881 614 l 881 0 l 732 0 l 732 413 b 511 592 732 525 664 592 l 253 592 l 253 0 l 106 0 l 106 1051 "},"ќ":{"ha":836,"x_min":0,"x_max":0,"o":"m 592 1079 l 418 781 l 272 781 l 428 1079 m 253 733 l 253 429 l 321 429 b 504 513 438 429 454 439 l 626 733 l 786 733 l 658 503 b 528 372 621 440 588 397 b 678 231 596 353 631 311 l 810 0 l 644 0 l 522 217 b 321 306 474 290 450 306 l 253 306 l 253 0 l 106 0 l 106 733 "},"ѝ":{"ha":1018,"x_min":0,"x_max":0,"o":"m 500 1079 l 656 781 l 508 781 l 336 1079 m 253 733 l 253 156 b 294 118 253 131 267 118 b 344 147 321 118 335 128 l 553 610 b 739 746 581 696 632 746 b 914 585 857 746 914 682 l 914 0 l 765 0 l 765 578 b 724 617 765 603 751 617 b 674 586 697 617 683 604 l 453 124 b 279 -14 421 39 385 -14 b 106 150 163 -14 106 51 l 106 733 "},"ў":{"ha":899,"x_min":0,"x_max":0,"o":"m 872 733 l 431 -294 l 272 -294 l 410 26 b 272 117 326 26 297 53 l 26 733 l 182 733 l 403 188 b 447 157 413 161 419 157 l 467 157 l 715 733 m 282 1079 l 282 1001 b 442 882 282 914 314 882 b 599 1001 568 882 599 914 l 599 1079 l 724 1079 l 724 1000 b 442 781 724 839 661 781 b 158 1000 219 781 158 839 l 158 1079 "},"џ":{"ha":978,"x_min":0,"x_max":0,"o":"m 561 0 l 561 -294 l 414 -294 l 414 0 l 185 0 b 106 76 132 0 106 25 l 106 733 l 254 733 l 254 158 b 271 142 254 146 260 142 l 707 142 b 725 158 719 142 725 146 l 725 733 l 872 733 l 872 76 b 794 0 872 25 847 0 "},"Ґ":{"ha":864,"x_min":0,"x_max":0,"o":"m 676 938 l 676 1232 l 824 1232 l 824 774 l 460 774 b 268 613 313 774 268 703 l 268 0 l 104 0 l 104 614 b 450 938 104 801 201 938 "},"ґ":{"ha":639,"x_min":0,"x_max":0,"o":"m 453 733 l 453 1028 l 600 1028 l 600 592 l 358 592 b 253 493 283 592 253 561 l 253 0 l 104 0 l 104 526 b 313 733 104 647 164 733 "},"Ғ":{"ha":878,"x_min":0,"x_max":0,"o":"m 838 938 l 838 774 l 474 774 b 282 613 326 774 282 703 l 282 517 l 647 517 l 647 393 l 282 393 l 282 0 l 118 0 l 118 393 l 10 393 l 10 517 l 118 517 l 118 614 b 464 938 118 801 215 938 "},"ғ":{"ha":682,"x_min":0,"x_max":0,"o":"m 618 733 l 618 592 l 376 592 b 271 493 301 592 271 561 l 271 383 l 647 383 l 647 260 l 271 260 l 271 0 l 122 0 l 122 260 l 10 260 l 10 383 l 122 383 l 122 526 b 331 733 122 647 182 733 "},"Җ":{"ha":1711,"x_min":0,"x_max":0,"o":"m 232 938 l 375 657 b 614 540 426 556 453 540 l 706 540 l 706 938 l 869 938 l 869 540 l 960 540 b 1200 657 1121 540 1147 554 l 1343 938 l 1519 938 l 1372 646 b 1210 475 1331 563 1286 508 b 1396 294 1297 451 1340 403 l 1463 164 l 1671 164 l 1671 -294 l 1524 -294 l 1524 0 l 1364 0 l 1221 278 b 960 392 1169 378 1136 392 l 869 392 l 869 0 l 706 0 l 706 392 l 614 392 b 354 278 438 392 411 375 l 211 0 l 28 0 l 179 294 b 363 474 233 401 275 451 b 203 646 285 507 244 563 l 54 938 "},"җ":{"ha":1450,"x_min":0,"x_max":0,"o":"m 210 733 l 331 513 b 514 429 381 439 399 429 l 582 429 l 582 733 l 731 733 l 731 429 l 799 429 b 982 513 915 429 932 439 l 1104 733 l 1264 733 l 1136 503 b 1007 372 1100 439 1068 397 b 1156 231 1074 351 1108 311 l 1206 142 l 1410 142 l 1410 -294 l 1263 -294 l 1263 0 l 1122 0 l 1000 217 b 799 306 951 290 928 306 l 731 306 l 731 0 l 582 0 l 582 306 l 514 306 b 314 217 385 306 357 293 l 190 0 l 26 0 l 157 231 b 307 372 203 311 239 353 b 176 503 246 397 211 439 l 50 733 "},"Қ":{"ha":1119,"x_min":0,"x_max":0,"o":"m 278 938 l 278 540 l 368 540 b 608 657 529 540 556 554 l 751 938 l 928 938 l 781 646 b 618 475 739 563 694 508 b 804 294 706 451 749 403 l 871 164 l 1079 164 l 1079 -294 l 932 -294 l 932 0 l 772 0 l 629 278 b 368 392 578 378 544 392 l 278 392 l 278 0 l 114 0 l 114 938 "},"қ":{"ha":974,"x_min":0,"x_max":0,"o":"m 253 733 l 253 429 l 321 429 b 504 513 438 429 454 439 l 626 733 l 786 733 l 658 503 b 529 372 622 439 590 397 b 678 231 596 351 631 311 l 728 142 l 933 142 l 933 -294 l 786 -294 l 786 0 l 644 0 l 522 217 b 321 306 474 290 450 306 l 253 306 l 253 0 l 106 0 l 106 733 "},"Ң":{"ha":1156,"x_min":0,"x_max":0,"o":"m 278 938 l 278 556 l 757 556 l 757 938 l 922 938 l 922 164 l 1115 164 l 1115 -294 l 968 -294 l 968 0 l 757 0 l 757 392 l 278 392 l 278 0 l 114 0 l 114 938 "},"ң":{"ha":1106,"x_min":0,"x_max":0,"o":"m 253 733 l 253 446 l 724 446 l 724 733 l 872 733 l 872 142 l 1065 142 l 1065 -294 l 918 -294 l 918 0 l 724 0 l 724 304 l 253 304 l 253 0 l 106 0 l 106 733 "},"Ү":{"ha":957,"x_min":0,"x_max":0,"o":"m 217 938 l 479 536 l 744 938 l 939 938 l 561 404 l 561 0 l 396 0 l 396 404 l 18 938 "},"ү":{"ha":940,"x_min":0,"x_max":0,"o":"m 183 733 l 469 121 l 756 733 l 914 733 l 544 -25 l 544 -294 l 396 -294 l 396 -25 l 26 733 "},"Ұ":{"ha":957,"x_min":0,"x_max":0,"o":"m 396 353 l 396 404 l 18 938 l 217 938 l 479 536 l 744 938 l 939 938 l 561 404 l 561 353 l 797 353 l 797 229 l 561 229 l 561 0 l 396 0 l 396 229 l 160 229 l 160 353 "},"ұ":{"ha":940,"x_min":0,"x_max":0,"o":"m 183 733 l 469 121 l 756 733 l 914 733 l 563 13 l 789 13 l 789 -111 l 544 -111 l 544 -294 l 396 -294 l 396 -111 l 151 -111 l 151 13 l 378 13 l 26 733 "},"Ҳ":{"ha":1222,"x_min":0,"x_max":0,"o":"m 265 938 l 553 592 l 854 938 l 1057 938 l 656 476 l 921 164 l 1182 164 l 1182 -294 l 1035 -294 l 1035 0 l 860 0 l 549 372 l 229 0 l 26 0 l 446 489 l 65 938 "},"ҳ":{"ha":1083,"x_min":0,"x_max":0,"o":"m 236 733 l 479 468 l 732 733 l 915 733 l 571 368 l 785 142 l 1043 142 l 1043 -294 l 896 -294 l 896 0 l 732 0 l 474 282 l 210 0 l 26 0 l 383 382 l 50 733 "},"Ҷ":{"ha":1121,"x_min":0,"x_max":0,"o":"m 272 938 l 272 608 b 442 447 272 506 326 447 l 724 447 l 724 938 l 889 938 l 889 164 l 1082 164 l 1082 -294 l 935 -294 l 935 0 l 724 0 l 724 282 l 424 282 b 106 596 214 282 106 390 l 106 938 "},"ҷ":{"ha":1067,"x_min":0,"x_max":0,"o":"m 244 733 l 244 519 b 394 396 244 444 292 396 l 686 396 l 686 733 l 835 733 l 835 142 l 1026 142 l 1026 -294 l 879 -294 l 879 0 l 686 0 l 686 254 l 379 254 b 97 510 192 254 97 356 l 97 733 "},"Һ":{"ha":1003,"x_min":0,"x_max":0,"o":"m 731 0 l 731 329 b 561 490 731 432 676 490 l 279 490 l 279 0 l 114 0 l 114 938 l 279 938 l 279 656 l 579 656 b 897 342 789 656 897 547 l 897 0 "},"һ":{"ha":940,"x_min":0,"x_max":0,"o":"m 696 0 l 696 214 b 546 338 696 289 649 338 l 254 338 l 254 0 l 106 0 l 106 733 l 254 733 l 254 479 l 561 479 b 843 224 749 479 843 378 l 843 0 "},"Ӏ":{"ha":390,"x_min":0,"x_max":0,"o":"m 278 938 l 278 0 l 114 0 l 114 938 "},"Ӄ":{"ha":983,"x_min":0,"x_max":0,"o":"m 278 938 l 278 540 l 368 540 b 608 657 529 540 556 554 l 751 938 l 928 938 l 781 646 b 618 475 739 563 694 508 b 804 294 706 451 749 403 l 956 0 b 740 -294 956 -233 890 -294 l 611 -294 l 611 -153 l 707 -153 b 806 -61 774 -153 801 -129 l 629 278 b 368 392 578 378 544 392 l 278 392 l 278 0 l 114 0 l 114 938 "},"ӄ":{"ha":836,"x_min":0,"x_max":0,"o":"m 253 733 l 253 429 l 321 429 b 504 513 438 429 454 439 l 626 733 l 786 733 l 658 503 b 528 372 621 440 588 397 b 678 231 596 353 631 311 l 810 0 b 594 -294 810 -233 744 -294 l 465 -294 l 465 -153 l 561 -153 b 661 -25 633 -153 661 -125 l 522 217 b 321 306 478 293 450 306 l 253 306 l 253 0 l 106 0 l 106 733 "},"Ӈ":{"ha":1035,"x_min":0,"x_max":0,"o":"m 278 938 l 278 556 l 757 556 l 757 938 l 922 938 l 922 -42 b 707 -294 922 -233 857 -294 l 578 -294 l 578 -153 l 657 -153 b 757 -43 729 -153 757 -125 l 757 392 l 278 392 l 278 0 l 114 0 l 114 938 "},"ӈ":{"ha":978,"x_min":0,"x_max":0,"o":"m 872 733 l 872 -42 b 657 -294 872 -233 807 -294 l 528 -294 l 528 -153 l 624 -153 b 724 -43 696 -153 724 -125 l 724 304 l 253 304 l 253 0 l 106 0 l 106 733 l 253 733 l 253 446 l 724 446 l 724 733 "},"ӏ":{"ha":365,"x_min":0,"x_max":0,"o":"m 257 1006 l 257 0 l 108 0 l 108 1006 "},"Ә":{"ha":1013,"x_min":0,"x_max":0,"o":"m 371 0 b 79 293 161 0 79 129 b 328 557 79 456 161 557 l 769 557 b 515 774 750 708 669 774 l 129 774 l 129 938 l 515 938 b 939 468 788 938 939 783 b 515 0 939 154 789 0 m 515 164 b 774 415 682 164 761 239 l 344 415 b 229 296 268 415 229 371 b 360 164 229 219 268 164 l 515 164 "},"ә":{"ha":906,"x_min":0,"x_max":0,"o":"m 338 0 b 90 225 164 0 90 83 b 339 436 90 360 158 436 l 688 436 l 688 489 b 575 590 688 547 656 590 l 126 590 l 126 733 l 575 733 b 831 492 758 733 831 631 l 831 242 b 575 0 831 103 758 0 m 688 321 l 343 321 b 235 233 264 321 235 288 b 339 142 235 178 267 142 l 575 142 b 688 243 656 142 688 186 "},"Ө":{"ha":1133,"x_min":0,"x_max":0,"o":"m 631 938 b 1054 467 903 938 1054 782 b 631 0 1054 153 904 0 l 503 0 b 79 467 229 0 79 153 b 503 938 79 782 231 938 m 631 164 b 885 396 789 164 868 232 l 246 396 b 503 164 263 232 342 164 l 631 164 m 503 774 b 246 544 344 774 264 704 l 885 544 b 631 774 867 703 788 774 "},"ө":{"ha":932,"x_min":0,"x_max":0,"o":"m 543 733 b 861 365 738 733 861 614 b 543 0 861 119 738 0 l 389 0 b 71 365 193 0 71 119 b 389 733 71 614 193 733 m 529 143 b 710 318 642 143 699 194 l 221 318 b 403 143 232 194 289 143 l 529 143 m 403 592 b 222 422 292 592 235 540 l 710 422 b 529 592 696 540 639 592 "},"Ӯ":{"ha":1014,"x_min":0,"x_max":0,"o":"m 817 1200 l 817 1076 l 179 1076 l 179 1200 m 203 938 l 499 415 l 810 938 l 996 938 l 554 186 b 235 0 472 43 408 0 l 103 0 l 103 164 l 263 164 b 393 238 329 164 356 178 l 408 263 l 18 938 "},"ӯ":{"ha":899,"x_min":0,"x_max":0,"o":"m 872 733 l 431 -294 l 272 -294 l 410 26 b 272 117 326 26 297 53 l 26 733 l 182 733 l 403 188 b 447 157 413 161 419 157 l 467 157 l 715 733 m 763 996 l 763 872 l 125 872 l 125 996 "},"Ԓ":{"ha":961,"x_min":0,"x_max":0,"o":"m 432 785 b 639 954 479 890 514 954 b 849 754 781 954 849 874 l 849 -42 b 633 -294 849 -233 783 -294 l 504 -294 l 504 -153 l 583 -153 b 683 -43 656 -153 683 -125 l 683 746 b 635 796 683 776 667 796 b 585 760 613 796 597 786 l 372 279 b 71 0 282 75 239 0 l 40 0 l 40 164 l 74 164 b 226 331 138 164 160 185 "},"ԓ":{"ha":869,"x_min":0,"x_max":0,"o":"m 615 589 b 571 625 615 613 599 625 b 526 594 553 625 539 619 l 336 225 b 68 0 253 63 218 0 l 40 0 l 40 142 l 72 142 b 206 268 129 142 144 151 l 388 617 b 578 757 433 704 465 757 b 764 596 701 757 764 693 l 764 -42 b 549 -294 764 -233 699 -294 l 419 -294 l 419 -153 l 515 -153 b 615 -43 588 -153 615 -125 "},"Ḍ":{"ha":1024,"x_min":0,"x_max":0,"o":"m 522 938 b 944 468 796 938 944 785 b 522 0 944 153 797 0 l 192 0 b 114 76 139 0 114 25 l 114 861 b 192 938 114 913 139 938 m 278 181 b 296 164 278 168 283 164 l 522 164 b 781 469 704 164 781 254 b 522 774 781 683 704 774 l 296 774 b 278 757 283 774 278 769 m 553 -106 l 553 -276 l 404 -276 l 404 -106 "},"ḍ":{"ha":965,"x_min":0,"x_max":0,"o":"m 861 1051 l 861 314 b 592 0 861 103 767 0 l 389 0 b 71 367 193 0 71 119 b 389 733 71 614 193 733 l 713 733 l 713 1051 m 549 143 b 713 321 667 143 713 196 l 713 592 l 403 592 b 219 367 276 592 219 525 b 403 143 219 208 276 143 l 549 143 m 561 -106 l 561 -276 l 413 -276 l 413 -106 "},"Ḓ":{"ha":1024,"x_min":0,"x_max":0,"o":"m 522 938 b 944 468 796 938 944 785 b 522 0 944 153 797 0 l 192 0 b 114 76 139 0 114 25 l 114 861 b 192 938 114 913 139 938 m 278 181 b 296 164 278 168 283 164 l 522 164 b 781 469 704 164 781 254 b 522 774 781 683 704 774 l 296 774 b 278 757 283 774 278 769 m 317 -139 b 469 -68 343 -87 396 -68 b 619 -139 542 -68 593 -89 l 746 -367 l 589 -367 l 496 -193 b 468 -181 492 -185 482 -181 b 440 -193 456 -181 446 -183 l 349 -367 l 192 -367 "},"ḓ":{"ha":965,"x_min":0,"x_max":0,"o":"m 861 1051 l 861 314 b 592 0 861 103 767 0 l 389 0 b 71 367 193 0 71 119 b 389 733 71 614 193 733 l 713 733 l 713 1051 m 549 143 b 713 321 667 143 713 196 l 713 592 l 403 592 b 219 367 276 592 219 525 b 403 143 219 208 276 143 l 549 143 m 325 -139 b 478 -68 351 -87 404 -68 b 628 -139 550 -68 601 -89 l 754 -367 l 597 -367 l 504 -193 b 476 -181 500 -185 490 -181 b 449 -193 464 -181 454 -183 l 357 -367 l 200 -367 "},"Ḥ":{"ha":1035,"x_min":0,"x_max":0,"o":"m 278 938 l 278 556 l 757 556 l 757 938 l 922 938 l 922 0 l 757 0 l 757 392 l 278 392 l 278 0 l 114 0 l 114 938 m 593 -106 l 593 -276 l 444 -276 l 444 -106 "},"ḥ":{"ha":982,"x_min":0,"x_max":0,"o":"m 253 1051 l 253 733 l 511 733 b 881 413 758 733 881 614 l 881 0 l 732 0 l 732 413 b 511 592 732 525 664 592 l 253 592 l 253 0 l 106 0 l 106 1051 m 564 -106 l 564 -276 l 415 -276 l 415 -106 "},"Ḽ":{"ha":864,"x_min":0,"x_max":0,"o":"m 268 938 l 268 325 b 460 164 268 235 313 164 l 824 164 l 824 0 l 450 0 b 104 324 201 0 104 136 l 104 938 m 310 -139 b 463 -68 336 -87 389 -68 b 613 -139 535 -68 586 -89 l 739 -367 l 582 -367 l 489 -193 b 461 -181 485 -185 475 -181 b 433 -193 449 -181 439 -183 l 342 -367 l 185 -367 "},"ḽ":{"ha":388,"x_min":0,"x_max":0,"o":"m 268 1051 l 268 0 l 121 0 l 121 1051 m 42 -139 b 194 -68 68 -87 121 -68 b 344 -139 267 -68 318 -89 l 471 -367 l 314 -367 l 221 -193 b 193 -181 217 -185 207 -181 b 165 -193 181 -181 171 -183 l 74 -367 l -83 -367 "},"Ṅ":{"ha":1221,"x_min":0,"x_max":0,"o":"m 276 0 l 113 0 l 113 750 b 328 954 113 872 182 954 b 556 781 458 954 517 888 l 829 182 b 889 143 840 160 858 143 b 944 196 924 143 944 164 l 944 938 l 1110 938 l 1110 189 b 894 -17 1110 65 1039 -17 b 665 157 764 -17 704 50 l 392 756 b 333 796 379 783 363 796 b 276 742 296 796 276 775 m 688 1214 l 688 1043 l 539 1043 l 539 1214 "},"ṅ":{"ha":982,"x_min":0,"x_max":0,"o":"m 511 733 b 881 413 760 733 881 615 l 881 0 l 732 0 l 732 413 b 511 592 732 528 665 592 l 271 592 b 253 571 258 592 253 585 l 253 0 l 106 0 l 106 619 b 208 733 106 706 135 733 m 561 1010 l 561 839 l 413 839 l 413 1010 "},"Ṋ":{"ha":1221,"x_min":0,"x_max":0,"o":"m 276 0 l 113 0 l 113 750 b 328 954 113 872 182 954 b 556 781 458 954 517 888 l 829 182 b 889 143 840 160 858 143 b 944 196 924 143 944 164 l 944 938 l 1110 938 l 1110 189 b 894 -17 1110 65 1039 -17 b 665 157 764 -17 704 50 l 392 756 b 333 796 379 783 363 796 b 276 742 296 796 276 775 m 447 -139 b 600 -68 474 -87 526 -68 b 750 -139 672 -68 724 -89 l 876 -367 l 719 -367 l 626 -193 b 599 -181 622 -185 613 -181 b 571 -193 586 -181 576 -183 l 479 -367 l 322 -367 "},"ṋ":{"ha":982,"x_min":0,"x_max":0,"o":"m 511 733 b 881 413 760 733 881 615 l 881 0 l 732 0 l 732 413 b 511 592 732 528 665 592 l 271 592 b 253 571 258 592 253 585 l 253 0 l 106 0 l 106 619 b 208 733 106 706 135 733 m 331 -139 b 483 -68 357 -87 410 -68 b 633 -139 556 -68 607 -89 l 760 -367 l 603 -367 l 510 -193 b 482 -181 506 -185 496 -181 b 454 -193 469 -181 460 -183 l 363 -367 l 206 -367 "},"Ṛ":{"ha":992,"x_min":0,"x_max":0,"o":"m 619 938 b 921 657 831 938 921 807 b 722 375 921 540 865 415 l 940 0 l 758 0 l 544 363 l 300 363 b 276 339 285 363 276 356 l 276 0 l 113 0 l 113 371 b 260 519 113 476 157 519 l 625 519 b 756 650 718 519 756 583 b 625 774 756 717 715 774 l 111 774 l 111 938 m 565 -106 l 565 -276 l 417 -276 l 417 -106 "},"ṛ":{"ha":643,"x_min":0,"x_max":0,"o":"m 604 733 l 604 592 l 346 592 b 251 497 281 592 251 561 l 251 0 l 104 0 l 104 519 b 303 733 104 667 158 733 m 253 -106 l 253 -276 l 104 -276 l 104 -106 "},"Ṣ":{"ha":976,"x_min":0,"x_max":0,"o":"m 838 938 l 838 774 l 357 774 b 235 663 272 774 235 728 b 374 551 235 606 264 551 l 593 551 b 908 275 849 551 908 410 b 610 0 908 117 824 0 l 88 0 l 88 164 l 615 164 b 744 281 704 164 744 213 b 597 397 744 342 713 397 l 379 397 b 71 668 129 397 71 538 b 363 938 71 824 154 938 m 551 -106 l 551 -276 l 403 -276 l 403 -106 "},"ṣ":{"ha":814,"x_min":0,"x_max":0,"o":"m 717 733 l 717 592 l 311 592 b 215 508 243 592 215 564 b 319 429 215 457 238 429 l 492 429 b 746 222 694 429 746 336 b 506 0 746 92 678 0 l 79 0 l 79 143 l 506 143 b 601 224 574 143 601 167 b 497 306 601 282 571 306 l 324 306 b 71 519 121 306 71 407 b 310 733 71 651 139 733 m 472 -106 l 472 -276 l 324 -276 l 324 -106 "},"Ṭ":{"ha":793,"x_min":0,"x_max":0,"o":"m 753 938 l 753 774 l 479 774 l 479 0 l 314 0 l 314 774 l 40 774 l 40 938 m 471 -106 l 471 -276 l 322 -276 l 322 -106 "},"ṭ":{"ha":521,"x_min":0,"x_max":0,"o":"m 132 733 l 132 907 l 281 907 l 281 733 l 483 733 l 483 592 l 281 592 l 281 244 b 379 135 281 163 310 135 l 481 135 l 481 0 l 349 0 b 132 253 197 0 132 61 l 132 592 l 32 592 l 32 733 m 360 -106 l 360 -276 l 211 -276 l 211 -106 "},"Ẁ":{"ha":1453,"x_min":0,"x_max":0,"o":"m 218 938 l 288 206 b 344 143 292 165 308 143 b 403 194 376 143 396 160 l 514 769 b 729 954 538 890 607 954 b 939 769 851 954 917 890 l 1043 194 b 1103 143 1049 161 1069 143 b 1160 206 1139 143 1156 165 l 1239 938 l 1410 938 l 1322 196 b 1103 -17 1308 72 1250 -17 b 888 174 985 -17 911 42 l 785 746 b 728 796 779 779 758 796 b 671 746 697 796 678 779 l 561 174 b 340 -17 536 46 465 -17 b 126 196 196 -17 140 69 l 46 938 m 717 1283 l 872 985 l 725 985 l 553 1283 "},"ẁ":{"ha":1357,"x_min":0,"x_max":0,"o":"m 201 733 l 267 161 b 319 114 271 129 285 114 b 374 154 353 114 367 128 l 478 599 b 679 747 500 696 563 747 b 875 599 796 747 853 696 l 974 154 b 1029 114 979 128 996 114 b 1079 161 1063 114 1075 129 l 1156 733 l 1315 733 l 1233 153 b 1028 -17 1219 51 1161 -17 b 831 135 914 -17 853 33 l 732 581 b 678 617 726 606 706 617 b 624 581 649 617 629 606 l 519 135 b 317 -17 496 33 433 -17 b 118 153 181 -17 132 51 l 42 733 m 667 1079 l 822 781 l 675 781 l 503 1079 "},"Ẃ":{"ha":1453,"x_min":0,"x_max":0,"o":"m 218 938 l 288 206 b 344 143 292 165 308 143 b 403 194 376 143 396 160 l 514 769 b 729 954 538 890 607 954 b 939 769 851 954 917 890 l 1043 194 b 1103 143 1049 161 1069 143 b 1160 206 1139 143 1156 165 l 1239 938 l 1410 938 l 1322 196 b 1103 -17 1308 72 1250 -17 b 888 174 985 -17 911 42 l 785 746 b 728 796 779 779 758 796 b 671 746 697 796 678 779 l 561 174 b 340 -17 536 46 465 -17 b 126 196 196 -17 140 69 l 46 938 m 904 1283 l 731 985 l 585 985 l 740 1283 "},"ẃ":{"ha":1357,"x_min":0,"x_max":0,"o":"m 201 733 l 267 161 b 319 114 271 129 285 114 b 374 154 353 114 367 128 l 478 599 b 679 747 500 696 563 747 b 875 599 796 747 853 696 l 974 154 b 1029 114 979 128 996 114 b 1079 161 1063 114 1075 129 l 1156 733 l 1315 733 l 1233 153 b 1028 -17 1219 51 1161 -17 b 831 135 914 -17 853 33 l 732 581 b 678 617 726 606 706 617 b 624 581 649 617 629 606 l 519 135 b 317 -17 496 33 433 -17 b 118 153 181 -17 132 51 l 42 733 m 854 1079 l 681 781 l 535 781 l 690 1079 "},"Ẅ":{"ha":1453,"x_min":0,"x_max":0,"o":"m 218 938 l 288 206 b 344 143 292 165 308 143 b 403 194 376 143 396 160 l 514 769 b 729 954 538 890 607 954 b 939 769 851 954 917 890 l 1043 194 b 1103 143 1049 161 1069 143 b 1160 206 1139 143 1156 165 l 1239 938 l 1410 938 l 1322 196 b 1103 -17 1308 72 1250 -17 b 888 174 985 -17 911 42 l 785 746 b 728 796 779 779 758 796 b 671 746 697 796 678 779 l 561 174 b 340 -17 536 46 465 -17 b 126 196 196 -17 140 69 l 46 938 m 636 1214 l 636 1043 l 488 1043 l 488 1214 m 969 1214 l 969 1043 l 821 1043 l 821 1214 "},"ẅ":{"ha":1357,"x_min":0,"x_max":0,"o":"m 201 733 l 267 161 b 319 114 271 129 285 114 b 374 154 353 114 367 128 l 478 599 b 679 747 500 696 563 747 b 875 599 796 747 853 696 l 974 154 b 1029 114 979 128 996 114 b 1079 161 1063 114 1075 129 l 1156 733 l 1315 733 l 1233 153 b 1028 -17 1219 51 1161 -17 b 831 135 914 -17 853 33 l 732 581 b 678 617 726 606 706 617 b 624 581 649 617 629 606 l 519 135 b 317 -17 496 33 433 -17 b 118 153 181 -17 132 51 l 42 733 m 586 1010 l 586 839 l 438 839 l 438 1010 m 919 1010 l 919 839 l 771 839 l 771 1010 "},"Ẓ":{"ha":1032,"x_min":0,"x_max":0,"o":"m 728 938 b 956 732 878 938 956 863 b 806 513 956 625 906 556 l 294 294 b 247 225 265 282 247 257 b 317 164 247 189 271 164 l 935 164 l 935 0 l 306 0 b 79 206 156 0 79 75 b 231 425 79 313 129 382 l 739 643 b 788 713 769 656 788 681 b 717 774 788 749 764 774 l 113 774 l 113 938 m 589 -106 l 589 -276 l 440 -276 l 440 -106 "},"ẓ":{"ha":867,"x_min":0,"x_max":0,"o":"m 608 733 b 797 565 736 733 797 667 b 672 389 797 475 749 417 l 251 236 b 213 186 226 226 213 210 b 268 142 213 158 231 142 l 782 142 l 782 0 l 260 0 b 71 168 133 0 71 67 b 196 346 71 250 111 315 l 618 497 b 657 549 649 508 657 529 b 600 592 657 576 639 592 l 97 592 l 97 733 m 508 -106 l 508 -276 l 360 -276 l 360 -106 "},"Ạ":{"ha":1089,"x_min":0,"x_max":0,"o":"m 808 193 l 283 193 l 207 0 l 26 0 l 356 833 b 553 954 388 922 454 954 b 747 833 650 954 717 922 l 1064 0 l 882 0 m 344 349 l 750 349 l 597 754 b 551 786 589 776 574 786 b 504 754 529 786 514 776 m 624 -106 l 624 -276 l 475 -276 l 475 -106 "},"ạ":{"ha":933,"x_min":0,"x_max":0,"o":"m 575 733 b 831 492 758 733 831 631 l 831 147 b 679 0 831 42 803 0 l 336 0 b 90 224 163 0 90 85 b 338 435 90 357 157 435 l 686 435 l 686 490 b 574 592 686 547 654 592 l 135 592 l 135 733 m 646 143 b 686 181 675 143 686 154 l 686 318 l 340 318 b 235 232 263 318 235 286 b 338 143 235 178 264 143 l 646 143 m 544 -106 l 544 -276 l 396 -276 l 396 -106 "},"Ả":{"ha":1089,"x_min":0,"x_max":0,"o":"m 808 193 l 283 193 l 207 0 l 26 0 l 356 833 b 553 954 388 922 454 954 b 747 833 650 954 717 922 l 1064 0 l 882 0 m 344 349 l 750 349 l 597 754 b 551 786 589 776 574 786 b 504 754 529 786 514 776 m 656 1463 b 863 1278 803 1463 863 1389 b 689 1090 863 1175 810 1090 l 660 1090 b 592 1022 606 1090 592 1068 l 592 985 l 489 985 l 489 1046 b 631 1194 489 1149 521 1194 l 667 1194 b 743 1274 719 1194 743 1229 b 654 1349 743 1319 717 1349 l 422 1349 l 422 1463 "},"ả":{"ha":933,"x_min":0,"x_max":0,"o":"m 575 733 b 831 492 758 733 831 631 l 831 147 b 679 0 831 42 803 0 l 336 0 b 90 224 163 0 90 85 b 338 435 90 357 157 435 l 686 435 l 686 490 b 574 592 686 547 654 592 l 135 592 l 135 733 m 646 143 b 686 181 675 143 686 154 l 686 318 l 340 318 b 235 232 263 318 235 286 b 338 143 235 178 264 143 l 646 143 m 550 1258 b 757 1074 697 1258 757 1185 b 583 886 757 971 704 886 l 554 886 b 486 818 500 886 486 864 l 486 781 l 383 781 l 383 842 b 525 990 383 944 415 990 l 561 990 b 638 1069 614 990 638 1025 b 549 1144 638 1115 611 1144 l 317 1144 l 317 1258 "},"Ấ":{"ha":1089,"x_min":0,"x_max":0,"o":"m 808 193 l 283 193 l 207 0 l 26 0 l 356 833 b 553 954 388 922 454 954 b 747 833 650 954 717 922 l 1064 0 l 882 0 m 344 349 l 750 349 l 597 754 b 551 786 589 776 574 786 b 504 754 529 786 514 776 m 1119 1419 l 946 1121 l 800 1121 l 956 1419 m 394 1213 b 547 1283 421 1264 474 1283 b 697 1213 619 1283 671 1263 l 824 985 l 667 985 l 574 1158 b 546 1171 569 1167 560 1171 b 518 1158 533 1171 524 1168 l 426 985 l 269 985 "},"ấ":{"ha":933,"x_min":0,"x_max":0,"o":"m 575 733 b 831 492 758 733 831 631 l 831 147 b 679 0 831 42 803 0 l 336 0 b 90 224 163 0 90 85 b 338 435 90 357 157 435 l 686 435 l 686 490 b 574 592 686 547 654 592 l 135 592 l 135 733 m 646 143 b 686 181 675 143 686 154 l 686 318 l 340 318 b 235 232 263 318 235 286 b 338 143 235 178 264 143 l 646 143 m 1017 1258 l 843 960 l 697 960 l 853 1258 m 314 1008 b 467 1079 340 1060 393 1079 b 617 1008 539 1079 590 1058 l 743 781 l 586 781 l 493 954 b 465 967 489 963 479 967 b 438 954 453 967 443 964 l 346 781 l 189 781 "},"Ầ":{"ha":1089,"x_min":0,"x_max":0,"o":"m 808 193 l 283 193 l 207 0 l 26 0 l 356 833 b 553 954 388 922 454 954 b 747 833 650 954 717 922 l 1064 0 l 882 0 m 344 349 l 750 349 l 597 754 b 551 786 589 776 574 786 b 504 754 529 786 514 776 m 136 1419 l 292 1121 l 144 1121 l -28 1419 m 394 1213 b 547 1283 421 1264 474 1283 b 697 1213 619 1283 671 1263 l 824 985 l 667 985 l 574 1158 b 546 1171 569 1167 560 1171 b 518 1158 533 1171 524 1168 l 426 985 l 269 985 "},"ầ":{"ha":933,"x_min":0,"x_max":0,"o":"m 575 733 b 831 492 758 733 831 631 l 831 147 b 679 0 831 42 803 0 l 336 0 b 90 224 163 0 90 85 b 338 435 90 357 157 435 l 686 435 l 686 490 b 574 592 686 547 654 592 l 135 592 l 135 733 m 646 143 b 686 181 675 143 686 154 l 686 318 l 340 318 b 235 232 263 318 235 286 b 338 143 235 178 264 143 l 646 143 m 82 1258 l 238 960 l 90 960 l -82 1258 m 315 1008 b 468 1079 342 1060 394 1079 b 618 1008 540 1079 592 1058 l 744 781 l 588 781 l 494 954 b 467 967 490 963 481 967 b 439 954 454 967 444 964 l 347 781 l 190 781 "},"Ẩ":{"ha":1089,"x_min":0,"x_max":0,"o":"m 808 193 l 283 193 l 207 0 l 26 0 l 356 833 b 553 954 388 922 454 954 b 747 833 650 954 717 922 l 1064 0 l 882 0 m 344 349 l 750 349 l 597 754 b 551 786 589 776 574 786 b 504 754 529 786 514 776 m 396 1213 b 549 1283 422 1264 475 1283 b 699 1213 621 1283 672 1263 l 825 985 l 668 985 l 575 1158 b 547 1171 571 1167 561 1171 b 519 1158 535 1171 525 1168 l 428 985 l 271 985 m 992 1558 b 1199 1374 1139 1558 1199 1485 b 1025 1186 1199 1271 1146 1186 l 996 1186 b 928 1118 942 1186 928 1164 l 928 1081 l 825 1081 l 825 1142 b 967 1290 825 1244 857 1290 l 1003 1290 b 1079 1369 1056 1290 1079 1325 b 990 1444 1079 1415 1053 1444 l 758 1444 l 758 1558 "},"ẩ":{"ha":933,"x_min":0,"x_max":0,"o":"m 575 733 b 831 492 758 733 831 631 l 831 147 b 679 0 831 42 803 0 l 336 0 b 90 224 163 0 90 85 b 338 435 90 357 157 435 l 686 435 l 686 490 b 574 592 686 547 654 592 l 135 592 l 135 733 m 646 143 b 686 181 675 143 686 154 l 686 318 l 340 318 b 235 232 263 318 235 286 b 338 143 235 178 264 143 l 646 143 m 315 1008 b 468 1079 342 1060 394 1079 b 618 1008 540 1079 592 1058 l 744 781 l 588 781 l 494 954 b 467 967 490 963 481 967 b 439 954 454 967 444 964 l 347 781 l 190 781 m 867 1438 b 1074 1253 1014 1438 1074 1364 b 900 1065 1074 1150 1021 1065 l 871 1065 b 803 997 817 1065 803 1043 l 803 960 l 700 960 l 700 1021 b 842 1169 700 1124 732 1169 l 878 1169 b 954 1249 931 1169 954 1204 b 865 1324 954 1294 928 1324 l 633 1324 l 633 1438 "},"Ẫ":{"ha":1089,"x_min":0,"x_max":0,"o":"m 808 193 l 283 193 l 207 0 l 26 0 l 356 833 b 553 954 388 922 454 954 b 747 833 650 954 717 922 l 1064 0 l 882 0 m 344 349 l 750 349 l 597 754 b 551 786 589 776 574 786 b 504 754 529 786 514 776 m 867 1446 l 867 1322 l 229 1322 l 229 1446 m 396 1213 b 549 1283 422 1264 475 1283 b 699 1213 621 1283 672 1263 l 825 985 l 668 985 l 575 1158 b 547 1171 571 1167 561 1171 b 519 1158 535 1171 525 1168 l 428 985 l 271 985 "},"ẫ":{"ha":933,"x_min":0,"x_max":0,"o":"m 575 733 b 831 492 758 733 831 631 l 831 147 b 679 0 831 42 803 0 l 336 0 b 90 224 163 0 90 85 b 338 435 90 357 157 435 l 686 435 l 686 490 b 574 592 686 547 654 592 l 135 592 l 135 733 m 646 143 b 686 181 675 143 686 154 l 686 318 l 340 318 b 235 232 263 318 235 286 b 338 143 235 178 264 143 l 646 143 m 789 1311 l 789 1188 l 151 1188 l 151 1311 m 319 1008 b 472 1079 346 1060 399 1079 b 622 1008 544 1079 596 1058 l 749 781 l 592 781 l 499 954 b 471 967 494 963 485 967 b 443 954 458 967 449 964 l 351 781 l 194 781 "},"Ậ":{"ha":1089,"x_min":0,"x_max":0,"o":"m 808 193 l 283 193 l 207 0 l 26 0 l 356 833 b 553 954 388 922 454 954 b 747 833 650 954 717 922 l 1064 0 l 882 0 m 344 349 l 750 349 l 597 754 b 551 786 589 776 574 786 b 504 754 529 786 514 776 m 579 -106 l 579 -276 l 431 -276 l 431 -106 m 396 1213 b 549 1283 422 1264 475 1283 b 699 1213 621 1283 672 1263 l 825 985 l 668 985 l 575 1158 b 547 1171 571 1167 561 1171 b 519 1158 535 1171 525 1168 l 428 985 l 271 985 "},"ậ":{"ha":933,"x_min":0,"x_max":0,"o":"m 575 733 b 831 492 758 733 831 631 l 831 147 b 679 0 831 42 803 0 l 336 0 b 90 224 163 0 90 85 b 338 435 90 357 157 435 l 686 435 l 686 490 b 574 592 686 547 654 592 l 135 592 l 135 733 m 646 143 b 686 181 675 143 686 154 l 686 318 l 340 318 b 235 232 263 318 235 286 b 338 143 235 178 264 143 l 646 143 m 500 -106 l 500 -276 l 351 -276 l 351 -106 m 314 1008 b 467 1079 340 1060 393 1079 b 617 1008 539 1079 590 1058 l 743 781 l 586 781 l 493 954 b 465 967 489 963 479 967 b 438 954 453 967 443 964 l 346 781 l 189 781 "},"Ắ":{"ha":1089,"x_min":0,"x_max":0,"o":"m 808 193 l 283 193 l 207 0 l 26 0 l 356 833 b 553 954 388 922 454 954 b 747 833 650 954 717 922 l 1064 0 l 882 0 m 344 349 l 750 349 l 597 754 b 551 786 589 776 574 786 b 504 754 529 786 514 776 m 757 1597 l 583 1299 l 438 1299 l 593 1597 m 389 1283 l 389 1206 b 549 1086 389 1118 421 1086 b 706 1206 675 1086 706 1118 l 706 1283 l 831 1283 l 831 1204 b 549 985 831 1043 768 985 b 265 1204 326 985 265 1043 l 265 1283 "},"ắ":{"ha":933,"x_min":0,"x_max":0,"o":"m 575 733 b 831 492 758 733 831 631 l 831 147 b 679 0 831 42 803 0 l 336 0 b 90 224 163 0 90 85 b 338 435 90 357 157 435 l 686 435 l 686 490 b 574 592 686 547 654 592 l 135 592 l 135 733 m 646 143 b 686 181 675 143 686 154 l 686 318 l 340 318 b 235 232 263 318 235 286 b 338 143 235 178 264 143 l 646 143 m 700 1394 l 526 1096 l 381 1096 l 536 1394 m 318 1079 l 318 1001 b 478 882 318 914 350 882 b 635 1001 604 882 635 914 l 635 1079 l 760 1079 l 760 1000 b 478 781 760 839 697 781 b 194 1000 256 781 194 839 l 194 1079 "},"Ằ":{"ha":1089,"x_min":0,"x_max":0,"o":"m 808 193 l 283 193 l 207 0 l 26 0 l 356 833 b 553 954 388 922 454 954 b 747 833 650 954 717 922 l 1064 0 l 882 0 m 344 349 l 750 349 l 597 754 b 551 786 589 776 574 786 b 504 754 529 786 514 776 m 389 1283 l 389 1206 b 549 1086 389 1118 421 1086 b 706 1206 675 1086 706 1118 l 706 1283 l 831 1283 l 831 1204 b 549 985 831 1043 768 985 b 265 1204 326 985 265 1043 l 265 1283 m 518 1597 l 674 1299 l 526 1299 l 354 1597 "},"ằ":{"ha":933,"x_min":0,"x_max":0,"o":"m 575 733 b 831 492 758 733 831 631 l 831 147 b 679 0 831 42 803 0 l 336 0 b 90 224 163 0 90 85 b 338 435 90 357 157 435 l 686 435 l 686 490 b 574 592 686 547 654 592 l 135 592 l 135 733 m 646 143 b 686 181 675 143 686 154 l 686 318 l 340 318 b 235 232 263 318 235 286 b 338 143 235 178 264 143 l 646 143 m 314 1079 l 314 1001 b 474 882 314 914 346 882 b 631 1001 600 882 631 914 l 631 1079 l 756 1079 l 756 1000 b 474 781 756 839 693 781 b 190 1000 251 781 190 839 l 190 1079 m 435 1394 l 590 1096 l 443 1096 l 271 1394 "},"Ẳ":{"ha":1089,"x_min":0,"x_max":0,"o":"m 808 193 l 283 193 l 207 0 l 26 0 l 356 833 b 553 954 388 922 454 954 b 747 833 650 954 717 922 l 1064 0 l 882 0 m 344 349 l 750 349 l 597 754 b 551 786 589 776 574 786 b 504 754 529 786 514 776 m 388 1300 l 388 1222 b 547 1103 388 1135 419 1103 b 704 1222 674 1103 704 1135 l 704 1300 l 829 1300 l 829 1221 b 547 1001 829 1060 767 1001 b 264 1221 325 1001 264 1060 l 264 1300 m 656 1735 b 863 1550 803 1735 863 1661 b 689 1363 863 1447 810 1363 l 660 1363 b 592 1294 606 1363 592 1340 l 592 1257 l 489 1257 l 489 1318 b 631 1467 489 1421 521 1467 l 667 1467 b 743 1546 719 1467 743 1501 b 654 1621 743 1592 717 1621 l 422 1621 l 422 1735 "},"ẳ":{"ha":933,"x_min":0,"x_max":0,"o":"m 575 733 b 831 492 758 733 831 631 l 831 147 b 679 0 831 42 803 0 l 336 0 b 90 224 163 0 90 85 b 338 435 90 357 157 435 l 686 435 l 686 490 b 574 592 686 547 654 592 l 135 592 l 135 733 m 646 143 b 686 181 675 143 686 154 l 686 318 l 340 318 b 235 232 263 318 235 286 b 338 143 235 178 264 143 l 646 143 m 311 1079 l 311 1001 b 471 882 311 914 343 882 b 628 1001 597 882 628 914 l 628 1079 l 753 1079 l 753 1000 b 471 781 753 839 690 781 b 188 1000 249 781 188 839 l 188 1079 m 585 1574 b 792 1389 732 1574 792 1500 b 618 1201 792 1286 739 1201 l 589 1201 b 521 1133 535 1201 521 1179 l 521 1096 l 418 1096 l 418 1157 b 560 1306 418 1260 450 1306 l 596 1306 b 672 1385 649 1306 672 1340 b 583 1460 672 1431 646 1460 l 351 1460 l 351 1574 "},"Ẵ":{"ha":1089,"x_min":0,"x_max":0,"o":"m 808 193 l 283 193 l 207 0 l 26 0 l 356 833 b 553 954 388 922 454 954 b 747 833 650 954 717 922 l 1064 0 l 882 0 m 344 349 l 750 349 l 597 754 b 551 786 589 776 574 786 b 504 754 529 786 514 776 m 388 1283 l 388 1206 b 547 1086 388 1118 419 1086 b 704 1206 674 1086 704 1118 l 704 1283 l 829 1283 l 829 1204 b 547 985 829 1043 767 985 b 264 1204 325 985 264 1043 l 264 1283 m 867 1472 l 867 1349 l 229 1349 l 229 1472 "},"ẵ":{"ha":933,"x_min":0,"x_max":0,"o":"m 575 733 b 831 492 758 733 831 631 l 831 147 b 679 0 831 42 803 0 l 336 0 b 90 224 163 0 90 85 b 338 435 90 357 157 435 l 686 435 l 686 490 b 574 592 686 547 654 592 l 135 592 l 135 733 m 646 143 b 686 181 675 143 686 154 l 686 318 l 340 318 b 235 232 263 318 235 286 b 338 143 235 178 264 143 l 646 143 m 311 1079 l 311 1001 b 471 882 311 914 343 882 b 628 1001 597 882 628 914 l 628 1079 l 753 1079 l 753 1000 b 471 781 753 839 690 781 b 188 1000 249 781 188 839 l 188 1079 m 793 1311 l 793 1188 l 156 1188 l 156 1311 "},"Ặ":{"ha":1089,"x_min":0,"x_max":0,"o":"m 808 193 l 283 193 l 207 0 l 26 0 l 356 833 b 553 954 388 922 454 954 b 747 833 650 954 717 922 l 1064 0 l 882 0 m 344 349 l 750 349 l 597 754 b 551 786 589 776 574 786 b 504 754 529 786 514 776 m 389 1283 l 389 1206 b 549 1086 389 1118 421 1086 b 706 1206 675 1086 706 1118 l 706 1283 l 831 1283 l 831 1204 b 549 985 831 1043 768 985 b 265 1204 326 985 265 1043 l 265 1283 m 622 -106 l 622 -276 l 474 -276 l 474 -106 "},"ặ":{"ha":933,"x_min":0,"x_max":0,"o":"m 575 733 b 831 492 758 733 831 631 l 831 147 b 679 0 831 42 803 0 l 336 0 b 90 224 163 0 90 85 b 338 435 90 357 157 435 l 686 435 l 686 490 b 574 592 686 547 654 592 l 135 592 l 135 733 m 646 143 b 686 181 675 143 686 154 l 686 318 l 340 318 b 235 232 263 318 235 286 b 338 143 235 178 264 143 l 646 143 m 307 1079 l 307 1001 b 467 882 307 914 339 882 b 624 1001 593 882 624 914 l 624 1079 l 749 1079 l 749 1000 b 467 781 749 839 686 781 b 183 1000 244 781 183 839 l 183 1079 m 542 -106 l 542 -276 l 393 -276 l 393 -106 "},"Ẹ":{"ha":963,"x_min":0,"x_max":0,"o":"m 863 938 l 863 774 l 393 774 b 251 656 294 774 251 728 b 394 544 251 579 300 544 l 856 544 l 856 396 l 390 396 b 247 282 296 396 247 358 b 389 164 247 208 293 164 l 864 164 l 864 0 l 389 0 b 76 256 167 0 76 110 b 211 471 76 363 125 435 b 79 682 124 507 79 579 b 393 938 79 832 172 938 m 565 -106 l 565 -276 l 417 -276 l 417 -106 "},"ẹ":{"ha":906,"x_min":0,"x_max":0,"o":"m 583 733 b 831 508 757 733 831 650 b 582 297 831 374 763 297 l 233 297 l 233 244 b 346 143 233 186 265 143 l 794 143 l 794 0 l 346 0 b 90 242 163 0 90 103 l 90 492 b 346 733 90 631 163 733 m 233 413 l 578 413 b 686 500 657 413 686 446 b 582 592 686 556 654 592 l 346 592 b 233 490 265 592 233 547 m 525 -106 l 525 -276 l 376 -276 l 376 -106 "},"Ẻ":{"ha":963,"x_min":0,"x_max":0,"o":"m 863 938 l 863 774 l 393 774 b 251 656 294 774 251 728 b 394 544 251 579 300 544 l 856 544 l 856 396 l 390 396 b 247 282 296 396 247 358 b 389 164 247 208 293 164 l 864 164 l 864 0 l 389 0 b 76 256 167 0 76 110 b 211 471 76 363 125 435 b 79 682 124 507 79 579 b 393 938 79 832 172 938 m 611 1463 b 818 1278 758 1463 818 1389 b 644 1090 818 1175 765 1090 l 615 1090 b 547 1022 561 1090 547 1068 l 547 985 l 444 985 l 444 1046 b 586 1194 444 1149 476 1194 l 622 1194 b 699 1274 675 1194 699 1229 b 610 1349 699 1319 672 1349 l 378 1349 l 378 1463 "},"ẻ":{"ha":906,"x_min":0,"x_max":0,"o":"m 583 733 b 831 508 757 733 831 650 b 582 297 831 374 763 297 l 233 297 l 233 244 b 346 143 233 186 265 143 l 794 143 l 794 0 l 346 0 b 90 242 163 0 90 103 l 90 492 b 346 733 90 631 163 733 m 233 413 l 578 413 b 686 500 657 413 686 446 b 582 592 686 556 654 592 l 346 592 b 233 490 265 592 233 547 m 578 1258 b 785 1074 725 1258 785 1185 b 611 886 785 971 732 886 l 582 886 b 514 818 528 886 514 864 l 514 781 l 411 781 l 411 842 b 553 990 411 944 443 990 l 589 990 b 665 1069 642 990 665 1025 b 576 1144 665 1115 639 1144 l 344 1144 l 344 1258 "},"Ế":{"ha":963,"x_min":0,"x_max":0,"o":"m 863 938 l 863 774 l 393 774 b 251 656 294 774 251 728 b 394 544 251 579 300 544 l 856 544 l 856 396 l 390 396 b 247 282 296 396 247 358 b 389 164 247 208 293 164 l 864 164 l 864 0 l 389 0 b 76 256 167 0 76 110 b 211 471 76 363 125 435 b 79 682 124 507 79 579 b 393 938 79 832 172 938 m 1114 1419 l 940 1121 l 794 1121 l 950 1419 m 388 1213 b 540 1283 414 1264 467 1283 b 690 1213 613 1283 664 1263 l 817 985 l 660 985 l 567 1158 b 539 1171 563 1167 553 1171 b 511 1158 526 1171 517 1168 l 419 985 l 263 985 "},"ế":{"ha":906,"x_min":0,"x_max":0,"o":"m 583 733 b 831 508 757 733 831 650 b 582 297 831 374 763 297 l 233 297 l 233 244 b 346 143 233 186 265 143 l 794 143 l 794 0 l 346 0 b 90 242 163 0 90 103 l 90 492 b 346 733 90 631 163 733 m 233 413 l 578 413 b 686 500 657 413 686 446 b 582 592 686 556 654 592 l 346 592 b 233 490 265 592 233 547 m 1014 1258 l 840 960 l 694 960 l 850 1258 m 310 1008 b 463 1079 336 1060 389 1079 b 613 1008 535 1079 586 1058 l 739 781 l 582 781 l 489 954 b 461 967 485 963 475 967 b 433 954 449 967 439 964 l 342 781 l 185 781 "},"Ề":{"ha":963,"x_min":0,"x_max":0,"o":"m 863 938 l 863 774 l 393 774 b 251 656 294 774 251 728 b 394 544 251 579 300 544 l 856 544 l 856 396 l 390 396 b 247 282 296 396 247 358 b 389 164 247 208 293 164 l 864 164 l 864 0 l 389 0 b 76 256 167 0 76 110 b 211 471 76 363 125 435 b 79 682 124 507 79 579 b 393 938 79 832 172 938 m 133 1419 l 289 1121 l 142 1121 l -31 1419 m 389 1213 b 542 1283 415 1264 468 1283 b 692 1213 614 1283 665 1263 l 818 985 l 661 985 l 568 1158 b 540 1171 564 1167 554 1171 b 513 1158 528 1171 518 1168 l 421 985 l 264 985 "},"ề":{"ha":906,"x_min":0,"x_max":0,"o":"m 583 733 b 831 508 757 733 831 650 b 582 297 831 374 763 297 l 233 297 l 233 244 b 346 143 233 186 265 143 l 794 143 l 794 0 l 346 0 b 90 242 163 0 90 103 l 90 492 b 346 733 90 631 163 733 m 233 413 l 578 413 b 686 500 657 413 686 446 b 582 592 686 556 654 592 l 346 592 b 233 490 265 592 233 547 m 75 1258 l 231 960 l 83 960 l -89 1258 m 308 1008 b 461 1079 335 1060 388 1079 b 611 1008 533 1079 585 1058 l 738 781 l 581 781 l 488 954 b 460 967 483 963 474 967 b 432 954 447 967 438 964 l 340 781 l 183 781 "},"Ể":{"ha":963,"x_min":0,"x_max":0,"o":"m 863 938 l 863 774 l 393 774 b 251 656 294 774 251 728 b 394 544 251 579 300 544 l 856 544 l 856 396 l 390 396 b 247 282 296 396 247 358 b 389 164 247 208 293 164 l 864 164 l 864 0 l 389 0 b 76 256 167 0 76 110 b 211 471 76 363 125 435 b 79 682 124 507 79 579 b 393 938 79 832 172 938 m 344 1213 b 497 1283 371 1264 424 1283 b 647 1213 569 1283 621 1263 l 774 985 l 617 985 l 524 1158 b 496 1171 519 1167 510 1171 b 468 1158 483 1171 474 1168 l 376 985 l 219 985 m 940 1558 b 1147 1374 1088 1558 1147 1485 b 974 1186 1147 1271 1094 1186 l 944 1186 b 876 1118 890 1186 876 1164 l 876 1081 l 774 1081 l 774 1142 b 915 1290 774 1244 806 1290 l 951 1290 b 1028 1369 1004 1290 1028 1325 b 939 1444 1028 1415 1001 1444 l 707 1444 l 707 1558 "},"ể":{"ha":906,"x_min":0,"x_max":0,"o":"m 583 733 b 831 508 757 733 831 650 b 582 297 831 374 763 297 l 233 297 l 233 244 b 346 143 233 186 265 143 l 794 143 l 794 0 l 346 0 b 90 242 163 0 90 103 l 90 492 b 346 733 90 631 163 733 m 233 413 l 578 413 b 686 500 657 413 686 446 b 582 592 686 556 654 592 l 346 592 b 233 490 265 592 233 547 m 300 1008 b 453 1079 326 1060 379 1079 b 603 1008 525 1079 576 1058 l 729 781 l 572 781 l 479 954 b 451 967 475 963 465 967 b 424 954 439 967 429 964 l 332 781 l 175 781 m 849 1438 b 1056 1253 996 1438 1056 1364 b 882 1065 1056 1150 1003 1065 l 853 1065 b 785 997 799 1065 785 1043 l 785 960 l 682 960 l 682 1021 b 824 1169 682 1124 714 1169 l 860 1169 b 936 1249 913 1169 936 1204 b 847 1324 936 1294 910 1324 l 615 1324 l 615 1438 "},"Ễ":{"ha":963,"x_min":0,"x_max":0,"o":"m 863 938 l 863 774 l 393 774 b 251 656 294 774 251 728 b 394 544 251 579 300 544 l 856 544 l 856 396 l 390 396 b 247 282 296 396 247 358 b 389 164 247 208 293 164 l 864 164 l 864 0 l 389 0 b 76 256 167 0 76 110 b 211 471 76 363 125 435 b 79 682 124 507 79 579 b 393 938 79 832 172 938 m 828 1472 l 828 1349 l 190 1349 l 190 1472 m 357 1213 b 510 1283 383 1264 436 1283 b 660 1213 582 1283 633 1263 l 786 985 l 629 985 l 536 1158 b 508 1171 532 1167 522 1171 b 481 1158 496 1171 486 1168 l 389 985 l 232 985 "},"ễ":{"ha":906,"x_min":0,"x_max":0,"o":"m 583 733 b 831 508 757 733 831 650 b 582 297 831 374 763 297 l 233 297 l 233 244 b 346 143 233 186 265 143 l 794 143 l 794 0 l 346 0 b 90 242 163 0 90 103 l 90 492 b 346 733 90 631 163 733 m 233 413 l 578 413 b 686 500 657 413 686 446 b 582 592 686 556 654 592 l 346 592 b 233 490 265 592 233 547 m 776 1311 l 776 1188 l 139 1188 l 139 1311 m 306 1008 b 458 1079 332 1060 385 1079 b 608 1008 531 1079 582 1058 l 735 781 l 578 781 l 485 954 b 457 967 481 963 471 967 b 429 954 444 967 435 964 l 338 781 l 181 781 "},"Ệ":{"ha":963,"x_min":0,"x_max":0,"o":"m 863 938 l 863 774 l 393 774 b 251 656 294 774 251 728 b 394 544 251 579 300 544 l 856 544 l 856 396 l 390 396 b 247 282 296 396 247 358 b 389 164 247 208 293 164 l 864 164 l 864 0 l 389 0 b 76 256 167 0 76 110 b 211 471 76 363 125 435 b 79 682 124 507 79 579 b 393 938 79 832 172 938 m 597 -106 l 597 -276 l 449 -276 l 449 -106 m 372 1213 b 525 1283 399 1264 451 1283 b 675 1213 597 1283 649 1263 l 801 985 l 644 985 l 551 1158 b 524 1171 547 1167 538 1171 b 496 1158 511 1171 501 1168 l 404 985 l 247 985 "},"ệ":{"ha":906,"x_min":0,"x_max":0,"o":"m 583 733 b 831 508 757 733 831 650 b 582 297 831 374 763 297 l 233 297 l 233 244 b 346 143 233 186 265 143 l 794 143 l 794 0 l 346 0 b 90 242 163 0 90 103 l 90 492 b 346 733 90 631 163 733 m 233 413 l 578 413 b 686 500 657 413 686 446 b 582 592 686 556 654 592 l 346 592 b 233 490 265 592 233 547 m 531 -106 l 531 -276 l 382 -276 l 382 -106 m 304 1008 b 457 1079 331 1060 383 1079 b 607 1008 529 1079 581 1058 l 733 781 l 576 781 l 483 954 b 456 967 479 963 469 967 b 428 954 443 967 433 964 l 336 781 l 179 781 "},"Ỉ":{"ha":410,"x_min":0,"x_max":0,"o":"m 278 938 l 278 0 l 114 0 l 114 938 m 294 1463 b 501 1278 442 1463 501 1389 b 328 1090 501 1175 449 1090 l 299 1090 b 231 1022 244 1090 231 1068 l 231 985 l 128 985 l 128 1046 b 269 1194 128 1149 160 1194 l 306 1194 b 382 1274 358 1194 382 1229 b 293 1349 382 1319 356 1349 l 61 1349 l 61 1463 "},"ỉ":{"ha":401,"x_min":0,"x_max":0,"o":"m 253 733 l 253 0 l 106 0 l 106 733 m 275 1258 b 482 1074 422 1258 482 1185 b 308 886 482 971 429 886 l 279 886 b 211 818 225 886 211 864 l 211 781 l 108 781 l 108 842 b 250 990 108 944 140 990 l 286 990 b 363 1069 339 990 363 1025 b 274 1144 363 1115 336 1144 l 42 1144 l 42 1258 "},"Ị":{"ha":390,"x_min":0,"x_max":0,"o":"m 278 938 l 278 0 l 114 0 l 114 938 m 269 -106 l 269 -276 l 121 -276 l 121 -106 "},"ị":{"ha":358,"x_min":0,"x_max":0,"o":"m 253 733 l 253 0 l 106 0 l 106 733 m 254 -106 l 254 -276 l 106 -276 l 106 -106 m 254 1010 l 254 839 l 106 839 l 106 1010 "},"Ọ":{"ha":1133,"x_min":0,"x_max":0,"o":"m 631 938 b 1054 467 903 938 1054 782 b 631 0 1054 153 904 0 l 503 0 b 79 467 229 0 79 153 b 503 938 79 782 231 938 m 503 774 b 243 467 322 774 243 682 b 503 164 243 253 321 164 l 631 164 b 889 468 811 164 889 253 b 631 774 889 682 811 774 m 640 -106 l 640 -276 l 492 -276 l 492 -106 "},"ọ":{"ha":932,"x_min":0,"x_max":0,"o":"m 543 733 b 861 367 738 733 861 614 b 543 0 861 119 738 0 l 389 0 b 71 367 193 0 71 119 b 389 733 71 614 193 733 m 403 592 b 219 367 275 592 219 525 b 403 143 219 208 275 143 l 529 143 b 713 367 656 143 713 208 b 529 592 713 525 656 592 m 540 -106 l 540 -276 l 392 -276 l 392 -106 "}}}
